<mxfile host="65bd71144e">
    <diagram id="zOsBUlOQxNhnEtaMxW5K" name="ページ1">
        <mxGraphModel dx="3240" dy="3120" grid="1" gridSize="10" guides="1" tooltips="1" connect="1" arrows="1" fold="1" page="1" pageScale="1" pageWidth="827" pageHeight="1169" math="0" shadow="0">
            <root>
                <mxCell id="0"/>
                <mxCell id="1" parent="0"/>
                <mxCell id="3" value="" style="shape=image;verticalLabelPosition=bottom;labelBackgroundColor=#ffffff;verticalAlign=top;aspect=fixed;imageAspect=0;image=data:image/png,iVBORw0KGgoAAAANSUhEUgAABLAAAASwCAYAAADrIbPPAAAAOXRFWHRTb2Z0d2FyZQBNYXRwbG90bGliIHZlcnNpb24zLjMuNCwgaHR0cHM6Ly9tYXRwbG90bGliLm9yZy8QVMy6AAAACXBIWXMAAA9hAAAPYQGoP6dpAACYQUlEQVR4nOzdd5hdVb0/4M9KgYRepUvvgtIERAVsCCqIouhPFFQs2C96Va69l2vv5aqg2JFeFAHBAtJBCF0h9J6EGiDJ+v1xTpI5w9RkTmZP8r7Pc56z9z5rr7VmHIH5zFrfXWqtAQAAAICmGjfaEwAAAACAgQiwAAAAAGg0ARYAAAAAjSbAAgAAAKDRBFgAAAAANJoACwAAAIBGE2ABAAAA0GgCLAAAAAAaTYAFAAAAQKMJsAAAAABoNAEWAAAAAI0mwAIAAACg0QRYAAAAADSaAAsAAACARpsw2hMAAAAAmmXydu+qoz2HReXRS79TRnsODM4KLAAAAAAaTYAFAAAAQKMJsAAAAABoNAEWAAAAAI2miDsAAADQqVjvQrP4iQQAAACg0QRYAAAAADSaAAsAAACARhNgAQAAANBoirgDAAAAnUoZ7RlAByuwAAAAAGg0ARYAAAAAjSbAAgAAAKDR1MACAAAAOhXrXWgWP5EAAAAANJoACwAAAIBGE2ABAAAA0GgCLAAAAAAaTRF3AAAAoFMpoz0D6GAFFgAAAACNJsACAAAAoNEEWAAAAAA0mhpYAAAAQKdivQvN4icSAAAAgEYTYAEAAADQaAIsAAAAABpNgAUAAABAoyniDgAAAHQqZbRnAB2swAIAAACg0QRYAAAAADSaAAsAAACARlMDCwAAAOhUrHehWfxEAgAAANBoAiwAAAAAGk2ABQAAAECjCbAAAAAAaDRF3AEAAIBOpYz2DKCDFVgAAAAANJoACwAAAIBGE2ABAAAA0GgCLAAAAAAaTRF3AAAAoFOx3oVm8RMJAAAAQKMJsAAAAABoNAEWAAAAAI2mBhYAAADQqZTRngF0sAILAAAAgEYTYAEAAADQaAIsAAAAABpNgAUAAABAoyniDgAAAHQq1rvQLH4iAQAAAGg0ARYAAAAAjSbAAgAAAKDR1MACAAAAOpUy2jOADlZgAQAAANBoAiwAAAAAGk2ABQAAAECjCbAAAAAAaDRF3AEAAIBOxXoXmsVPJAAAAACNJsACAAAAoNEEWAAAAAA0mhpYAAAAQCc1sGgYP5EAAAAANJoACwAAAIBGE2ABAAAA0GgCLAAAAAAaTRF3AAAAoNO4MtozgA5WYAEAAADQaAIsAAAAABpNgAUAAABAowmwAAAAAGg0RdwBAACATsV6F5rFTyQAAAAAjSbAAgAAABiGUsrypZRXllK+U0o5t5RyTynliVLKA6WUa0opPy+lvLiUUobR5yallP8tpVxZSplRSnmolHJtKeW7pZRnDHN+S5dSDiulnFVKuaOU8lgp5dZSyimllINKGXtL7EqtdbTnAAAAADTI5Od9bokJCx496yNDDpmSpJRyeJLPJZk0hOZ/S3JQrfXmQfp8a5JvJJncT5PZST5da/30EOa3RZI/JNlqgGZ/T3JArfWuwfprCjWwAAAAgE5DXzi0JNos88Or25KckeTiJHe3r++S5KAkyyV5TpKzSym71Frv7quzUspBSX7YPp2T5DdJzkwyK8luSQ5OsnSST5VSHqu1fqm/iZVS1krypyRPbV/6V5KjktyeZKMkb26/PzvJKaWU3WutDw/3GzAarMACAAAAOkx+/ueXmLDg0TP/Z7grsL6fVgj0lSRn1lrn9NFm/bSCpM3bl35Wa31TH+1WT3JDkhXSCq/2r7We2KvNLmkFWsukFWo9rdZ6bT9z+3WS17RPf5Pk9bXWWT0+Xy7JyUl2b1/6bK31Y0P5ukfbmNvzCAAAADCKPlJr3avW+ue+wqskqbVOTXJgj0sHllKW6aPpB9IKr5Lku73Dq3Zf/0wyN2SakOQTfY1ZStmqx5h3JHlLz/Cq3ddDSV6XZGb70uGllJX66q9pBFgAAAAAQ1RrvX+I7S5PMnel1DJJNumjWc+Q6+sDdPfjJHO3+u1bSumrVtaBSeauJvtRO6zqa163Jfldj3ntN8C4jSHAAgAAAOiOB3ocd4RO7RVT67dPr6613thfJ7XWB9MqCJ8ky2b+FsCe9u5xfOog8+r5+d79tmoQRdwBAACATsV6l4VVSlkqrYLvc03t1WSbHscXDqHLC5O8uMe9f+wxVkmydft0dpJLh9BXX/NoLD+RAAAAACPv/yVZsX18Sa31zl6fb97juN/VV/202bzXZ+ultR0wSW6ttT4xSF+3pBV0Jcmm7QCs0azAAgAAAJZYpZSlkyzd6/JjtdbHFqLP1ZN8qcelz/bRbKUex/cOodv7+rl32H3VWp8opTyQZOUkE9PalthnzaymsAILAAAAWJIdkWRGr9cRC9pZe+vgH5I8pX3p+FrrcX00Xa7H8cw+Pu/t0R7Hyy9kX4P11zhWYAEAAACdmr+jbCR9IcnXel1boNVXpZRxSX6a5DntS/9O8qYFnxpzCbAAAACAJVZ7q+ACbxecq11H6gdJXte+dHOSF9Rap/VzS88te5OGMETPpxg+uJB9DdZf49hCCAAAALAQ2uHV95K8pX3p1iTPq7XeNMBt03scrzaEYVbt595h91VKmZBkhfbpE0keHsL4o0qABQAAALCA2uHVd5O8vX3ptiR71lr/Pcit1/Y43nAIQ/Vsc22vz25J8kj7eN1SysRB+npqkvHt4+trrXUI448qARYAAADAAugRXh3WvnR7WuHVDUO4/YoexzsNoX3PNlf2/KAdQE1pn45Pst2C9tVUAiwAAACgUxm35LwW9Fv05PDqjrTCq+uHcn+t9aq06mQlyZallA0GGGu5zC8M/0iSc/po9scex3sPMvw+PY5PHaRtIwiwAAAAAIbvO5kfXt2ZVnh13TD7+G2P48MHaPfWJMu2j0+stT7SR5uefb2tlLJsH21SSlknyavbp48mOWGIcx1VAiwAAACAYSilfDvJO9qndybZo9bauy7VUHwl858A+M5Syr59jLVzks+0T2cl+VRfHdVapyT5Xft0rSQ/bhdr79nXckl+mflPKvxarXX6Asx7kZsweBMAAAAAkqSU8tkk72qf1iTfTGsL4JaD3HpJrfXmnhdqrXeXUt6d5Mi0FhkdV0r5TZI/J5mdZLckB2d+4PSJWus1A4xxeJJnJVk3yWuTbF1KOTKt2lwbJTm0/Z4klyX54iBzbowyBgrNAwAAAIvQ5L2+ssSEBY/+6QNlOO1LKWcn2X0BhnpjrfXIfvo8LMnXMj+o6m12ks/VWj8xhPltleQPSbYYoNm5SV5Za71zsP6awgosAAAAgFFUa/1+KeWMJG9P8uIk66W1Iuv2JGcm+VGt9dIh9nVVKWW7JG9O8qq0gqyVk9yb5F9JfpXkl7XWOSP+hXSRFVgAAABAByuwaBpF3AEAAABoNAEWAAAAAI2mBhYAAADQqVjvQrP4iQQAAACg0QRYAAAAADSaAAsAAACARhNgAQAAANBoirgDAAAAnUoZ7RlAByuwAAAAAGg0ARYAAAAAjSbAAgAAAKDR1MACAAAAOhXrXWgWP5EAAAAANJoACwAAAIBGE2ABAAAA0GgCLAAAAAAaTRF3AAAAoFMpoz0D6GAFFgAAAACNJsACAAAAoNEEWAAAAAA0mhpYAAAAQKdivQvN4icSAAAAgEYTYAEAAADQaAIsAAAAABpNgAUAAABAoyniDgAAAHRSxJ2G8RMJAAAAQKMJsAAAAABoNAEWAAAAAI2mBhYAAADQqZTRngF0sAILAAAAgEYTYAEAAADQaAIsAAAAABpNgAUAAABAoyniDgAAAHQq1rvQLH4iAQAAAGg0ARYAAAAAjSbAAgAAAKDRBFgAAAAANJoi7gAAAECnUkZ7BtDBCiwAAAAAGk2ABQAAAECjCbAAAAAAaDQ1sAAAAIBOxXoXmsVPJAAAAACNJsACAAAAoNEEWAAAAAA0mgALAAAAgEZTxB0AAADoVMpozwA6WIEFAAAAQKMJsAAAAABoNAEWAAAAAI2mBhYAAADQoaiBRcNYgQUAAABAowmwAAAAAGg0ARYAAAAAjSbAAgAAAKDRFHEHAAAAOijiTtNYgQUAAABAowmwAAAAAGg0ARYAAAAAjaYGFgAAANBJCSwaxgosAAAAABpNgAUAAABAowmwAAAAAGg0ARYAAAAAjaaIOwAAANChFFXcaRYrsAAAAABoNAEWAAAAAI0mwAIAAACg0QRYAAAAADSaIu4AAABAB0XcaRorsAAAAABoNAEWAAAAAI0mwAIAAACg0dTAAgAAADqogUXTWIEFAAAAQKMJsAAAAABoNAEWAAAAAI0mwAIAAACg0RRxBwAAADoo4k7TWIEFAAAAQKMJsAAAAABoNAEWAAAAAI2mBhYAAADQSQksGsYKLAAAAAAaTYAFAAAAQKPZQsgSZfJ276qjPQcAxo5pF35ntKcAwBg0aYINeDDSrMACAAAAoNGswAIAAAA6lGIRGc1iBRYAAAAAjSbAAgAAAKDRBFgAAAAANJoaWAAAAEAHNbBoGiuwAAAAAGg0ARYAAAAAjSbAAgAAAKDRBFgAAAAANJoi7gAAAEAHRdxpGiuwAAAAAGg0ARYAAAAAjSbAAgAAAKDRBFgAAAAANJoi7gAAAEAHRdxpGiuwAAAAAGg0ARYAAAAAjSbAAgAAAKDR1MACAAAAOimBRcNYgQUAAABAowmwAAAAAGg0ARYAAAAAjSbAAgAAAKDRFHEHAAAAOpSiijvNYgUWAAAAAI0mwAIAAACg0QRYAAAAADSaGlgAAABABzWwaBorsAAAAABoNAEWAAAAAI0mwAIAAACg0QRYAAAAADSaIu4AAABAB0XcB1ZKGZ9kyyQ7Jtmh/f70JJPbTY6qtR4ySB8bJLlxAaewYa31pj76rMPoY2qtdYMFHH+RE2ABAAAADM/vkrxilMZ+KMndozT2qBFgAQAAAAzP+F7n9ye5L8mmw+jj7iT7D7Htu5I8v33821rrI4O0n5Lko4O0GayPRhFgAQAAAAzPBUmuTnJxkotrrTeWUg5J8rOhdtAOoY4frF0pZWKSH/e49JMhdH9vrXXQvscSARYAAADQSQmsAdVaP78Ih9s3yWrt46trrectwrEbw1MIAQAAAJrrzT2Oh7L6arEkwAIAAABooFLKOkle1D59IskvRnE6o0qABQAAANBMB2d+wfiTaq1Dffrg5qWUv5VS7i2lPF5KubuUcn4p5cullM26NNeuEmABAAAANNMbexwPZ/vgmkmenWTVJBOTrJ7kmUn+O8nVpZRvlVKWGrFZLgKKuAMAAAAdSllyqriXUpZOsnSvy4/VWh8bjfnMVUrZPckm7dPbkvxpiLfelOTPSS5Pck+SpZJsnGS/JNultZjp3Uk2KqXsV2udPYLT7hoBFgAAALAkOyLJJ3pd+1SSTy76qXR4U4/jI4cYNO1Zaz27n88+VUo5KMn/pRXYvSTJ+5N8eaFmuYjYQggAAAAsyb6QZMVery+M5oRKKSskOaB9WpP8bCj3DRBezf386CTv6HHpw2NlK6EACwAAAFhi1Vofq7U+0Os1qtsHk7wmyTLt43Nqrf8ewb5/luT69vHKSXYbwb67RoAFAAAA0Cw9tw8Op3j7oGqtNcnZPS5tOZL9d4saWAAAAECHJamIe9OUUrZOsnP7dEaSP3RhmHt6HK/Uhf5HnBVYAAAAAM3Rc/XVr2qtj3ZhjNV6HE/vQv8jToAFAAAA0ACllIlJDupxaUS3D7bHKEn26HHp2pEeoxsEWAAAAADN8LIkT2kfX15rvbgLY7w+yWbt4xlJ/taFMUacGlgAAABABzWwRs0CF28vpXwxyQ9qrTcN0OY1SX7Y49KXaq2PD2uGo0SABQAAADAMpZQNk7y51+VtexxvV0r5bK/Pz6q1njVAn2sneXH79LEkvxzmtN6e5IOllAuS/COtrYHTkkxMsnGSfZPs2KP9qUn+d5hjjBoBFgAAAMDwrJ/kIwN8vm06A60kmZWk3wArycFJxrePj6u13r8A8yppPcFw5wHazEnyzSRH1FpnLcAYo0KABQAAADD63tjj+KcLcP+LkjwryS5JtkjrSYOrtj+bluSaJH9N8rNa69SFmOeoEGABAAAADEOt9ey0VjuNZJ+bDd5qwPsvSHLBCE2ncQRYAAAAQAdF3GmacaM9AQAAAAAYiAALAAAAgEYTYAEAAADQaGpgAQAAAJ2UwKJhrMACAAAAoNEEWAAAAAA0mgALAAAAgEYTYAEAAADQaIq4AwAAAB1KUcWdZrECCwAAAIBGE2ABAAAA0GgCLAAAAAAaTQ0sAAAAoIMaWDSNFVgAAAAANJoACwAAAIBGE2ABAAAA0GgCLAAAAAAaTRF3AAAAoIMi7jSNFVgAAAAANJoACwAAAIBGE2ABAAAA0GgCLAAAAAAaTRF3AAAAoJMa7jSMFVgAAAAANJoACwAAAIBGE2ABAAAA0GhqYAEAAAAdSlEEi2axAgsAAACARhNgAQAAANBoAiwAAAAAGk2ABQAAAECjKeIOAAAAdFDEnaaxAgsAAACARhNgAQAAANBoAiwAAAAAGk0NLAAAAKCDGlg0jRVYAAAAADSaAAsAAACARhNgAQAAANBoAiwAAAAAGk0RdwAAAKCDIu40jRVYAAAAADSaAAsAAACARhNgAQAAANBoamABAAAAnZTAomGswAIAAACg0QRYAAAAADSaAAsAAACARhNgAQAAANBoirgDAAAAHUpRxZ1msQILAAAAgEYTYAEAAADQaAIsAAAAABpNgAUAAABAoyniDgAAAHRQxJ2msQILAAAAgEYTYAEAAADQaAIsAAAAABpNDSwAAACggxJYNI0VWAAAAAA0mgALAAAAgEYTYAEAAADQaAIsAAAAABpNEXcAAACgQ1HFnYaxAgsAAACARhNgAQAAANBoAiwAAAAAGk0NLAAAAKCDElg0jRVYAAAAADSaAAsAAACARhNgAQAAANBoAiwAAAAAGk0RdwAAAKBDUcWdhrECCwAAAIBGE2ABAAAA0GgCLAAAAAAaTQ0sAAAAoIMSWDSNFVgAAAAANJoACwAAAIBGE2ABAAAA0GgCLAAAAAAaTRF3AAAAoMO4caq40yxWYAEAAADQaAIsAAAAABpNgAUAAABAowmwAAAAAGg0RdwBAACADkUNdxrGCiwAAAAAGk2ABQAAAECjCbAAAAAAaDQ1sAAAAIAORREsGsYKLAAAAAAaTYAFAAAAQKMJsAAAAABoNAEWAAAAAI2miDsAAADQQQ13msYKLAAAAAAaTYAFAAAAQKMJsAAAAABoNDWwAAAAgA5FESwaxgosAAAAABpNgAUAAABAowmwAAAAAGg0ARYAAAAAjaaIOwAAANBBEXeaxgosAAAAABpNgAUAAABAowmwAAAAAGg0NbAAAACADkpg0TRWYAEAAADQaAIsAAAAABpNgAUAAABAowmwAAAAAGg0RdwBAACADkUVdxrGCiwAAAAAGk2ABQAAAECjCbAAAAAAaDQBFgAAAACNpog7AAAA0EENd5rGCiwAAACAYSiljC+lPK2Uckgp5dullPNKKY+UUmr7deQQ+zmkxz1DeX1yiP0uXUo5rJRyVinljlLKY6WUW0spp5RSDiqljLk8yAosAAAAgOH5XZJXjPYk+lJK2SLJH5Js1eujddqvfZK8rZRyQK31rkU9vwUlwAIAAAAYnvG9zu9Pcl+STReiz28nOWuQNtcM9GEpZa0kf0ry1PalfyU5KsntSTZK8ub2+7OTnFJK2b3W+vBCzHmREWABAAAAHYoiWIO5IMnVSS5OcnGt9cZSyiFJfrYQfV5Saz1+Ief1tcwPr36T5PW11llzPyylfCvJyUl2T7JDkg8n+dhCjrlICLAAAAAAhqHW+vnRnkNvpZStkhzYPr0jyVt6hldJUmt9qJTyuiQ3JJmU5PBSyldrrdMX6WQXwJgr2gUAAADAkxyYZO7SuR/VWh/qq1Gt9ba0anglyTJJ9lsEc1toAiwAAACAsW/vHsenDtK25+d799uqQQRYAAAAAKPvHaWUq0spD5VSHiml3FxKObGUclgpZZmBbiytomVbt09nJ7l0kLEu7HG8zULMeZFRAwsAAADooIb7qNip1/l67dfLknyqlPKmWuvJ/dy7XlrbAZPk1lrrE4OMdUtaQdf4JJuWUkqttS7gvBcJARaw2FlumaXzgl23zO47bppnbLleNn7q6llpuWXy6GOP5457ZuSiKVPz29Muyp/PvXrQvtZcbYVsv9VTs92WT22/r5e1Vl9x3ueTt3vXkOf16KXfGXLbqbffly1e8okhtx/MUhMn5OCX75JXvGC7bL7hmlllxWVy77SH8q/rbsvv/nhxfnvaRWnCv6/+9OP35rk7Dv/Jw5/9wan53A8HWyXdnDGBsWv27Nn5z3/+nauuvDJXXTUlV025Mtdde01mzpyZJNl3v/3zmc9/cUh93XPP3Zly5ZW5+qopmTLlylw9ZUruvfeeeZ9fPuXaEZv3bbfdmn1e9PwFuvfU08/MOuusO2JzWRgPzJiRk08+Mef85azcdOONuf/++zJp0uSsutqq2WijTbLTM3fO817wwqyxxhoL1P/i8n0CxpzZSc5L8rck1yV5KMlKaT0l8NVJVkmyepITSymvq7X+uo8+VupxfO9gA9ZanyilPJBk5SQTkyzbHrexBFjAYuU9Bz0vn3znSzN50lJP+mzixMlZYbnJ2XzDNfO6l+6cv19yQ970kaNyy53T+uxrn+c+LX/45tu7PeWu22yDNfLrrxyarTZeq+P6OmusnHXWWDl7P+dpOfSVu+X//fdPcvf9D47SLBfOjbcN+u/oxWJMYPT99+Hvy5lnnL7Q/Zz9l7Py3ncdNgIz6q5lllkmq6yy6mhPI0lywnHH5mtf+VKmT5/ecf3xxx/PAw/MyI3/+U/OPOP0zJ49Kwe94ZBFOrcmfZ+A4SulLJ1k6V6XH6u1PrYIhv97kg1qrbf28dn/lVI+mOTHmV+g/aellH/UWm/u1Xa5Hsczhzj2o2kFWEmyfARYjCWllEOS/Kx9+sZa65GjN5snK6V8MsncZSl71lrPHr3Z0ESbrP+UeeHVbXdNy1nnX5tLr74l99z/YJZeemKeuc0Gee0+O2X5ZSfl2dtvkj/9+L3Z/Q1fyT3TnvzP6vHjOssEPv7ErEy54Y5st+V6CzXHKTfcnk99t7+Vvy2PzHx8ocaYa83VVshJ33tnnrrWKkmSf113a3550gW5454Z2WCdVXPIy3fNRuutnt223yTHfvuwvOjN3xixsRfEp757UlZdablB222x0Zr59Lv3TZLMePDRHHfGYFv8mzUmMHbNmTO743zFFVfKiiutlJun3jTMfuZ0nE+YMDGbbLpprrn6qoWdYp9WWWXVfP1b3x1S29/86uic/8/zkiR77b1PJk+e3JU5DccPvvedfP+7307S+l7tvsee2WHHHbPqaqunzpmTO++8I1f8618579y/L9Q4Y/37BCywIzL/98y5PpXkk90euNZ6wyCfP1hKeV2SNZLskWRSkg8leWe359Y0AqxRVkp5RpI3JHlWko2TrJjW8sHpSW5KMiWt4mpn1Fr/PSqThDGk1po/n3t1vvHzM/OXC6590ra4X550fr76s9Nz4nffmc03XDMbrrtaPvOe/fL2T/3ySX3dM+3B/OQP/8ilV9+cS6++JVdcd1uemDV7WFsB+3Lf9Idz0tn/Wqg+hupL73/FvPDqd3+8KG/66M8ze/b8X5q+9+uzc+y3Dstzd9w0O2z11HzgTS/Mp793ygKNddDLds6PP/36JMnm+3w8N99x/7D7OPey/wyp3e47zd/y9/s/XZxHZw62xb9ZYwJj19O22TYbbrRxttpq62y59dZZd931csJxx+bjHz1iWP2sssoqeeUBr86WW2+drbbaOptttnkmLrVUnr715l2Z9+TJk/O8579g0HZPPPFEPv2Jj8473/8VByzwmG8+5PW56MILsuNOz8xPjvzFAvdz2iknzwuvNt98i3zl69/KU9dfv8+2jz/+eB58cMFXE4/G9wmaqixZRbC+kORrva4titVXQ1JrnV1K+Whaq7WS5KV5coDV8y/yk4bYdc/kvfFbMQRYo6SUsmySHyQ5qI+PJyZZs/3aJcmb2/fsU2s9bZFNEsagT37npEx74JEB29x8x7S8/sM/ywW/bf2yccBe2+e/vvS7JwUS/7z8xvzz8hu7Ntdu22KjNXPAi7ZPktxxz4y849O/6givkuThRx/PG//nyFx54icyedJSec9Bz8s3f35WZjz06GhMeUgmThifA/eeX9/yqOPPWyzHBJrp0LeOzNbyZ2y3fZ6x3fYj0tdIOucvZ2XatNbW+o022jhPf8Z2ozqf6dOn5Quf+0yS5ClrrJEf//SorLjSSv22X2qppbLqqt3fyte07xOwcNpbBRsTWPXjvLS2Bk5K8tRSyjK11p6/+EzvcbzaYJ2VUiYkWaF9+kSSh0donl0zbvAmjLT2D8ppmR9ezUpyfJL3J3ltktckeVeSHybpWWV6fLfnVms9stZa2q8juz0ejLTBwqu5rrjutlx7451JkmUnL52N11u9m9MaFQe8aPuMa2+D/Mkf/pGHH+17a+Dt98zIH/7c2g637OSl89I9t11kc1wQ++65bVZbubXl78rrb89FU6YulmMCjIbjjj1m3vHLXzn6q4r+8PvfZ8aM6UmSd777vQOGV4tS075PwOKv1jonSc8tDiv1anJLkrm/DK1bSpk4SJdPzfyM4fqmP4EwsQJrtByW5Dnt45uS7FNr7fdxaKWUTZMcms5EFVhIDz48v7bh5KUH++f72LPXblvNO/7T36cM2PZPf5+Sg16287z7fnnS+V2d28J4w367zjs+6vhzF9sxARa1u+66K+ed+48krTpTL33ZfqM8o+T4dlA0ceLE7PXifUZ5Ni1N/D4Bi79SyrjML7ie9MoHaq21lDIlyU5pBVPbJblggC536nF85QhNs6sEWKPj9T2ODxsovEqSWuv1aRVpA0bIxAnjs8n6T5l3viD1mhbUpus/JWf85H3ZfMM1s8JykzL9wUcz9bb78reLr8/PjjsvN9x894iMs2X7qYOzZs3OZdfeMmDbniuKtt5k7REZvxvWXWOlPH+XLZIkjz3+RH596oWL5ZgAo+GkE47L7NmtIvW777HnItmKN5B77rk7N9/c+vfTJptulsmTJ2fq1Jvyy1/8POf+/W+5++67svTSk7LOuutm12ftlte+7qA85SlrdH1eTfs+AUuMXTK/ZtWtvbYPzvXHzA+m9s7AAVbPvwqcuvDT6z4B1ujYosfxOQvbWSnlpiTrJ5laa92glDIpydvS2oq4SVqP07wtyelJvt4OxPrr65AM8hTCUsrcpYXn1Fr3KKWs1B5v/yQbpbXf9q+11j163LN8kpck2TPJ9mkVrF8+rX22tyf5R5If11oH+j8YjJgD994xKy2/TJLkkqtuzl33LbqahWutvmLWWn3FeedPWWX5PGWV5bPTNhvkva9/fn74u7/mw187Lk/Mmj1ALwNbb82Vs+zk1pOAb7t7embNmjNg+1vvmpZZs2ZnwoTx2eSpfW+nfMYW62a9NVfpt4+eT2d8wa5b5p77+/+eXnvTXbnuprsGnFNfDtp3l4wf39oWefLZV+S+6d3fqj8aYwKMhhOOO3be8f5D2BZ31plnDPj53BpR06ZNG7Ttrs/a7UlP8ZtyxRXzjtdca62cdOLx+eynPpGZM+evoH7sscfywFUzcvVVU/Kro3+ej37iU3nZvi8fdO4LY7jfJxirlqwa7s3WXn316R6X+nuk+W+TfKx9/LZSyldqrU/6j9dSyjpJXt0+fTTJCSM1124SYI2Ont/3NdLaRjgiSinrpvXD/PReH22c1tbFN5ZS3l5rPWqExtsurfpdTx2gzVJJ7k7fT0JYsf3aMsmhpZQfJnlXrXXWSMwP+rLaysvls++dv9z/S//3x0U29k233Zsz/3ltrrjuttw77cFMnDghG627Wl66x7bZbsv1Mn78uLzjtXtkg3VWy6v+64eZM2fBtqKvuPz8XwLuHULgMmvWnDzw8MyssuKyWWrihCw7eakn1cx6x2v3yOv33WVI43/3Y68d8PPP/uDUfO6Hw/9Dz+vb2xyT5MhFVEh9NMYEWNQuuvCCeaudnrLGGnnWbs8e9J7/es/QnuD+7xuuH7TtqaefmXXWWbfj2j333jPv+Ibrrstfz/5LZs+enWdst31e9OK9s9pqq+Xuu+7OaaeenClXXpGZM2fmo0d8KJMnL5MXvPBFQ5rbcC3I9wmgP6WUXZNsk+TntdaZ/bRZNq362M9vX3osyZf6altrnVJK+V1a4dRaSX5cSnlDz9+vSynLJfll5v9+/rVa6/QR+HK6ToA1Om5I64c0Sd7Xfo2EiUl+n1Z4dVlaP5Q3pxWSHZDkuWn9kP60lDK91rqwKeuqaSW16yX5c5KTktyV1tMTn9Kj3bj2uHclOTPJ5Wmtuno0rT28O6b1f7CV01rJ9UCSDy7k3KBPEyeMz6+/cmjWWLX1wI0Tz7o8J/7lX4tk7Bcd+s387eK+F0B+/ken5TX77JTvf/z/ZdLSE7PPc5+W973++fnaUQP/xbo/yy2z9Lzjxx57YoCW883s0W75ZSf1W/R9tDx3x02zUbvY/i133J8z/3nNYjkmwGg4/tg/zDveb7/9M358158dNKgHZjww7/iWW25Okrz9He/KYe98d0e7g95wcL7+1S/nqJ/9NEnymU9+LM/a7dlZZpllRnxOTfw+AaOjlLJhkjf3utzzaUjblVI+2+vzs2qtZ/U4XyOtcOqrpZQ/J7k4rWLsD6e10GP7tHZWzd2rXJMcWmu9aYCpHZ7kWUnWTeshcVuXUo5M63fwjdKqr71Ru+1lSb440NfZJAKs0fGrJF9oH7+3lLJZkp8k+UutdWEK8azdfn0nyftqrT33H327lPLBtJLacUl+VEr5S631gT76GaqnJZmd5KBa6y8HaPdEWvtr/9R+ckJv/1dK+UhaAdiuSQ4vpXy31uoxX4yoUkp++MnX5dnbb5Ik+ffN9+Rtnzx6kY3fX3g1129OvTBLTRyfH36y9YDS97/xhfn2L/+yUFsJR9JbP3F03vqJ/r9fB71s5/z4060Sf5vv8/ERryt2yMvnF1L/xUnnZ1E8KGU0xgRY1B566KH8+c9/StL6d+V++79ySPddPuXaAT9/8yGvz0UXXpAdd3pmfnLkL4Y9r97/2bjDjjs9KbxKWnN+3+H/nQsvOD9XTZmS6dOn55STT8yrXv2aYY85kAX9PgGLrfWTfGSAz7dNZ6CVJLOSnNVH2+XSKsmz/wD93ZlWeHXKQJOqtd5WStkryR/SKl+0bZKv9dH03CSvrLU+NFB/TTJutCewhPpGWj8sc+2d5Jgk95VS/lNKOaaU8t+llGeWMuydxxcleW+v8CpJUmv9cpLj2qdPSXLIsGf+ZN8ZJLxKrXV2rfW0fsKruW3uS/KG9un4JAeNwNygw7c/8pq89iXPTNIq2r7P27+d6Q8+Osqz6vTzE/6Z66e2irivsuKy2fUZGw1yR98eeuSxecdLD/EJi5N6tOv5hMYmWGG5Sdnvec9IksyZMyc/P+Gfi+WYAKPhj6eekpmPtv59uMOOO2W9p/ZbGWKRWmbZZTvOD3jVgf22HTduXF5xwKvnnV9w/sj/M7up3yfollLKEvMaRWck2S/J59vH1ya5N62g64G0dm/9LsnBSTYcLLyaq9Z6VVpPIXxXWnW370ryeFqrsP6Y1u/ez6m13jmSX0y3WYE1CmqtM0spz0/ymSTvSNJzffOG7dfcP+lMLaV8Pcn3aq1D2Qf0lYGCoiRfzvxU94Ak3xrW5J9sYe+fp9Z6QynlzrS2IA6t0M4ASilLJ1m657Wlt317yjhLvZdE3/yfA/PmV+6WJLn1zml58Vu/tUifPDgcf73o+mzafkLiFhuumb9eNPDKrb7M6BHMrbbSsgO0bBk/flxWWLa1Df7xJ2Y1bvvgq1+8Y5aZvFSS5OwLr8vU2+9bLMcEGA3HHzd/W1yTipKvsMIKHedbbb31gO233vpp845vbW85HElN/T4Bo6PWenaShUq/2qufTmy/RlS7ptZ326/FghVYo6TWOrPW+t9p7Ut9U5JfJ7mxj6brp7Vi62+llKE8o3ewgjnnJ5n7aLAd2k8zWFC311r/M9TGpZS1SykfKqWcXkq5tZTycCml9nylFV4lre/LwjoiyYyer1l3XTwC3TLWfOOIV+etr3pOkuS2u6Zlr7d+Mzfeeu8oz6p/906bv4q3ZzH24bjlzml5+NHWKqx1nrJSJkwY+P/q6625ciZMaIW7N9x8z4BtR0PPrXxHLaJC6qMxJsCidsMN1+eKf12eJFl++eXzghfuNcozmm/DDTtXIS+33PIDtu/5+UMPjewTY5v8fQJYUgiwRlmtdVqt9We11v9Xa90oySpJXpRWjayefzraOa3aWQOZ1t6KN9B4Ncm/26fLJFlpgSbecutQG5ZS3pbk+rQKxL0wyTrpXHnW2woDfDZUX8j8pxyumGTFCWvsMALdMpZ844hX522vfm6S5Pa7p2evt34r/7mlueFVkqzaY8XUjIXY4nj1v+9IkkyYMD7P2Hy9AdvuuPX6846vuuH2BR6zG7baeK3s0J7f/TMezglnXb5YjgkwGnoWJd97n5dm0qS+Hho9OjbeZNNMmDB/w8hDDz04QOvOz5dfbrkRnUuTv08ASwoBVsO0A60/11r/J8kmSb7X4+MXlVJ2G+D2of6pqWe7gf+UNbAh/WZdSnlVkh9kfmB1XlpB1tvSeqLC/j1ec5d+LPQ+v1rrY7XWB3q+bB9csvQMr+64Z0b2esu38u8Gri7q7bk7bjrv+Lqpdy1wP6efe/W84xftttWAbfd69vxtGX/8x1ULPGY39FwJ9dvTLspjj88aoPXYHRNgUXviiSdyysnzd600bVvcpEmTsuNOz5x3ftWUKQO2nzLlynnH62+44YjNo+nfJ4AlhRpYDVZrfaKU8t4keySZ+9vnC5P8o59bBi908+R2A/8pa2R8vv0+O8n+tdaT+mtYSvnxIpgPS4Cvf7h3ePXN3HDz3aM8q8H9v5c+M5ttsEaSZPqDj+Qfl/x7kDv6d8yfLs7/vHXvJMmhBzw73/j5mXlk5pNrW629+op55Qu3S5I88ujjOfkv/1qg8Y4+6fwcfdL5CzzfvkycMD6veclO886PPO7cAVqP3TEBRsM5Z/8l99/XWry/+eZbZKseNaRGwoI8ebC3l7x03/zzvNY/h4/5/W+zz0tf1me7OXPm5Nhjfjfv/NnPee5Cjz1Xt79P0FSjW9scnswKrIartc5KcnaPS2sN0HzlUsoqA/XXfqrh3IICjySZvjDzG0wpZcO0VpIlyfGDhFcrpLWFEhbK1z70qrz9wM7wau6T/UbLZ96zb5661sA/3q/aa4d85yPzH/n91SPPyBOznvRA0STJjz51UB699Dt59NLv5CNv26fPNlf/584c86dW3be1Vl8x3/v4/8v48Z3/2F928lL52ecPyeRJrWLl3zr6rMx4qDlPZnzpHttk9ZVbC0Uvuerm/Ou624Z1/1C+TyM9JsBoePrWm8973Xbb0Ko89CxK/vKGrip6ycv2zUYbt/5T8uKLLswPvvedJ7WpteYbX/vfeSu01l5nnbxor7377G9x/T4BLAmswBobej598KF+W7W8MMlvB/j8mZlfX+qiQZ5YOBLW7HF8wyBt94pQlYX0iXe8NIe9Zvckrb/Gfu/XZ2eLDdfMFhuuOeB9l11zS265c9qTrr/39c/LSsv3X67tE+94acf59AcfyTd/cdaT2h16wLNz+MEvyEVXTs15l/8n1910d6Y/8EgmThifDddbLS/dfZt5NZeS5LS/XZmvHzXYMxkG96GvHptdnr5R1l1z5Ry4947ZcuM1c/SJ5+eOe2Zkg3VXyxtfvms2Wm/1JK3vwVd+dnq/fT1ji3Wz3pojkzFfe9Ndue6mwbdHvmG/RV9IfTTGBMaOW2+9Jcf/4ZiOa9ddd+2842uuvirf+ebXOz7faeddsvMuu6a3o478aR6cMaPfsXr3s/yKK+bgQ960INN+krvvvivn/v1vSZKllloqL3lJ3yubBnLWmQv/76m5dn3Wbpk8+ckPLhk/fnw++/kv5tA3viGPPPJIvv/db+e8c/+RvfbeJ6uttlruvuuunHrKyZly5RVJkokTJ+YLX/pKJk6cOCLzGonvEwAjQ4A1Ckopa9Rah1TYppQyMUnPPyFdMcgth5dSftcu1t6XD/Q4PqafNiOpZ72tTfprVEpZKslHuz8dFnfP2m7jecfjxo3LZ96z35Due8vHf9Hn9rfDXrN71l+7/weAfvgtL+44n3r7fX0GWHPn88xtN8wzt+2/Lsfs2XPy3V+fnY9968TMnr3w+fLt98zIy9753fz6fw/NFhutmW03Wzdf/sCTH/J53mX/zms/8H95+NEnbzGc6x2v3SOv33eXhZ5Tknz2B6fmcz88dcA2a6++Yl6465ZJkkdnPp7fnnbRiIzdtDGBseWO22/Pj3/0g34/v+66azsCrSQZP2FCnwHWb355dG6/vf9Vnr3HWXvtdUYswDrphOMze3Zrle/znv/CrLjSSsPu47/e884RmUuSnHr6mVlnnb4fQr3107bJd77/oxzxoQ/krjvvzGWXXpLLLr3kSe1WWXXVfPkrX88zttt+xOY1Et8nAEaGAGt0XFRKOTPJD2ut/f55v5SyXFrFzzdrX5qR5MT+2rc9M8nXSymH915dVUo5PMncdc93JzlqQSY/TNektWpsuST7llJ27f01l1Imt+ey7SKYD4yKlx323ezy9FZ4tdkGa2S1lZbNKiu2ytFNf/DRXHvjnfn7Jf/OL048Lzff8eSVYAvjmv/cmV1e+8Uc8vJn5RUv3C6bbbBGVl5hcu6b/nCuuP62/Pa0i/KbUy9K/7n36Dho313mbXk84azLF8nWxtEYE2A0HH/csfOOX/6KV47iTIZmhx13yrEnnJJjj/l9zjrzz7l56tTMmDEjyy+/XDbaeJPsvufz8qpXHZhllh1qSdihGWvfJ4DFWWnaLyxLglLKnUnWaJ9OTXJOksvSCpUeS7Jqku2SvCLJ6u12Nckhtdaf99HfTUnWT3J7kpuT7JLk0iS/THJLkqekFVzt3qOv/WutJ/TR1yFJftY+fWOt9cg+2sz9oTmn1rrHEL7eLyX5YPv0iSRHJrkgrdVZWyU5OMl6Sc5MsnmSdZNMrbVu0Edfn0zyifbpnrXWswcbv6fJ273LDzwAQzbtwifX2wGAwUyakDFfAn3XL/11ifnd6bwPPXfM/++1JLACa3RcnlatqpJW8PSG9qs/dyZ5d611sC1/T6QVVJ2SVgC2XR9tHkvy9r7Cqy76WFqrq16cZGKSt7RfPZ2T5MAkFy/CeQEAAABjgABrFNRa9yqlrJ3kRUl2S/K0JBsmWSnJ+LS23N2W5F9JTk1yXK314b57e1Lft5VSdknytiSvSbJpWtv3bktyepKv1VqvH9EvaPA5PV5KeUmSQ9JabfX0JJOT3JNWTa9fJzm61jqneFYrAAAA0IsthIuBHlsI+9x2x3y2EAIwHLYQArAgbCEcW2whHBuswAIAAAA62BxD04wb7QkAAAAAwEAEWAAAAAA0mgALAAAAgEYTYAEAAADQaIq4LwY8eRAAAICRVFRxp2GswAIAAACg0QRYAAAAADSaAAsAAACARlMDCwAAAOigBBZNYwUWAAAAAI0mwAIAAACg0QRYAAAAADSaAAsAAACARlPEHQAAAOhQVHGnYazAAgAAAKDRBFgAAAAANJoACwAAAIBGUwMLAAAA6KAGFk1jBRYAAAAAjSbAAgAAAKDRBFgAAAAANJoACwAAAIBGU8QdAAAA6KCGO01jBRYAAAAAjSbAAgAAAKDRBFgAAAAANJoACwAAAIBGU8QdAAAA6FBUcadhrMACAAAAoNEEWAAAAAA0mgALAAAAgEZTAwsAAADooAQWTWMFFgAAAACNJsACAAAAoNEEWAAAAAA0mgALAAAAgEZTxB0AAADoUFRxp2GswAIAAACg0QRYAAAAADSaAAsAAACARlMDCwAAAOigBBZNYwUWAAAAAI0mwAIAAACg0QRYAAAAADSaAAsAAACARlPEHQAAAOgwThV3GsYKLAAAAAAaTYAFAAAAQKMJsAAAAABoNDWwAAAAgA5KYNE0VmABAAAA0GgCLAAAAAAaTYAFAAAAQKMJsAAAAABoNEXcAQAAgA5FFXcaxgosAAAAABpNgAUAAABAowmwAAAAAGg0ARYAAAAAjaaIOwAAANBhnBruNIwVWAAAAAA0mgALAAAAgEYTYAEAAADQaGpgAQAAAB1KUQSLZrECCwAAAIBGE2ABAAAA0GgCLAAAAAAaTYAFAAAAQKMp4g4AAAB0UMOdprECCwAAAIBGE2ABAAAA0GgCLAAAAAAaTQ0sAAAAoEOJIlg0ixVYAAAAADSaAAsAAACARhNgAQAAANBoAiwAAAAAGk0RdwAAAKDDODXcaRgrsAAAAABoNAEWAAAAAI0mwAIAAACg0dTAAgAAADqUoggWzWIFFgAAAACNJsACAAAAoNEEWAAAAAA0mgALAAAAgEZTxB0AAADooIY7TWMFFgAAAACNJsACAAAAoNEEWAAAAAA0mgALAAAAgEZTxB0AAADoME4VdxrGCiwAAAAAGk2ABQAAAECjCbAAAAAAaDQ1sAAAAIAOSmDRNFZgAQAAANBoAiwAAAAAGk2ABQAAAECjCbAAAAAAaDRF3AEAAIAORRV3GsYKLAAAAAAaTYAFAAAAQKMJsAAAAABoNDWwAAAAgA5KYNE0VmABAAAA0GgCLAAAAAAaTYAFAAAAQKOpgQUAAAAwDKWU8Um2TLJjkh3a709PMrnd5Kha6yFD6Kck2TnJC5LsmmTrJGskKUnuT/KvJKe1+5s+hP7qML6MqbXWDYbRflQJsAAAAIAO41RxH8zvkrxiYToopWyW5Mwk6/bTZK32a68kHyulvK3W+oeFGXMsE2ABAAAADM/4Xuf3J7kvyabD6GOVzA+vHkvylyT/SHJz+3yTJK9La6XXqkl+V0p5ba31d0Poe0qSjw7S5pFhzHXUCbAAAAAAhueCJFcnuTjJxbXWG0sphyT52TD7uSXJ/yY5utY6rfeHpZQvJflGknemVcf8+6WU04ewnfDeWuvxw5xLowmwAAAAAIah1vr5EejmiiSb1FofH2CcWaWUd6dVH2v7tFZtvTzJkSMw/pgiwAIAAAA6qIDVfbXWh4fYrpZSfp9WgJUk23ZvVs01brQnAAAAAMCAHuhxPLnfVouxBV6BVUr5+EhOpKda66e71TcAAADAGLNNj+OpQ2i/eSnlb2kVgF8hyfQkNyY5J8n/1VqvG/EZdtnCbCH8ZJI6QvPoTYAFAAAALPFKKSsnObDHpVOGcNua7ddcq7dfz0zy/lLKd5N8YKD6W02zsDWwurEttluhGAAAAMBY89UkK7ePT6y1XjFI+5uS/DnJ5UnuSbJUko2T7Jdku7TKSb07yUallP1qrbO7MemRtjAB1p4jNgsAAACgMUpZcsq4l1KWTrJ0r8uP1VofG4359FRKeXuSN7ZPpyd57yC37FlrPbufzz5VSjkoyf+l9fW+JMn7k3x54WfafQscYNVazxnJiQAAAACMgiOSfKLXtU+lVTpp1JRSXpLk2+3TOUneWGu9aaB7Bgiv5n5+dCllqSQ/aV/6cCnlG2NhK6GnEAIAAABLsi8kWbHX6wujOaFSyguSHJPWwqOa5K211uNHqPufJbm+fbxykt1GqN+uEmABAAAAS6xa62O11gd6vUZt+2Ap5XlJTkwyKa3w6rBa608Gvmvoaq01ydk9Lm05Un1308IWcR+SUsrEJBsmWSXJUrXWvy6KcQEAAADGinZ4dVKSye1L76y1/rALQ93T43ilLvQ/4roaYLW/8e9PskdayWHSSg8n9Gr3jiTPSHJrrfXT3ZwTAAAAMLBxS04N98boEV4t07707lrr97s03Go9jqd3aYwR1ZUAq5QyLsl3k7x17qVBbrknyaFJ5pRSjqq1Tu3GvAAAAACapo/w6r211u90aayS1kKjua7txjgjrVs1sL6R5G1pBVcPJvl1kmMHaH98kgfa7V/WpTkBAAAANEopZY90hlfvq7V+q4tDvj7JZu3jGUn+1sWxRsyIB1illB2SvCutrYJnJdmo1vq6JL/o755a6xNJzkgrwNp9pOcEAAAA0DSllN2TnJLO8OqbC9jXF0spGwzS5jVJetbU+lKt9fEFGW9R68YWwre13+9Ksn+t9cEh3ndJklck2aoLcwIAAACGqLXLjP6UUjZM8uZel7ftcbxdKeWzvT4/q9Z6Vo8+npHO8OpPSaaWUl4+yPD31lr/3sf1tyf5YCnlgiT/SGtr4LQkE5NsnGTfJDv2aH9qkv8dZKzG6EaA9dy0Vl8dOYzwKkluab+vM/JTAgAAABgx6yf5yACfb5vOQCtJZqW1U22uZyRZtsf5Xu3XYM5JZw2rnkqSnduv/sxJ8s0kR9RaZw1hvEboRoA1N4D61zDve6T9vsyArQAAAADo7UVJnpVklyRbpPWkwVXbn01Lck2Svyb52Vh8eF43Aqy56wznDPO+Fdrvw1m1BQAAALBI1VrPzvz8Y0H7ODLJkSMwnbn9XZDkgpHqr2m68RTCe9rv6w/zvqe3328fwbkAAAAAMMZ1I8C6MK0U8iVDvaGUMiHJAWnVzjq3C3MCAAAAhqiUJefF2NCNAOv49vtzSin7DPGezyRZu338+xGfEQAAAABjVjcCrN+k9ajGkuS3pZTX9tewlLJ6KeX7ST6Y1uqr82utZ3RhTgAAAACMUSNexL3WOqeU8qok/0iyfJKjSylfSnLH3DallN8nWS/J9knGpxV2TUvyupGeDwAAAABjWzeeQpha65WllD2SHJNkwyTrJlknrVVWSfKK9vvc3aY3Jdm31npjN+YDAAAADF1RHIqG6cYWwiRJrfXSJE9L8r4kl6QVXpVerylpbR/cutZ6ZbfmAgAAAMDY1ZUVWHPVWh9N8q0k3yqlLJ/WtsGVkjyU5LZa633dHB8AAACAsa+rAVZPtdYHk1y1qMYDAAAAYPHQtS2EAAAAADASFskKrFLKBkmemWTttJ5M+GCS25OcX2uduijmAAAAAAzNODXcaZiuBlillFenVaR9uwHaXJLkS7XWY7o5FwAAAADGpq5sISylTCyl/D7Jr9MKr3o/fbDna/skvy2l/K6UslQ35gMAAADA2NWtFVi/TfLyHufXJjkjyfVJHk6ybJJNkrwgyRbtNq9MMr79DgAAAABJuhBglVJekVZ4VZPcm+TQWutJA7R/SZL/S7JGkpeXUvavtR430vMCAAAAhqYURbBolm5sIXxT+/2xJHsOFF4lSa31lCTPTzKzfenQLswJAAAAgDGqGwHWjmmtvjqq1nrVUG5otzsyrZpYO3RhTgAAAACMUd0IsFZsv/9jmPed2+t+AAAAAOhKgHVX+332MO+b2/6uAVsBAAAAsETpRoB1Qft9+2HeN7f9P0dwLgAAAMAwlSXoxdjQjQDrB2n9DLy5lLLWUG5ot3tzWrWzftiFOQEAAAAwRo14gFVrPSvJ15OslOSsUso2A7UvpTwtyZnt9l+ttf5lpOcEAAAAwNg1YUFvLKU8d4CPT0iyfpJXJLmklHJ6kjOSXJ/k4STLJtkkyQvbr/FJjklycinlubXWvy7ovAAAAABYvCxwgJXk7LS2/A2kphVOvbj96ktpt3tl+1UXcl4AAAAALEYWNigaar2zwdqpmwYAAAANMa74NZ1mWZgA61MjNgsAAAAA6McCB1i1VgEWAAAAAF034k8hBAAAAICRpFg6AAAA0EEJLJrGCiwAAAAAGk2ABQAAAECjdXULYSnlWUkOTrJLknWTrJDBQ7Naa7W1EQAAAIAkXQqwSinLJPlpklfNvdSNcQAAAABY/HVrpdMvk+ybVnD1cJIr0lqFVZNcleTRJBskWa3dvia5uN0WAAAAGEVFFXcaZsRrYJVSXpBkv/bp8UnWrrU+q0eTj9Ran1lrfUqSnZP8Ma2ga+kkh9Ra9xzpOQEAAAAwdnWjiPsb2u93JPl/tdYH+2tYa72w1rpPkm8m2SbJ8aWUpbowJwAAAADGqG4EWHO3Cv621jqzj8/7Wof4/iTXJNk2yZu6MCcAAAAAxqhuBFhrtt//1et6bb8v3fuGWuucJEenFW69ugtzAgAAAIaolCXnxdjQjQBrUvv9gV7X5xZoX7mf+25ov28+4jMCAAAAYMzqRoA1vf2+TK/r97XfN+nnvrnB1qojPSEAAAAAxq5uBFjXt9/X73X9yrS2CL6gn/t2b7/3XrkFAAAAwBKsGwHWRWkFVdv1uv7H9vu2pZS39fyglPKKJAemVSfroi7MCQAAAIAxakIX+jwzybuTPK+UMr7WOrt9/ZdJPplklSTfK6W8Oa26V5sk2SGt0Ksm+VEX5gQAAAAM0TjVzWmYbqzA+lOSm5I8nh7bBWut05McmmR2WmHVDmmtupobXiXJT2utx3dhTgAAAACMUSMeYNVaH6u1blRrXavW+qden52QVq2rMzM/yCpJrkvyjlrrW0Z6PgAAAACMbd3YQjigWut5SV5YSpmQZLUkD9daH1zU8wAAAABgbFjkAdZctdZZSe4crfEBAACAvimBRdN0owYWAAAAAIwYARYAAAAAjbbAWwhLKU8dyYn0VGu9uVt9AwAAADC2LEwNrJuS1BGaR081o1ibCwAAAIBmWdigSFk3AAAAWMwUVdxpmIUJsI4asVkAAAAAQD8WOMCqtb5xJCcCAAAAAH3xFEIAAAAAGk2xdJYo0y78zmhPAYAx5LKbpo/2FAAYg3bZZKXRnsJCs9qFpvEzCQAAAECjCbAAAAAAaDQBFgAAAACNJsACAAAAoNEUcQcAAAA6lFJGewrQwQosAAAAABpNgAUAAABAowmwAAAAAGg0ARYAAAAAjaaIOwAAANBhnBruNMwiC7BKKUslWSXJUrXWmxfVuAAAAACMbV0NsEopmyV5b5K9kmzYvlx7j1tKeU2SjZLcWWv9aTfnBAAAAMDY0rUAq5TyoSSfSTI+yWCLD5dN8tkks0opJ9da7+7WvAAAAAAYW7pSxL2U8uEkn08rIJuT5Lwkfx/gll8nmZlW2LVvN+YEAAAADM24suS8GBtGPMAqpWya1sqrJLkyydNqrbsl+Wp/99RaH0lyVvt0j5GeEwAAAABjVzdWYL0rrZVUM5LsVWu9doj3XZTWVsNtujAnAAAAAMaobgRYz0urUPvPa613DOO+G9vv6438lAAAAAAYq7oRYM0NoC4a5n0Ptt+XG8G5AAAAADDGdeMphEu332cO8765wdXDIzgXAAAAYJhKUd2cZunGCqx72u/rDPO+rdrvd43gXAAAAAAY47oRYF2eVjH2Fwz1htKKdvdPq3bW+V2YEwAAAABjVDcCrJPa7y8upew0xHvenWTT9vEJIz8lAAAAAMaqbgRYRyW5vd33iaWUZ/XXsJQysZTyoSRfTWv11bW11mO7MCcAAABgiMaVJefF2DDiRdxrrY+VUl6X5PQkT0nyt1LKeUmmzW1TSvnftJ5WuGeS1dLacjgzyUEjPR8AAAAAxrZuPIUwtdZzSikvT/KLJKsk2XXuR+33w9vvc7PO6UleXWu9pBvzAQAAAGDs6sYWwiRJrfW0JE9L8o0k96cVVvV+zUjyvSRPq7We0a25AAAAADB2dWUF1ly11jvTWm11eCllqyQbJFkpyUNJbk1yWa11TjfnAAAAAMDY1tUAq6da61VJrlpU4wEAAAALpihuTsN0bQshAAAAAIwEARYAAAAAjTbiWwhLKc9d2D5qrX8dibkAAAAAMPZ1owbW2UnqQtxfswhrcwEAAACdximCRcN0Kyjykw4AAADAiOhGgPWpIbQZn2S1JLsmeXpaq65OSHJ5F+YDAAAAwBg24gFWrXUoAdY8pZTnJzkqyQuSfK/WesZIzwkAAACAsWvUn0JYaz0zyV5Jlkryq1LKWqM8JQAAAAAaZNQDrCSptU5J8uu0thW+e5SnAwAAAEu0cUvQi7GhSf9b/bX9vt+ozgIAAACARmlSgPVg+/2pozoLAAAAABqlSQHW5u33OqqzAAAAAKBRGhFglVJWS/L2tMKrG0Z5OgAAAAA0yITRGriUMiHJOklekOQj7eOa5NjRmhMAAACQlDLaM4BOIx5glVJmL8TtNyT5+kjNBQAAAICxrxtbCMsCvs5K8vxa68NdmBMAAAAAY1Q3thD+NUMrxP5YkmlJpiQ5rdZ6cRfmAgAAAMAYN+IBVq11j5HuEwAAAFh0ximCRcM04imEAAAAANCfbhRx/3j78D+11qNHun8AAAAAlizdqIH1ybRqYH2sC30DAAAAsITpxhbCGe33G7rQNwAAAABLmG6swLotyQpJlu1C3wAAAECXqeFO03RjBdafkpQkz+5C3wAAAAAsYboRYH0/ycwkryulbN2F/gEAAABYgox4gFVrvSHJW9p9n1FKedlIjwEAAADAkmOhamCVUn7aPvxWrfWy9rWPt6/9JckLkxxfSpma5B9Jbk3y6GD91lo/vTDzAgAAABbcODWwaJiFLeJ+SJKa5Pgkl7WvfbJ9Le33kmT99muoBFgAAAAAJOnOUwiTVmg10PlA6uBNAAAAAFhSdCPA2rMLfQIAAACwhBrxAKvWes5I9wkAAADAkqtbWwgBAACAMWpcUcWdZhk32hMAAAAAgIEIsAAAAABotJHaQvjZUsr7RqivWmt9/gj1BQAAAMAYN1IB1tYj1E9JUkeoLwAAAGABKIFF04xUgOVHGwAAAICuGKkA66NJ/jFCfQEAAAA0VillfJItk+yYZIf2+9OTTG43OarWesgw+9wkyduS7J1kvSTjk9yW5IwkP661XjaMvpZO8qYkr2rPc5Uk9yS5PMmvk/yq1jpnOPMbbSMVYF1Zaz1nhPoCAAAAaLLfJXnFSHVWSnlrkm9kfgA212bt19tKKZ+utX56CH1tkeQPSbbq9dE67dc+7f4OqLXetbBzX1RGKsACAAAAWFKM73V+f5L7kmw63I5KKQcl+WH7dE6S3yQ5M8msJLslOTjJ0kk+VUp5rNb6pQH6WivJn5I8tX3pX0mOSnJ7ko2SvLn9/uwkp5RSdq+1PjzcOY8GARYAAADQYZxK14O5IMnVSS5OcnGt9cZSyiFJfjacTkopqyf5bvt0TpL9a60n9mjy81LKz9IKtJZJ8tlSyvG11mv76fJrmR9e/SbJ62uts3qM960kJyfZPa2tjx9O8rHhzHm0jBvtCQAAAACMJbXWz9daj6i1HlNrvXEhuvpAkhXax9/tFV7NHeufmR8yTUjyib46KqVsleTA9ukdSd7SM7xq9/VQktclmdm+dHgpZaWFmP8iI8ACAAAAGB0H9jj++gDtfpxk7la/fUspvWtlze1r7tq5H7XDqieptd6WVg2vpLWqa7+hT3f0CLAAAAAAFrH2iqn126dXD7SSq9b6YJK/tU+XTWsLYG979zg+dZDhe36+d7+tGmQkAiw7YwEAAACGZ5sexxcOoX3PNj3vTSmlJNm6fTo7yaUL2ldTLWwR9w3b73cv7EQAAACAZijWqiwKm/c4HkodrZ5tNu/12XppbQdMkltrrU8M0tctaQVd45NsWkoptdY6hDmMmoUKsGqtU0dqIgAAAACLWill6SRL97r8WK31sS4PvVKP43uH0P6+fu4ddl+11idKKQ8kWTnJxLS2JfZZM6sp1MACAAAAlmRHJJnR63XEIhh3uR7HM/ttNd+jPY6XX8i+BuuvcRZ2CyEAAADAWPaFJF/rda3bq68YJgEWAAAA0GHcElQCq71VcDQCq55b9iYNof3kHscPLmRfg/XXOLYQAgAAACx603scrzaE9qv2c++w+yqlTEiyQvv0iSQPD2H8USXAAgAAAFj0ru1xvOEQ2vdsc22vz25J8kj7eN1SysRB+npqWk8gTJLrm/4EwkSABQAAADAaruhxvNMQ2vdsc2XPD9oB1JT26fgk2y1oX00lwAIAAABYxGqtVyW5uX26ZSllg/7allKWS/Kc9ukjSc7po9kfexzvPcjw+/Q4PnWQto0gwAIAAAA6jCtLzmuU/bbH8eEDtHtrkmXbxyfWWh/po03Pvt5WSlm2jzYppayT5NXt00eTnDDEuY4qARYAAADA6PhK5j8B8J2llH17Nyil7JzkM+3TWUk+1VdHtdYpSX7XPl0ryY/bxdp79rVckl9m/pMKv1Zrnb4wX8CiMmHwJgAAAADMVUrZMMmbe13etsfxdqWUz/b6/Kxa61k9L9Ra7y6lvDvJkWktMjqulPKbJH9OMjvJbkkOzvzA6RO11msGmNrhSZ6VZN0kr02ydSnlyCS3J9koyaHt9yS5LMkXB/xCG0SABQAAADA86yf5yACfb5vOQCtprZ46q3fDWutRpZRlknwtraDq/7VfPc1O8rla6+cHmlSt9bZSyl5J/pBki/YcvtZH03OTvLLW+tBA/TWJAAsAAADoUMroF4daktRav19KOSPJ25O8OMl6aa3Iuj3JmUl+VGu9dIh9XVVK2S6tFWKvSivIWjnJvUn+leRXSX5Za50z4l9IFwmwAAAAAIah1np2khFN+Wqt1yd5f/u1sH3NTPLd9muxoIg7AAAAAI0mwAIAAACg0QRYAAAAADSaGlgAAABAh3FquNMwVmABAAAA0GgCLAAAAAAaTYAFAAAAQKOpgQUAAAB0KGpg0TBWYAEAAADQaAIsAAAAABpNgAUAAABAowmwAAAAAGg0RdwBAACADuNUcadhrMACAAAAoNEEWAAAAAA0mgALAAAAgEYTYAEAAADQaIq4AwAAAB3GqeFOw1iBBQAAAECjCbAAAAAAaDQBFgAAAACNpgYWAAAA0KGogUXDWIEFAAAAQKMJsAAAAABoNAEWAAAAAI0mwAIAAACg0RRxBwAAADqMiyruNIsVWAAAAAA0mgALAAAAgEYTYAEAAADQaGpgAQAAAB2KElg0jBVYAAAAADSaAAsAAACARhNgAQAAANBoAiwAAAAAGk0RdwAAAKDDOEXcaRgrsAAAAABoNAEWAAAAAI0mwAIAAACg0dTAAgAAADqMK4pg0SxWYAEAAADQaAIsAAAAABpNgAUAAABAowmwAAAAAGg0RdwBAACADmq40zRWYAEAAADQaAIsAAAAABpNgAUAAABAowmwAAAAAGg0RdwBAACADuNUcadhrMACAAAAoNEEWAAAAAA0mgALAAAAgEZTAwsAAADooAQWTWMFFgAAAACNJsACAAAAoNEEWAAAAAA0mgALAAAAgEZTxB0AAADoYLULTeNnEgAAAIBGE2ABAAAA0GgCLAAAAAAaTQ0sAAAAoEMpZbSnAB2swAIAAACg0QRYAAAAADSaAAsAAACARhNgAQAAANBoirgDAAAAHZRwp2mswAIAAACg0QRYAAAAADSaAAsAAACARlMDCwAAAOgwrqiCRbNYgQUAAABAowmwAAAAAGg0ARYAAAAAjSbAAgAAAKDRFHEHAAAAOijhTtNYgQUAAABAowmwAAAAAGg0ARYAAAAAjSbAAgAAAKDRFHEHAAAAOhRV3GkYK7AAAAAAaDQBFgAAAACNJsACAAAAoNHUwAIAAAA6FEWwaBgrsAAAAABoNAEWAAAAAI0mwAIAAACg0QRYAAAAADSaIu4AAABAB6tdaBo/kwAAAAA0mgALAAAAgEYTYAEAAADQaGpgAQAAAB1KKaM9BehgBRYAAAAAjSbAAgAAAKDRbCEEllizZ8/Of/7z71x15ZW56qopuWrKlbnu2msyc+bMJMm+++2fz3z+i0Pq65577s6UK6/M1VdNyZQpV+bqKVNy7733zPv88inXduVrmOuBGTNy8skn5py/nJWbbrwx999/XyZNmpxVV1s1G220SXZ65s553gtemDXWWKOr8xiKRx5+OMcde0z+es7Zuf666/LAAzOy3HLLZe111s0eez4vrzzg1Vl1tdXG/JjA2Db139fmvLP/lCmXXZhp996dRx95OMutuFJWWnnVbLzF07LlNttnh133yLjx45907/T7782N11+dm264Zt77jGn3zfv8qFPOH7F53nPX7fnAm/ZfoHu/8tPjsvoaa4/YXIZrJL9Pj82cmVtuvH5+fzdcnTtumZo5c2YnSQ5938fynBe+dMS/hr48/vhj+fi7X587bp0679qHv/C9bLntDotkfIDFlQALWGL99+Hvy5lnnL7Q/Zz9l7Py3ncdNgIzWjAnHHdsvvaVL2X69Okd1x9//PE88MCM3Pif/+TMM07P7NmzctAbDhmVOc51wfn/zIf/+/257757O65PmzYt06ZNy5Qrr8jRPz8qH//UZ/KCF75ozI4JjF2PPvJQjv7h1/KPM09NrbXjs+n33ZPp992Tm264JmeefEy+99szsuxyy3e0ufT8v+Ubn/7AopzyApk0eZmssOIqozb+SH+f/uuQl+XhBx8Ysf4WxnFH/7gjvAJgZAiwBlBKuSnJ+kmm1lo36OPzQ5L8rH36xlrrkcPtY7SVUub+l9k5tdY9RnMuQzHW5kuzzf2r7FwrrrhSVlxppdw89aZh9jOn43zChInZZNNNc83VVy3sFAf1g+99J9//7rfnjbv7Hntmhx13zKqrrZ46Z07uvPOOXPGvf+W8c//e9bkM5pKLL8o73nZonnjiiSTJFltulb33eUnWWnvtPPTgQ/nnef/IGX8+PTNmTM+HPvBf+eZ3vpdnP2f3MTcmMHY99OCMfOVj782N11+dJFl51dWz47P2zHobbpplll02jz76SO66/ZZMufSC3HTDNX320fvfCeMnTMi662+cqf/uzkrcFVZcJe/56JeH1PaMk36fqy6/MEnyzOe8IEtPmtSVOQ3FSH+faq/+Vl19zcya9UTHiq5F4cbrr84fj/tVkmTpSZPz2MxHF+n4MJKUcKdpFrsAq0fAMVwr11qnj+RcRkMp5ZPtw5v6CtSA+Z62zbbZcKONs9VWW2fLrbfOuuuulxOOOzYf/+gRw+pnlVVWySsPeHW23HrrbLXV1tlss80zcaml8vStN+/SzFtOO+XkeeHV5ptvka98/Vt56vrr99n28ccfz4MPPrjAY735kNfnogsvyI47PTM/OfIXw77/iccfz0eO+OC8IOmg1x+cD3zoiI6n27zyVa/OP887N+9+x9vy+OOP5+Mf+Z+cdNqfsuyyyy3QnEdjTGBs+8GXPz4vvHrx/v8vr3zD27PUUks/qd2rDn5Hpt13TyZNnvykz1ZYceXsvtd+2XDTLbLBJltmvQ02yYSJE3PwS3buypyXnjQpO+w6ePA+a9as/Oxbn593vvuL9l3gMb/w4cNyzRWXZIttts8RX/z+AvUx0t+n7XZ5btZaZ/1ssMkW2WCTLbL8iivlx1/7dP5+5ikL1N+CmDVrVv7vG5/NnDmzs/0uz80jDz+Ua664ZJGND7C4W+wCLPKJ9vs5SY4cxXlA4x361rePSD/P2G77PGO77Uekr6GaPn1avvC5zyRJnrLGGvnxT4/Kiiut1G/7pZZaKquuuuoimt2TnXXWGbn9ttuStFZBvf+DH+7z0cy77PqsHPrWt+d73/lW7rvv3hz986PytsPeOWbGBMauv/355FxxyT+TJM/b55V57aHvHbD9yquu3uf1TbfaNptute2Iz29hXXr+X/PgA9OTJGuvt0E22XKbUZ3PSH+f3nr4JwZv1GUn/uanufWmGzJ5mWXzhnd8MD/434+P9pQAFiuL+1MI9x/G6+FuTKDWukGttTRx+2CStOdWbMeDseUPv/99ZsyYniR557vfO2B41QTn//Of845ftu9+GTeu/3/9vHz/V847PvWUk8bUmMDYdcoxrdWlkyYvk1e/8R2jPJuR99fTT5x3/NyFWH1F326+8fqc/PujkiSvfuO7+g04AVhwi/UKrFrr8aM9B4BuOP7YY5IkEydOzF4v3meUZzO4u++6c97xBhtuOGDbNdZcM5MmT87MRx/NTTfemKlTb8r6628wJsYExqbrrro8d9x6U5Jku52fm8nLLF7biO+/9+5ceckFSVq1pnZ73t6jPKPFy+zZs/KTb3w2s2fNymZbPz177r1gT4WEpulr5TqMpsU6wAJYHN1zz925+ebW04022XSzTJ48OVOn3pRf/uLnOffvf8vdd9+VpZeelHXWXTe7Pmu3vPZ1B+UpT1ljVOfc+0lew3H9tdcuUJg0GmMCY9O1V1w673jjzbdOklz0j7/knNNPyNQbrs3DDz2Y5VZYMetvtFl2fPbzstvz9s748WPnP6P/ceap8x5cst0zn50VVhq9pw8ujk79w9G56YZrMnHiUnnju//HL/0AXTJ2/s07Rg3hSYafzPy6VXvWWs8upTwvyduT7JxkjSQzklyU5Ke11j/0M07v39R276egfcfTEofzVL9SygZJDk3yvCQbJ1k5yWNJprbnd3KSE2utj/dx73ZJ9k6yW5Kt2l/X+CT3J7kiySlJflJrfWigOQDJlCuumHe85lpr5aQTj89nP/WJzJw5c971xx57LA9cNSNXXzUlvzr65/noJz6Vl+378n77POvMMwYcc9q0afPeB2u767N2y+RehY1XXW21ecdTb7ppwCf93XXXXZn56PynNt14438GHK8/ozEmMDbNLdyeJCusvEq+/bkP5aJzz+5oM/3+ezP9/ntz+UXn5k/H/ybv+9j/ZvU1117EM10wfztj/tbooWwfvPi8cwb8fG4trQcfmD5o26dtt/OoPu2w226/+cac8KufJEleduAhWXu9DUZ3QgCLMQFWw5RSvprk8F6Xn5JknyT7lFKOT/KaWutji3BO45N8Nsn7k0zs9fHEJFu3XwcneV+Sb/a6/+NJPtVP92u2Xy9M8sFSyv611gtGbPKwGLrn3nvmHd9w3XX569l/yezZs/OM7bbPi168d1ZbbbXcfdfdOe3UkzPlyisyc+bMfPSID2Xy5GXyghe+qM8+/+s9Qyta/u8brh+07amnn5l11lm349r2O+yYE447Nkly0okn5P8d9IZ+/0J94vHHdpw/+OADQ5pbb6MxJjA2TZ9277zj447+Ue64dWomTJiY3Z6/Tzbb6ukZP2FCbv7P9Tnn9BPy8IMP5NabbsgXj3hHPvWto7Lc8iuO4swHd80Vl+Su229N0io8v832uwx6z7c++8Eh9X3b1P8M2vYrPz0uq08aG0HfcM2ZMyf/983P5oknHs+662+cl7zq4NGeEsBibXEv4j7WvDut8GpGkq8nOSitUOhHaa10SpKXJ/lVH/fOLUY/15T0Xaz+rOFMqLR+2/t1kg+nFVbVJKcm+a8kByZ5Q5JPJ/lrkjlJ+vrtcJkks5Ocl+QrSd6a5NVJXpvkiCT/aLdbO8lppZT1hjNHWNI8MGN+uHLLLTdn9uzZefs73pWjjv51XnfQG7LXi/fJ6w8+JL/8ze9z8BvfNK/tZz75sTzyyCOjMeW88EV7ZcUVV0qSXH3VlHz9q1/uc4vfBef/Mz/+Yecj2R96aMGesTEaYwJj0yMPPTjv+I5bp2bZ5VbIx7/2k7zpPf+TZ7/gJdl1j71y4Jvelc9/7zdZ+6mtmnr33n1Hjjnq+/112Rh//fP81VfPfsFLM278+FGczeLl9BN+k39fc2XKuHF503v+JxMmWBsA0E3+Kdssr0hyfZLn1Vpv7XH956WUb6cVPq2e5BWllNfUWn8zt8HcgvU9VhfcO0JF7P8ryavax3cleXmt9Z99NSylbJjWtsLe/pDkW7XW2/sZ44ullIOSHJVklbS2VB66ULOGxVitczrOd9hxpxz2znc/qV0pJe87/L9z4QXn56opUzJ9+vSccvKJedWrX/OktpdPuXbAMd98yOtz0YUXZMednpmfHPmLYc952WWXy4f+5yP5nw/9d5LkqJ/9NBdecH5evM9Ls9Zaa+WhBx/KP/95bs44/U+ZPXt21lvvqbnllpuTJOPGLVgtkdEYExib5szp/Ofqa9787qy/8eZParfSKqvmsP/+dD727tcnSf5+xik58E3vamzR90cfeSgX/r31t8tSSp7zwpcO6b6jTjl/wM+/8OHDcs0Vl2SLbbbPEV9sfojXDXfdcWv+8IsfJkle8NIDsvEWTxvlGcHIs9qFplmsA6x+akD15aha6yHdnMsQzUny6l7hVZKk1nplKeXQJCe0L30wyW96txtJpZRlk/xP+3R2Bgiv2nO8McmNfVy/cLCxaq1Hl1L2SmvV2WtLKYfVWp9YsJm3lFKWTrJ0z2vTH5qZpZdeup87YGxYZtllO84PeNWB/bYdN25cXnHAq3PVlFapvQvO/2efAdai8JKX7pvHZj6WL3zu03n88cdz1ZQpuWrKlI4248aNy2HvfHcefOCBHP2L1uPIV1hhwbfnjMaYwNgzafIy846XnjQ5z9qz/6f0PXWjzbLxFk/Lv6+5Mk888Xiuu+pfefqOz1oU0xy2f57z5zz+WKs+4uZP2y5rrLXuIHcwFLXW/PSbn8vjj83MqquvmQPecNhoTwlgiSBUbZbTa62X9fdhrfXEJHOXSWxXStmoy/PZO8mq7eMTBgqvRsjf2+/LJNl2BPo7Iq3tmPNe//ulL4xAtzC6VlhhhY7zrbbeesD2W289/6/Ct7ZXGI2WVxzwqpx82p/z5re8LVttvXWWX2GFTJgwMWuuuVb2eenLctQvf5O3v+NdmT5j+rx7ehZjHytjAmPLssvN/+fquhtsnAkTe5f87LThJlvOO777jtu6Nq+F9bc/D694O0Nz1il/yDVXXJIkOfidH+wIQAHonsV6BVY6a0INZHR/o5tv4Ed7zW8zd037M5N081FZz+lxfEK/rYagXUtr7yQHJNkhyXpJlk//P4PrJrl4YcZM8oUkX+t54b8/dMSMhewTRt2GG3Zm18stt/yA7Xt+3oTaTmusuWbe877D85739X5exXz/vuGGecfbbLPwefZojAmMHWutt36uury1YHyZIWwHnLzs/DYzHxn9f6725dap/8m/r22tOF1m2eWy0257jvKMFh9n/6n1n8UrrbJabvr3tbnp331vw7/37jvmHZ971mm57qrLk7SezLjx5gP/8QmAJ1usA6wRqgG1KF0/zDbdfqRLz3XmVy1oJ6WUNZMck2S3Ydy2wuBNBtZ+UmPH0xpnzlrYXmH0bbzJppkwYUJmzWr9QD/00INZbfXV+23/UI/ixMsv18w6LT1Nnz4t1193XZJkmWWWyRZbbrVYjgk0x1M33HTe8SOPPDRo+0cfnt9mcq9t3U3Rc/XVLrvvlaWWnjSKs1nMtB8IMv3+e3Nsuw7WYHoW0580abIAC2ABLNYB1hg0lD/h9Wwz8LKLhdczRBr8v+b6UEqZkOSPSZ7evjQtyUlJrkhyZ5JH06qvlSTPS+tJjEniETnQj0mTJmXHnZ6Zf553bpLkqilTssGG/e8onjLlynnH62+4Ydfnt7BOPvGEzJrVKoH30pftl6WWWmqxHBNojm133DWllNRac+tN/86sJ54YcBvhjTdcPe94rXXWXxRTHJZZs2bl3L+cNu/8uS962SjOBhirejwgDBpBgNUsQ/kTXs82D/bbamQ80ON4QZdtHJj54dWZSfavtfY571LKOgs4BixxXvLSfecFWMf8/rfZ56V9/3IyZ86cHHvM7+adP/s5z12g8RbkyYML4u6778oPv/+9JMnEiRPzute/YbEcE2iWVVZbI5s/bbtcc8UleWzmozn3L6f1WzPq5v9cl39f0/rDwKTJy2TTrZq35fiy8/+WB6ZPS9JaXbbhplsOcsfwLKlPHpzrM985ekjt5j6tMUk+/IXvZcttd+jmtAAWe4q4N8smw2xze7cm0tbzaYgLup/mRT2O39dfeNXW/KUhsAg8fevN571uu+1JDyVNkrzkZftmo41b/zi4+KIL84PvfedJbWqt+cbX/nfeU/fWXmedvGiv/p+s1W233npLbr+9/2LHN9xwfd7ypoPzwAOtUnWHvfM9A64sG8r3aaTHBBZfrzr4HfOOf/OTb2dqH3WNZky7Lz/4yifmnb9w3wO7vjXv4JfsPO91z11D+0+/vyrevlB+/LVPz/ueH/fLH4/2dABoswKrWV6YXkXH+/CCHsfn9/F5TVLar4X11yTvaR/vl+TnC9DHmj2Ob+i3VcuLF6B/WGC33npLjv/DMR3Xrrtu/i8s11x9Vb7zza93fL7Tzrtk5112fVJfRx350zw4o/9nBPTuZ/kVV8zBh7xpQaadJBk/fnw++/kv5tA3viGPPPJIvv/db+e8c/+RvfbeJ6uttlruvuuunHrKyZly5RVJWiuLvvClr2RiP1tizjpzKM+QGJpdn7VbJk+e/KTrV0+Zkg9+4L/yjO22z447PTNPXX/9LL300rn33ntz4QXn569n/2VeXa/9X3lA3vjmQxd6LqMxJjA2bbLlNnnJAW/IKcf8PA8/9EA+ffibs9vz98lmWz8j48ePz83/uT7nnH5CHn6wtUB9w023zL6veWOffZ127C/z8EP9/83umJ//oON82eWWz96veN2IfB3T7rsnV1zcenD0xIlLZdc99xp2Hxefd86IzCVpFSxfelLfId9Ifp+uuvyiXHX5RR3Xpv5n/r/TLzr37Nx1R+cfO3Z/0b5Zfc1ul5QFYKQIsJrlhaWUbWut/+rrw1LKS5Js0T69pNZ6Yx/NHkqrNtZIVBQ9Lcm9SVZLsl8pZZda6z+H2UfPml2bJLmyr0allAOTqGbJInXH7bfnxz/6Qb+fX3fdtR2BVpKMnzChzwDrN788esCVPr3HWXvtdRYqwEqSrZ+2Tb7z/R/liA99IHfdeWcuu/SSXHbpJU9qt8qqq+bLX/l6nrHd9v329V/veedCzaWnU08/M+uss26fn82ZMyeXXHxRLrn4oj4/nzR5ct76tnfkTYe+ZcTqLozGmMDY9Oo3vjPjxo3LKcf8IrNmPZFz/nRCzvnTkx/EvM32u+SwD34mSy21dJ/9nHHS7zueQNfbSb/9Wcf5ak9Za8QCrL+feUrmzGmVF91+192z3PIrDruPb332gyMylyT5yk+Py+qT+g6JRvL7dO2Vlz6pfU+XXfC3XHbB3zqubf2MnQRYMAD/VUTTCLCaZXyS35VSnldr7VgjXkrZKslPelz6cj993Jhk2yRblFIm11ofXdDJ1FofKaV8LsnX23M7vpTy8v5CrFLK+klWqbVe2uPyhUn2bx9/rpTyilrr7F737ZnkRws6T1iS7bDjTjn2hFNy7DG/z1ln/jk3T52aGTNmZPnll8tGG2+S3fd8Xl71qgOzTAOekrXTzjvnY5/4dC684Pxcd921uf++e/PQQw9n5ZVXyjrrrpfn7r5HXrrvy7PGGmuM6TGBse2Agw/LM5/z/Pz19JNy5aUXZNp9d2f27NlZYcWVs8mW22S35++Tp+/4rNGeZr/+9ueT5x0r3g7A4qTU9mNgFxellJ5f0P79Nnyy82utHX8CKqXclGT9JFNrrRv0MdYhSeb+qeeNtdYj+2gzWB+fTDK3mMIfkrwyyfS0wqpL0gqOnpXkkCRz118fW2t9ZV9fRCnlq0kOb5+emda2v3vS2lqYJFfUWm/r0X7u9XNqrXv00V9J8rskB7Qv1SSnJvlzkjuSLJVkoyS7t18fqLV+o8f9T0lr6+DcJyZOac9papKVk+yV1vbEOUl+neSgdrv+vp8DzncwM2dl8fqBB6CrLrtp+mhPAYAxaJdNVhrzC5iO/9edS8zvTi/fds0x/7/XkmBxX4F13DDa7p/k+C7NY6i+k+SmJO9vv/pyQpKB1ph/tf35Gkme33719MYkRw51QrXWWkp5TVorvt6bVqD2kvarL3N63X93e3vgMUmWSWub4Jd63fNIkre3+z4oAAAAAD14CmHD1Fo/kFah9t8nuSXJ42mtoPpjklfVWl9ea505wP23J9k+rWLw/0ryYLJwq45qrbNrre9P60mE/5vWyrD7k8xu939lkp+mtZLqe33cf1qSp6e1TfDG9tc0I8lV7Xk+o9b6i4WZIwAAACwKpZRPllLqArzO7qOvQ4bZxycX/VfcDIvdCqxa64gt/etry1+vz4/MIKuZBuujn3vOTGv73wJph1j9reDq3XbI369a63VJFqiqZ631hiRvG6TNkRn8+2lpJwAAQJd5tk1X/Ge0JzCWLXYBFgAAAEAX/SbJZUNoNzHJ0WnVjk7+f3t3Hq9rWdeL//MFlVnACUVRNELRNDBDjEzUY4oYiqaSooKZ0yklNTxWJ7WfSpraMYeTGYaYQ2UJKKGBU1o4Ys7gxCCTIMgsG9lcvz/ue5/9rIc1PGu+117vN6/7te7heq77ep69Xqy9P+u6vne3cmk2b03yyTnanDXBfbdIAiwAAACACbXWzsoEQVJVHZbN4dXZrbXPzfGSM1trJy5yeFssNbAAAAAAlt6zR/bnmn3FHMzAAgAAAKbYKopgLUZV3SXJwf3hTUlOWMXhbBHMwAIAAABYWs9KsnW/f0pr7ZLVHMyWQIC1ylprr2qtVb99erXHAwAAACzaUSP7x034mhdW1Xeq6tqqur6qzq+qk6vqBVW1/XIMci0RYAEAAAAskap6aJK9+8OLk/zbhC/91ST3SbJDku2S7JHkt5K8I8m5VfW4JR7qmqIGFgAAALBuVdU2SbYZO72htbZhgV2OFm9/T2tt4xztNyY5I8lnk3w3ybVJdknyK0mekuR2Se6Y5OSqenpr7QMLHNeaJsACAAAApqj1VcP9FUleOXbu1UleNd+OqmqnJE8eOTXX0wc/l2TP1toF01z7u6o6Jsm7kjw1SSV5d1X9Z2vt/PmOba2zhBAAAABYz45NsvPYduwC+3pquiWASfLZ1tr3ZmvcWvv+DOHVpuvXJHl6kk/3p7ZN8vIFjm1NE2ABAAAA61ZrbUNr7eqxbSmWD05avH2u8W1M8qcjp9ZlLSwBFgAAAMAiVdV9kjykP7w6yT8vYfdnJLmh37/7enwqoRpYAAAAwBSV9VUEa4n87sj+B1tr1y9Vx621m6vqiiS796d2SbJk/a8FZmABAAAALEJV3SrJM0ZOLcnywZH+t0qy68ipK5ey/7VAgAUAAACwOIck2a3f/2Zr7YtL3P8BSbbr9y9Yytlda4UACwAAAGBxRpcPLsfsqz8fOfXRpex/rRBgAQAAACxQVd05ycH94Y1J/mHC1z2kqp5bVdvO0maHJCckeWR/akOS1y9iuGuWIu4AAADAFKWG+3w8M5vzlZNaaz+Z8HW7JXlnkjdV1WlJvpLkR0muS7JzkgcmOTzJ7fv2LclzWmvnLtG41xQBFgAAAMDCPXtkfyHLB3dMcli/zeSSdOHVKQvof4sgwAIAAABYgKo6MMm9+8MfJTltHi8/Pcnjkzw4yf5J9kg322qXJNcnuTTJmUlOSfJPrbUblmbUa5MACwAAAGABWmv/mWRBCy5ba9cmObnfmIMi7gAAAAAMmhlYAAAAwBRbLWxSESwbM7AAAAAAGDQBFgAAAACDJsACAAAAYNDUwAIAAACmKCWwGBgzsAAAAAAYNAEWAAAAAIMmwAIAAABg0ARYAAAAAAyaIu4AAADAFIq4MzRmYAEAAAAwaAIsAAAAAAZNgAUAAADAoKmBBQAAAExRUQSLYTEDCwAAAIBBE2ABAAAAMGgCLAAAAAAGTYAFAAAAwKAp4g4AAABMsZUa7gyMGVgAAAAADJoACwAAAIBBE2ABAAAAMGhqYAEAAABTVBTBYljMwAIAAABg0ARYAAAAAAyaAAsAAACAQRNgAQAAADBoirgDAAAAU5Qa7gyMGVgAAAAADJoACwAAAIBBE2ABAAAAMGgCLAAAAAAGTRF3AAAAYIqKKu4MixlYAAAAAAyaAAsAAACAQRNgAQAAADBoamABAAAAU2ylBBYDYwYWAAAAAIMmwAIAAABg0ARYAAAAAAyaAAsAAACAQVPEHQAAAJiiooo7w2IGFgAAAACDJsACAAAAYNAEWAAAAAAMmhpYAAAAwBSlBBYDYwYWAAAAAIMmwAIAAABg0ARYAAAAAAyaAAsAAACAQVPEHQAAAJhCDXeGxgwsAAAAAAZNgAUAAADAoAmwAAAAABg0NbAAAACAKbYqVbAYFjOwAAAAABg0ARYAAAAAgybAAgAAAGDQBFgAAAAADJoi7gAAAMAUSrgzNGZgAQAAADBoAiwAAAAABk2ABQAAAMCgCbAAAAAAGDRF3AEAAICpVHFnYMzAAgAAAGDQBFgAAAAADJoACwAAAIBBUwMLAAAAmKIUwWJgzMACAAAAYNAEWAAAAAAMmgALAAAAgEETYAEAAAAwaIq4AwAAAFOUGu4MjBlYAAAAAAyaAAsAAACAQRNgAQAAADBoamABAAAAUyiBxdCYgQUAAADAoAmwAAAAABg0ARYAAAAAgybAAgAAAGDQFHEHAAAAplLFnYExAwsAAACAQRNgAQAAADBoAiwAAAAABk0NLAAAAGCKUgSLgTEDCwAAAIBBE2ABAAAAMGgCLAAAAAAGTYAFAAAAwKAp4g4AAABMUWq4MzBmYAEAAAAwaAIsAAAAAAZNgAUAAADAoAmwAAAAABg0RdwBAACAKdRwZ2jMwAIAAABg0ARYAAAAAAyaAAsAAACAQVMDCwAAAJhKESwGxgwsAAAAAAZNgAUAAADAoAmwAAAAABg0ARYAAAAAg6aIOwAAADBFqeLOwJiBBQAAAMCgCbAAAAAAGDQBFgAAAACDpgYWAAAAMEUpgcXAmIEFAAAAwKAJsAAAAAAYNAEWAAAAAIMmwAIAAABg0BRxBwAAAKZQw52hMQMLAAAAgEETYAEAAAAwaAIsAAAAAAZNDSwAAABgKkWwGBgzsAAAAADmoao+XVVtHtueE/S5V1X9ZVV9s6quqqprq+rsqnp7Ve27/O9q2ARYAAAAAKuoqp6b5OtJXpbkfklum2SHJHsneWGSL1fVn63eCFefJYQAAAAAC3fYBG0unelCVR2R5J394c1JPpjkE0luSnJgkmcl2SbJq6tqQ2vt9Ysb7tokwAIAAABYoNbaiQt9bVXdMcnb+8ObkxzWWjt5pMkJVfX36QKt7ZO8pqpObK2dvdB7rlWWEAIAAABT1Dr6b5W9LN1ywSR5+1h4lSRprX0+yf/uD2+V5JUrNLZBEWABAAAArI6njuz/1Szt3pXkun7/0KrabvmGNEwCLAAAAIAVVlX3TXKP/vA7rbVzZmrbWrsmyWf7wx2SPGyZhzc4AiwAAACABaqqj1bVhVV1Y1X9tKq+VVXvqqqHz/HS+4/sf2mCW422uf+MrbZQAiwAAACAhTskye5Jbp1klyT3TfKcJJ+sqk9U1V1meN29R/ZnnH01Q5t7z9hqC+UphAAAAMAUteq1zdeEnyY5LcmXk1yYZGOSuyZ5ZJKDk1SSRyQ5o6oOaK1dMvb6XUb2fzLB/S6f4bXrggALAAAAWLeqapsk24yd3tBa2zDLy16R5CuttRunufbmqnpQkn9Jcvd0da7eneSxY+12HNm/YYKh/mxkf6cJ2m9RLCEEAAAA1rNXJLlqbHvFbC9orZ0xQ3i16fqXkzwmyaYQ7OCq+tWlGe76JMACAAAA1rNjk+w8th272E5ba99J8t6RU48ba3LtyP62E3S53cj+NQsd11plCSEAAAAwxXoqgdUvFZxtueBifCpdQfck2Wfs2pUj+3eYoK/bz/DadcEMLAAAAIDlcdnI/i5j184e2b/nBH2Ntjl7xlZbKAEWAAAAwPIYnVl15di1b4zsT1Ifa7TNNxc6oLVKgAUAAACwPB4+sj9l1lRr7dtJzu8P96mqPWfqpKp2TPLQ/vD6JJ9ZwjGuCQIsAAAAgCVWVXsnecbIqY9O0+wfR/ZfMkt3z02yQ79/cmvt+kUOb80RYAEAAABT1Tra5vvRVL2oqn5tjjb7Jfl4Nj9d8N9ba1+Ypukbs/mJgv+zqg6dpq8HJ/n/+sObkrx6/qNe+zyFEAAAAGByj0jylqr6QZLT09WjujzJxiS7J3lkksdm86Sh85IcNV1HrbVLq+oPkhzft/9wVX0wyWl9fwcmeVY2B2GvbK2dtQzvafAEWAAAAADz9wv9NpuPJ3l2a+2imRq01t5TVdsneXO6oOpp/TZqY5LXttZet4jxrmkCLAAAAIDJvTTJR5I8OMkvJ7lTuqcNbpPkqiTnJjkjyftmWDZ4C621/1tVpyd5fpLHJNkj3Yysi5J8Isnftta+urRvY22p1tpqjwFWzA03xTc8ABP773OvXO0hALAGHbDXLguorDQs37rwunXzb6f73XWHNf/ntR4o4g4AAADAoAmwAAAAABg0ARYAAAAAgybAAgAAAGDQPIUQAAAAmKKUNWdgzMACAAAAYNAEWAAAAAAMmgALAAAAgEFTAwsAAACYQgkshsYMLAAAAAAGTYAFAAAAwKAJsAAAAAAYNAEWAAAAAIOmiDsAAAAwlSruDIwZWAAAAAAMmgALAAAAgEETYAEAAAAwaAIsAAAAAAZNEXcAAABgilLFnYExAwsAAACAQRNgAQAAADBoAiwAAAAABk0NLAAAAGCKUgKLgRFgsa5seyuVCGFcVW2T5BVJjm2tbVjt8cCQHLDXLqs9BBgkPzsAWGnVWlvtMQCwiqrqtkmuSrJza+3q1R4PAMPnZwds+c6+5Pp1Exbc+87bm+iwBqiBBQAAAMCgCbAAAAAAGDQ1sAAAAIAprKljaMzAAmBDklf3XwFgEn52ALCiFHEHAAAApvjuOirivrci7muCGVgAAAAADJoaWAAAAMBU5iQxMGZgAQAAADBoAiyAdayqjqyq1m9HrvZ4xlXVq0bGd9BqjwdgJVTVuf3/986d4fqc/++eq4/VNjL+T6/2WCax1sYLsCWyhBBgBVXVvkmemeTXkvxCkp2TbExyZZJzk3wryZeSnN5a+8GqDBKAeauqhRY73rW1duVSjmU1VNWr+t1zW2vHr+JQANhCCbAAVkBV7ZDkb5IcMc3lWye5c78dkOR3+9c8trV26ooNEgAW7pX9188kOX4VxwHAFkqABbDMqupWSU5N8tD+1E1JPprks0kuStKS3CHJ/ZP8RpJ9+nZbL/fY+t+SH7/c9wFYZw6bR9vrlmMArbU9l6PfpdJaUx4aBq5UcWdgBFgAy+8F2RxenZvksa2178zUuKp+Mclz0i0rBGCNaa2duNpjAIAtjQALYPk9Y2T/BbOFV0nSWvtekpcv75AAAADWDk8hBFh+9xnZ/8xiOxt/slRVbVtVL66qM6rqsqr6WVV9v6re0c/mmq2vSZ5kNeXJS1W1S1W9vKo+X1WXVtXN409lqqqdqurwqnpnVX2pqq6oqp9X1ZVV9e2qeldV7b/YzwKA6U3wJMNbPOW1qh5RVf9UVedV1Q1V9eOqOqWqnjTLfdpYAfuHjfQ7uh053esmeapfVe1ZVa+pqv/qx3RjVV1TVd+squOr6rer6jYzvHa/qvrj/n2cU1XXV9WGqrq4qv69//m541xjAGD1mYEFsPxG/1+7W7plhEuiqu6Wrp7WL49d+oV0SxePqqrnt9bes0T32y/JiUnuPkub2yS5NMm201zeud/2SfKcqnpnkt9vrd20FOMDYGGq6k1JXjJ2+k5JHpvksVV1YpLDW2sbVnBMWyd5TZKXpnvgyahbJ7lfvz0rydFJ3jL2+j9L8uoZut/08JRHJTmmqg5rrX1xyQYPW4BSAouBEWABLL/vpyvQnnR/wT56ifq9dZJ/Thde/XeS9yU5P11I9tvpCsJvm+TdVXVla+2kRd7v9klOSrJHktOSfCTJj9P9A+BOI+226u/74ySfSPK1dMXqf5Zk1yQPSvKUfv95Sa5OcswixwbAwv1BkicmuSrJu5N8Jd2DRA5MFw5tk+QJSd6fZHw21qaC9R/uv34ryZ9Oc48z5zOgqqokH0jy5P5US/dAlNPS/UzZJsleSQ5K8uvJtNWmt0+yMckXk/xnku+mqy+5dZI9kzwu3XvcPcmpVbVva+1H8xknACtHgAWw/N6f5Nh+/8VVtXeS45J8qrV2xSL63b3f3pbk6NbaxpFrb62qY5K8Pl2g9LdV9anW2tWLuN8vpfuHwBGttffN0u7n6X5j//HW2s3TXP+7qvqTdAHYQ5K8pKre3lo7bxFjA2Dhnpjke0ke0Vq7YOT8CVX11iSfTHLHJE+sqsNbax/c1GBTwfraPFXjJ0tUxP4Pszm8+nGSJ7TWPj9dw6q6Z7pfioz7lyR/3Vq7aIZ7/EVVHZHkPUlul+SV6R6iAsAAqYEFsPz+T5L/Gjk+OMmHklxeVT+sqg9V1R9V1f5V856s/eUkLx4Lr5IkrbU3ZPNvxO+U5Mh5j/yW3jZHeJXW2sbW2qkzhFeb2lye5Jn94dZJjliCsQEMwgw1oKbbjl/tsfZuTvKUsfAqSdJa+2amhjrLPmO2qnZI8sf94cbMEl4lSWvtnNbaLWZ4tda+NEt4tanNP6T7RVOS/E5VjS9VBGAgBFgAy6y1dkOSRyZ5Y5Lrxy7fM91yjDck+UKSc/qCspP+BfqNswVFfb+b/PaEfc7mr5egjyRJa+37SS7pDw9Yqn4BmLd/b63990wXW2snJzm7P9yvqu61zOM5ON2y9SQ5abbwaol8rv+6fZIHLPO9AFggSwgBVkAfYv1RVb0uXR2RR6ULbe451vQe6WZs/U5VHdLPVJrN6XNc/0KSa5LslORXqmqrOQKv2VzUWvvhpI2ravckz0gX3t033fKO7WdofrcFjglgiA6bu0mSrm7hEMz1s2RTm3v3+/snmfjnwQI8dGR/UfUb+5nNB6f7Jc6vpKvjuFNm/nfQ3dLVAIN1Tw13hkaABbCCWms/TfL3/Zaq2lTU/OFJnp7NT/d7cLolDY+epbufzhVwtdZaVf0gyb7pwqNdkiy07tYtlpbMpKqel+TNmTmwGnfbBY0IYICWqAbUSvrePNvsvlwD6Y3+UuPbC+2kqu6cbsn+gfN4mZ9HAAMlwAJYRX2gdVqS06rqlelmX72wv/ybVXVga+0/Z3j5dRPeZrTdTll4gPWzSRpV1ZOT/M3IqTOSfCbJOemecDX6CPa/TVcYeOsFjgmAxZvk58n4z5LlNBoiXbuQDqrqVkk+lu5JvUny03QPD/lGuuXrP0tXXytJHpHuSYyJn0cAgyXAAhiI1trPq+rF6R4Jft/+9KPSPfp7OjtM2PVou2sWNrp5eV3/dWOSw1prH5mpYVW9awXGA8DsJvl5spI/S0afmLvjAvt4ajaHV59I9/No2nFX1V0XeA8AVpAi7gAD0lq7KcmnR07dZZbmu1bV7Wbrr6/9sanY7vVJrlzM+ObSP8p8r/7wxDnCq9ume2w5AKtrr7mbTGkz65P9lsDokvX7zthqdr85sn/0TOFVb7weJQADJMACGJ6fj+zPtXTiUXNc3z+bl2J8eREF3Cd155H978/R9tHxcwhgCOb6WZIk/2Nk/wvTXG/916Wo+/wfI/uPX2Af8/l59JgF3gO2bLWONtYE/3AAWGZVtds82t463dOSNvnGHC95ST/LaiYvG9n/0KTjWITRGikz/ka/qm6T5E+XfzgATOBRVfWAmS5W1SFJ7tMfntlaO2eaZpt+4TLp8vbZnJrkJ/3+46vqgAX0MenPo6cmud8C+gdghQmwAJbfl6vq+Kp6yGyNqmrHdE8n3Ls/dVWSk+foe/8kf1VVt/j/eVW9JN1jw5Pk0iTvmdeoF+asbP5HzKHTveeq2i7JPySZ8R9LAKyorZP8U1Xd4umCVXXfJMeNnHrDDH1sCrXu0/9/fsFaa9cnee3I2E6cLcSqqntU1X5jp780sv/aqrpFcfaqeni6h4kAsAYo4g6w/G6d5FlJnlVV56V7It9/pwuVNiS5fZL9kjwx3RP5km4pxotaa7M9MfCiJOcneXGS36iq9yX5UZI7pQuuHjbS13Nba1dP28sSaq3dWFXvSHJMuvf9mao6PskX0/02/L7pPos90hXVvXemPi4dYM2rqifMo/kXWmsXL9dYJvQvSZ6U5FtVdVySM9MFR7+W5Mgk2/bt/rW19o8z9HF6ul9M7JDkI1V1QpLLsnlp4TdaaxfOY0xvSXJgup9nuyX5r6r6t3RP7r04yW3S1Xh8WL+9LMlXR15/XJJXpHti4qFJvtaP6bwku6Zbxv74JDen+6XKEfMYGwCrQIAFsPy+lq6+SCW5R5Jn9ttMLknyB621uZb8/TzdX+xPSReAjf/2OekCsue31k6a76AX4X+n+0fMY9KFWL/Xb6M+k+4JUV9ZwXEBrJQPz6PtYUlOXKZxTOptSc5N8tJ+m85JSZ4+Sx9v6q/vluSR/TbqqCTHTzqg1lqrqsPTzfh6cbpA7ZB+m86UGo+ttUv75YEfSrJ9umWCrx97zfVJnt/3LcCCMaU4FANjCSHAMmutPTrdLKOjkvxdks8n+XG6cOmmdE8G/FaSDyR5RpK9JgivNvV9YZIDkhzd93t53+8Pk/xNkvu31o5fsjcz2ZhuTPcPjN9NV4j3qiQ3JrkwycfSzcB6RGvt8pUcFwAza629LF2h9n9ON5v3xnQzqD6W5MmttSe01m6Y5fUXJXlgkjcn+XqSa7J59tVCx7SxtfbSdLN3/zLdzLArkmzs+/9mknenm0n1jmlef2qSX063TPCc/j1dleTb/Tj3ba29dzFjBGDlVGuL+rkCwAqrqnPTzeQ6r7W25+qOBoC1qKpeleSV/eHDW2ufXr3RAEP0w8tuWDdhwb3uuK3pZmuAGVgAAAAADJoACwAAAIBBU8QdAAAAmKIsqmNgzMACAAAAYNAEWAAAAAAMmqcQAgAAAFOc85P18xTCe97BUwjXAjWwAAAAgCkkOgyNJYQAAAAADJoACwAAAIBBE2ABAAAAMGgCLABgSVXV8VXV+m3Paa4fNHL9VSs/wuGoqiNHPosjF9HPin2mVbXnyL2OX857zVdVnduP69zVHgsAsLQUcQeAFVBVsz3J57okVyT5epJTk7y3tXb1igxsCzYS5JzbWjt+FYcCAGuPKu4MjBlYALD6dkiyR5JDkrwtyXer6tGrO6Qtwiv77chVHgcAAItkBhYArLzDxo53SrJvkmcmuUOS3ZKcVFUHtdY+v8JjW3attU/H73UBAJgHARYArLDW2onTnH5vVb0uyceSPCjJNkn+KslDVnBoAAAwSAIsABiI1trlVfWsJN/qTx1QVXu01n60muMCANafMlmagVEDCwAGpLX27STfHzn1gE070z2xrqoeWFV/U1XfraprZnqaXVXtXFUvrarTq+qiqtpQVVdU1Veq6tiquusk46uq7arqmKr6UlVd1d/z21X1hqraY8I+5vXEvKo6sKreUVXf6Mf88/7rF6rqr6rq18fat7Gi+Q8bud/oduQM99u6qp5eVf/cP9Xuuqq6tqrOrqp3VdWDJnmffV+HV9XHq+rSqrqhqs6pqhOq6sGT9rGUqmq/qvrjqjqlH8v1/ffCxVX171X14qracQH93rX/PvpmVV3db1+tqj+rqtvOo599q+otVfW1/s94Q//9ekpVPbuq/PIVANYpfwkAgOG5NMle/f7OMzWqqmOSvC7J1rN1VlVPTvI3SW43duk2SXZN8sAkR1fV81tr75mln3sl+fjI2DbZp99+t7/Xkqiq2yV5T5LHTXN51yT799vRVbVva+1rS3DPX0ryz0nuM83lvfvtOVX1tiRHt9Y2ztDPdn0/h4xd2rPfnlZV/yvJTxY75klV1Z8lefUMl+/cb49KckxVHdZa++KE/R6U5ENJbj92ad9+e15VPa619tVZ+tgmyTuSHJVb1ke7S789NslLqurQ1toPJxkbALDlEGABwPDcaWT/qhnaPCXJwUmuTXJCki8m+XmS+ya5ZFOjqvq9JO9MFwrcmOSkJP+R5MdJdkzy60melmTbJMdX1Y2ttQ+M36yqdknyyST36E9dkOTdSb6Trgj9Y5M8IV2QsRRB0u2SnJEuMEqS65P8U3/up/09fynJY9KFZ6Ohx6Yi+R/uv34ryZ9Oc5szx+65X5LP9H0nyWeTnJLkvHSz1h+Q7omGuyX5/XQB4PNmeAsfyObw6mfpPqsv9McHpAtq/nJkjCth+yQb032v/GeS7ya5Ml0Aume6oPDAJLsnObUPBedavnr3JP+SLhz9aL9dmeQXkzwrXdi5e5LTq+qBrbXzxjvoZ1V9LMlB/amLknwwydfT/bnfLckT032v3i/Jf1TVfq21y+b5/gGANaxaa3O3AgAWZXRJW2ttxqISVXWfdKHQJvdorZ3fXzsyyd+PXPtukkdtuj5NXw9I8qV0Qcv3khzaWjtrmnb7JDk9XdBwTZI9W2tXjLV5Z5Ln9oefTXJIa+2asTa/nS54GJ0Rds/W2rlj7Q5K8qn+8NWttVdNM6aTk/xWf/j5JE9srV08w/v8tSQ/bK1dMnZ+02f+mdbaQdO9dqTt9km+keRe6UKTw1trH5mm3c7pQqeH96ce1Vo7fazN7yR5f394SZKHj3/u/Wf+qXRh2CZHtdaOn22cs4z/oMz9mf5qkgtbaxfN0s8R6Wa9bZXkuNbac6Zps2eSc0ZObUzyjPHgs6q2Tfc5bAoUP95ae8w0/R2b5H/1h+9K8qLW2g3TtHtRkrf0h+9rrR0xTZtz04Ws57XW9pzpfQIwt/Mu37BuwoJ73H4bBb/WADWwAGAgqmrXJMePnPrCTOFUkpYuZJnpepK8Kl14dUOSx04XXiVJa+076WYWJd3so98bG9cdR65fk+Qp4+FV38+H0j05cVH6+lCbwqsL+rFPG1719/2v8fBqAZ6TLrxKkudNF17197oqyZOTXN2feuk0zf5otN/pPvf+M//dhQ93/lprX5otvOrb/EM2h2+/U1W3nqDrt0w3a68PoZ6RZNMsrkf3oer/U1V3SnJ0f3h6a+2504VXfX9/PTK2w2vCum0ALEzV+tlYGwRYALDCquoJY9sRVfWXSc5Ksqm4941J/nCWbj43R02hXZI8vj/8cGvt+zO1TZLW2mlJNoVEjx67fEi6ICxJ3j9HWPTmJDfPdq8JPGNk/w2ttZ8usr9JPKv/emE2hyTTaq1dnm5pYZIc1NdvSvL/Zift1x+e3Vo7JTPor31npuur6HP91+0z8hCBGdyc5E0zXWytXZeuttUmvz3W5Knplq8m3ZLKuWyq0bZ1kkdO0B4A2EKogQUAK2+uukeXJTmytXbGLG0+O0cfB2bzL6o2VNUTJhjXNemKZd937Pz+I/ufmK2D1trFVfXtdPWpFuqhI/snLaKfifRPydu3P7w4yaE1969jN4VW2ya5Z7rwMZnHZzXSZp+JBroEqntjB6cLkn4lyR7pZt3N9HfCuyX5yixdfnuuWV3plqce2+/vP3btN0b2d5vg+3R01tX49ykAsAUTYAHA6vtZksvT1WA6Ncl7W2tXzvGaC+a4vufI/pHZvARwEuNPK9x9ZH/WmVwjbRYTYN2t/3rdHEskl8oe2Rz2PSjzL6w++nkt5LNaEVV153RF9g+cx8tuO8f1703Qx2ib3ceu7Tmyf8IkAxox/n0KAGzBBFgAsMJmK+I+Dz+b4/oui+h7vO7RjiP710/w+usWce9kc2hy7SL7mdQui3z9bUb2V/qzmsjIk/5+uT/10yQfSReaXpLu+2ljf+0RSf6g3x8tyD+dScY/2mansWu7TPD6mdxm7iYAwJZCgAUAW6bR8OdFrbW3LlFf20/QfodF3CvpCqTfLlPDoOU0+v7+tbX2pCXqayU+q0k9NZvDq08kOWy6QvxJMs/i6JOMf7TN+D1HP6/bzjQmAFae2uYMjSLuALBlGl1iuMci+7pwZH+vCdpP0mY2m8a+Q1XdfZF9TWL0/a21z2pSvzmyf/QcQdE959HvfN/jeL2spfw+BQC2YAIsANgyfTZJ6/cfs8i+vjiy/4jZGlbVXbL4ouT/MbL/+BlbzW3T+5/1l8ittZ8k+VZ/+MCq2m0R95z4s+qt1JP07jyyP1fdrfl8v9yvqsbrWo37HyP7Xxi79pmR/YPncV8AYJ0RYAHAFqi1dmm6gvBJcv+q+p1FdPdvSW7s9582R8BzdOaumzSX947sH1NVuy6wn03L0yZZ5vae/uvWSf58gfdLa+28JGf2h/epqhlDmf7aSj2BcLQO1YyzpqrqqUnuN49+t0ryh7P0t32SF46c+tBYkw8m2dDvv6Sq7jCPewMA64gACwC2XH+SzcHT380VYlXV7arqJVU1OmMmrbXLkhzfH942yQer6hb1qarqsCQvWeygW2tfTHJSf3i3JP/Wz+yaadwH9E/YG3dO//U+VbXdHLd9e5Jz+/3nVtXrq2q8mP3oPW9TVU+pqv85zeU3juwfV1V7T/P6vZMcN8eYltKXRvZfW1W3CBmr6uFJ/nYBff9hVT1lmv62SRcMbloG+rHW2jdG27TWLkjy1/3h7kk+XlX3mu1mVfXLVfXOBYwTgHmoWj8ba4Mi7gCwhWqt/XdVPS9dULJ9kvdX1THpnj73vXRPnts53Yyc/ZP8Rrq/Gzxjmu5enm5p2d2THJTk21V1XJKz0j1Z7uAkT0z3dLuv9W0W49lJPp/kF5MckOT7VfWPSc7o77FTutlLj0ly/yT7pXua3qjTkzwg3Qysj1TVCUkuy+alhd9orV2YJK2166vq0HTLF3dJckySI6rqQ/37uTrdZ7hHkgemWxZ320wTQrXWPlBVhyc5NMldkny1qt6dzcvnDkhyVN/fh5MctqBPaH6OS/KKdJ/boUm+1n8e5yXZNcmj0y3XvDnJPyQ5YsJ+P53uM/7Hqnp6klOSXJnue+rIdH9+SXJFkufP0Mcfpysw/5vpPtuzqurkdMtgL073C9c7JPmlJA9Psne6JyY+b8IxAgBbAAEWAGzBWmvHV9XFSd6dbobLvv02kw1JfjJNP1dW1SOSfCxdOLFHkleNNbsiyZOTPHMJxn1FVT0kyfvShSvbpwt9jprhJTdPc+5NSZ6eZLd0tabG600dlc0zy9Ja+0ZVPai/54PTfV4vmm2YmVq0fdTh6ZbLPbYf++/32yYbk7wsyeVZgQCrtXZpvzzwQ/147pfk9WPNrk8XMm2dyQOs89J9H/xLumDs0GnaXJzkcf3yyunGdlNVPS7JsUlenOTWSZ7UbzO5YJZrAMAWyBJCANjCtdY+nuRe6WY1fSjd0rprk9yUbjbTV9MFOc9McufW2sdm6OcH6WbbvDxdnadr0tVWOivdsrl9W2ufXMJxX95ae0y64OndSb7b3/OmdMHPF9KFVA9urX19mtdflG5Gz5uTfL1/bRtvN/aaH7TWDkgXmv1dkm+nm1G0sX/9WUn+NV3Q8guttVfO0M/PWmuHJHlauplgl6cLB89LN8PpwNbamyb9LJZCa+3UdDOd/jbd98CNSa5K9x7fnO7P770z9zBjv5/p+31939e1/fb1dOHWPq21M2fsoOvj5621l6ULR/883eyrS/ox3pAuKPxUkr9INwtr1mWGAMCWp1qb9e9xAAAAwDpzwU83rJuw4G67bqMS1hpgCSEAAAAwRqbDsFhCCAAAAMCgCbAAAAAAGDQBFgAAAACDpgYWAAAAMEUpgcXAmIEFAAAAwKAJsAAAAAAYNAEWAAAAAIMmwAIAAABg0BRxBwAAAKZQw52hMQMLAAAAgEETYAEAAAAwaAIsAAAAAAZNDSwAAABgilIEi4ExAwsAAACAQRNgAQAAADBoAiwAAAAABk2ABQAAAMCgKeIOAAAATFFRxZ1hMQMLAAAAgEETYAEAAAAwaAIsAAAAAAZNgAUAAADAoCniDgAAAEylhjsDYwYWAAAAAIMmwAIAAABg0ARYAAAAAAyaGlgAAADAFEpgMTRmYAEAAAAwaAIsAAAAAAZNgAUAAAAwD1W1U1U9qareVlX/VVWXVdXPq+rqqjqrqk6oqsdU1ayrMavqyKpq89hetUJvcXDUwAIAAACYUFW9JMlrk2w7zeWdkty7356R5LNVdURr7fwVHOIWSYAFAAAATDH7vKF1b+9sDq8uTHJ6kq8kubQ/f0CSI5LsmOShST5dVQe01i6do9+3JvnkHG3OWuig1zoBFgAAAMDkWpJ/T/LGJJ9ord08dv09VfUXST6ebibWPZP8RZJnz9Hvma21E5d4rFsMNbAAAAAAJvcnrbVHt9ZOmya8SpK01s5L8tSRU0+tqu1XZnhbJgEWAAAAwIRaa1dM2O5rSc7uD7dPsteyDWodsIQQAAAAmKKiCNYSuXpkf7tVG8UWwAwsAAAAgCVWVbdJV/B9k/PmeMkLq+o7VXVtVV1fVedX1clV9QLLDwVYAAAAAMvhaUl27vfPbK1dMkf7X01ynyQ7pJuttUeS30ryjiTnVtXjlmuga4ElhAAAAABLqKrumOT1I6deM0vzjUnOSPLZJN9Ncm2SXZL8SpKnJLldkjsmObmqnt5a+8ByjHnoqrW22mMAAAAABuSya25aN2HBnW57622TbDN2ekNrbcNC+uuXDp6e5KH9qRNba4fN0HavJDe01i6Y4fpOSd6VzU80vCHJvVtr5y9kbGuZJYQAAADAVLWOtuQVSa4a216xoI+taqsk787m8OoHSZ49U/vW2vdnCq/669ckeXqST/entk3y8oWMba0zAwsAAACY4rJr19EMrJ2WZgZWVVWSdyb5vf7U+Uke1lo7d7FjrKoDk3xuU7+ttXssts+1RoAFAAAATLGeAqw77nirWmwffXj1jiTP709dkOSg1toPFtt33/9WSa5LNwMrSXZorV2/FH2vFZYQAgAAACxQH169PZvDqwuTPHypwqskaa3dnOSKkVO7LFXfa4WnEAIAAABTLHpK0joxEl69oD91Ubrw6vtLfJ+tkuw6curKpex/LTADCwAAAGCepgmvLk4XXn1vGW53QJLt+v0L1tvywUSABQAAALAQb8vm8OqSdOHVd5f6Jv3sqz8fOfXRpb7HWiDAAgAAAJiHqnprkhf2h5ekK9h+9jz7eEhVPbeqtp2lzQ5JTkjyyP7UhiSvX8CQ1zw1sAAAAAAmVFWvSfL7/WFL8pYk+1TVPnO89MzW2vkjx7sleWeSN1XVaUm+kuRH6Z42uHOSByY5PMntR+71nNbauUvxPtYaARYAAAAwRaniPptfH9mvJMdO+Lqjkhw/zfkdkxzWbzO5JF14dcqE99riCLAAAAAAVt7pSR6f5MFJ9k+yR7rZVrskuT7JpUnOTHJKkn9qrd2wOsMchmqtrfYYAAAAgAG5/Lqb1k1YcPsdbmW+2RqgiDsAAAAAgybAAgAAAGDQ1MACAAAApqhYVcewmIEFAAAAwKAJsAAAAAAYNAEWAAAAAIOmBhYAAAAwRSmBxcCYgQUAAADAoAmwAAAAABg0ARYAAAAAgybAAgAAAGDQBFgAAAAADJoACwAAAIBBE2ABAAAAMGgCLAAAAAAG7VarPQAAAABgWKpWewQwlRlYAAAAAAyaAAsAAACAQRNgAQAAADBoAiwAAAAABk0RdwAAAGCKiiruDIsZWAAAAAAMmgALAAAAgEETYAEAAAAwaGpgAQAAAFOUElgMjBlYAAAAAAyaAAsAAACAQRNgAQAAADBoAiwAAAAABk0RdwAAAGAKNdwZGjOwAAAAABg0ARYAAAAAgybAAgAAAGDQBFgAAAAADJoi7gAAAMBUqrgzMGZgAQAAADBoAiwAAAAABk2ABQAAAMCgqYEFAAAATFGKYDEwZmABAAAAMGgCLAAAAAAGTYAFAAAAwKAJsAAAAAAYNEXcAQAAgClKDXcGxgwsAAAAAAZNgAUAAADAoAmwAAAAABg0NbAAAACAKZTAYmjMwAIAAABg0ARYAAAAAAyaAAsAAACAQRNgAQAAADBoirgDAAAAU6nizsCYgQUAAADAoAmwAAAAABg0ARYAAAAAg6YGFgAAADBFKYLFwJiBBQAAAMCgCbAAAAAAGDQBFgAAAACDJsACAAAAYNAUcQcAAACmKDXcGRgzsAAAAAAYNAEWAAAAAIMmwAIAAABg0Kq1ttpjAAAAAIAZmYEFAAAAwKAJsAAAAAAYNAEWAAAAAIMmwAIAAABg0ARYAAAAAAyaAAsAAACAQRNgAQAAADBoAiwAAAAABk2ABQAAAMCgCbAAAAAAGDQBFgAAAACDJsACAAAAYNAEWAAAAAAMmgALAAAAgEH7/wEqUSshX0igdgAAAABJRU5ErkJggg==;" parent="1" vertex="1">
                    <mxGeometry x="100" y="160" width="1200" height="1200" as="geometry"/>
                </mxCell>
                <mxCell id="4" value="" style="shape=image;verticalLabelPosition=bottom;labelBackgroundColor=#ffffff;verticalAlign=top;aspect=fixed;imageAspect=0;image=data:image/png,iVBORw0KGgoAAAANSUhEUgAABLAAAASwCAYAAADrIbPPAAAAOXRFWHRTb2Z0d2FyZQBNYXRwbG90bGliIHZlcnNpb24zLjMuNCwgaHR0cHM6Ly9tYXRwbG90bGliLm9yZy8QVMy6AAAACXBIWXMAAA9hAAAPYQGoP6dpAACgAElEQVR4nOzdd5hdVd024GclBEiooQih9xKK9CrFhoqFoiIKCAoKFkSxIq+o2F8Ldl/FT0GxoKIUpUlVegcpUpTeSxISIIEk6/vjnCQzYWYyk5lhdpL7vq5znbXPXnvtNcmQkGfW+u1Saw0AAAAANNWwoZ4AAAAAAPREgAUAAABAowmwAAAAAGg0ARYAAAAAjSbAAgAAAKDRBFgAAAAANJoACwAAAIBGE2ABAAAA0GgCLAAAAAAaTYAFAAAAQKMJsAAAAABoNAEWAAAAAI0mwAIAAACg0QRYAAAAADTaQkM9AQAAAKBZRm7+4TrUc3ipPHf9D8tQz4E5swILAAAAgEYTYAEAAADQaAIsAAAAABpNgAUAAABAoyniDgAAAHRWrHehWXxHAgAAANBoAiwAAAAAGk2ABQAAAECjCbAAAAAAaDRF3AEAAIDOShnqGUAnVmABAAAA0GgCLAAAAAAaTYAFAAAAQKOpgQUAAAB0Vqx3oVl8RwIAAADQaAIsAAAAABpNgAUAAABAowmwAAAAAGg0RdwBAACAzkoZ6hlAJ1ZgAQAAANBoAiwAAAAAGk2ABQAAAECjqYEFAAAAdFasd6FZfEcCAAAA0GgCLAAAAAAaTYAFAAAAQKMJsAAAAABoNEXcAQAAgM5KGeoZQCdWYAEAAADQaAIsAAAAABpNgAUAAABAo6mBBQAAAHRWrHehWXxHAgAAANBoAiwAAAAAGk2ABQAAAECjCbAAAAAAaDRF3AEAAIDOShnqGUAnVmABAAAA0GgCLAAAAAAaTYAFAAAAQKMJsAAAAABoNEXcAQAAgM6K9S40i+9IAAAAABpNgAUAAABAowmwAAAAAGg0NbAAAACAzkoZ6hlAJ1ZgAQAAANBoAiwAAAAAGk2ABQAAAECjCbAAAAAAaDRF3AEAAIDOivUuNIvvSAAAAAAaTYAFAAAAQKMJsAAAAABoNDWwAAAAgM5KGeoZQCdWYAEAAADQaAIsAAAAABpNgAUAAABAowmwAAAAAGg0RdwBAACAzor1LjSL70gAAAAAGk2ABQAAAECjCbAAAAAAaDQ1sAAAAIDO1MCiYXxHAgAAANBoAiwAAAAAGk2ABQAAAECjCbAAAAAAaDRF3AEAAIDOhpWhngF0YgUWAAAAAI0mwAIAAACg0QRYAAAAADSaAAsAAACARlPEHQAAAOisWO9Cs/iOBAAAAKDRBFgAAAAANJoACwAAAIBGUwMLAAAA6KyUoZ4BdGIFFgAAAACNJsACAAAAoNEEWAAAAAA0mgALAAAAgEZTxB0AAADorFjvQrP4jgQAAACg0QRYAAAAADSaAAsAAACARlMDCwAAAOislKGeAXRiBRYAAAAAjSbAAgAAAKDRBFgAAAAANJoACwAAAIBGU8QdAAAA6KxY70Kz+I4EAAAAoNEEWAAAAAA0mgALAAAAgEZTAwsAAADorJShngF0YgUWAAAAAI0mwAIAAACg0QRYAAAAADSaAAsAAACARlPEHQAAAOisWO9Cs/iOBAAAAKDRBFgAAAAANJoACwAAAIBGE2ABAAAA0GiKuAMAAACdlTLUM4BOrMACAAAAoNEEWAAAAAA0mgALAAAAgEZTAwsAAADorFjvQrP4jgQAAACg0QRYAAAAADSaAAsAAACARhNgAQAAANBoirgDAAAAnZUy1DOATqzAAgAAAKDRBFgAAAAANJoACwAAAIBGUwMLAAAA6KxY70Kz+I4EAAAAoNEEWAAAAAA0mgALAAAAgEYTYAEAAADQaIq4AwAAAJ0p4k7D+I4EAAAAoNEEWAAAAAA0mgALAAAAgEZTAwsAAADorJShngF0YgUWAAAAAI0mwAIAAACg0QRYAAAAADSaAAsAAACARlPEHQAAAOisWO9Cs/iOBAAAAKDRBFgAAAAANJoACwAAAIBGE2ABAAAA0GiKuAMAAACdlTLUM4BOrMACAAAAoNEEWAAAAAA0mgALAAAAgEZTAwsAAADorFjvQrP4jgQAAACg0QRYAAAAADSaAAsAAACARhNgAQAAANBoirgDAAAAnZUy1DOATqzAAgAAAKDRBFgAAAAANJoACwAAAIBGUwMLAAAA6KSogUXDWIEFAAAAQKMJsAAAAABoNAEWAAAAAI0mwAIAAACg0RRxBwAAADpRxL1npZThSTZMslWSLdvvL08yst3lxFrrQb0YpyTZNslrkmyfZKMkKyQpSZ5KclOSs9rjje/D/BZJ8t4kb2/Pc5kkjye5Mcnvkvy21jq9t+M1gQALAAAAoG/+kGTv/gxQSlkvyflJVummy5j263VJPldKObTWekovxt0gySlJxs52auX2a/ckh5ZS3lZrfXRu5/9SE2ABAAAA9M3w2Y6fSvJkknX7MMYymRVeTUlyYZJLk9zXPl4nyX5praBaNskfSinvrLX+obsBSyljkpyTZLX2RzclOTHJQ0nWSnJw+/0VSf5WStml1vpMH+Y8ZARYAAAAAH1zVZLbklyb5Npa692llIOS/LKP49yf5JtJTqq1jpv9ZCnlG0m+m+RDadUx/0kp5dwethN+J7PCq98nOaDWOrXDeN9P8tcku6S19fEzST7XxzkPCQEWAAAA0JkSWD2qtX51AIb5V5J1aq3P93CfqaWUw9Oqj7VFWqu29kxywux9Syljk7yjffhwkvd1DK/a400qpeyX5K4kiyY5spTy7b7U1xoqnkIIAAAA8BKrtT7TU3jVoV9N8scOH23aTdd3ZFb0+LNa66RuxnswrRpeSTIqyR69m/HQEmABAAAANNvTHdoju+nzhg7tM+cwXsfzb+i2V4MIsAAAAACabZMO7XtnP1lKKUk2ah9OS3L9HMa7upuxG0uABQAAANBQpZTRmVXbKkn+1kW3VdPaDpgkD9RaX5jDsPenFXQlybrtAKzRFHEHAAAAOpkH8owBU0pZJMkis308pdY6ZSjm04VvJxndbp9ea/1XF32W7tB+Yk4D1lpfKKU83R53RJLFknRZM6sprMACAAAAFmRHJZkw2+uoIZ1RWynlsCTvaR+OT3JEN10X79Ce3Mvhn+vQXqJvM3vpWYEFAAAALMi+luQ7s3025KuvSilvTPKD9uH0JO+ptd4zdDMaWgIsAAAAYIHV3io45IFVR6WU1yT5U1q5TU3y/lrrqT1c0nH736K9vE3HpxlO7NMEh4AthAAAAAANUUp5VZLT0wqiapIP1Fr/3xwuG9+hvVwv7rFQkiXbhy8keabvM31pWYEFAAAAdLIgFXFvknZ4dUZmrY76UK31p7249P4kz6b1JMJVSikj5vAkwtWSDG+376y11rmd80vFCiwAAACAIdYhvBrV/ujwWutPenNtO4C6pX04PMnmc7hk6w7tm/syz6EiwAIAAAAYQl2EV0fUWn/Yx2HO7tB+wxz67t6hfWYf7zMkBFgAAAAAQ6SUsms6h1cfrbV+fy6GOrlD+9BSymLd3G/lJPu0D59Lctpc3OslJ8ACAAAAOimlLDCvIf513iXJ39I5vPre3IxVa70lyR/ah2OSHN8u1t7xfosn+U1mPanwO7XW8XNzv5eaIu4AAAAAfVBKWTPJwbN9vGmH9uallC/Pdv6CWusFHcbYLJ3Dq3OS3FtK2XMOt3+i1npJN+eOTLJDklWSvDPJRqWUE5I8lGStJIe035PkhiRfn8O9GkOABQAAANA3qyc5uofzm6ZzoJUkU5Nc0OF4syQdt/m9rv2ak4uT7NrViVrrg6WU1yU5JckG7Tl8p4uulyV5a611Ui/u1wi2EAIAAADMJ2qtt6b1FMIPpxV2PZrk+bRWYZ2d5N1Jdqq1PjJkk5wLpfWkRQAAAICWJff91QITFjz9+3cPbSEsesUWQgAAAKCToS5uDrOzhRAAAACARhNgAQAAANBoAiwAAAAAGk0NLAAAAKAzJbBoGCuwAAAAAGg0ARYAAAAAjWYLIQuUkZt/uA71HACYd4y7+odDPQUA5kGLLmQDHgw0K7AAAAAAaDQrsAAAAIBOSrGIjGaxAgsAAACARhNgAQAAANBoAiwAAAAAGk0NLAAAAKATNbBoGiuwAAAAAGg0ARYAAAAAjSbAAgAAAKDRBFgAAAAANJoi7gAAAEAnirjTNFZgAQAAANBoAiwAAAAAGk2ABQAAAECjCbAAAAAAaDRF3AEAAIBOFHGnaazAAgAAAKDRBFgAAAAANJoACwAAAIBGUwMLAAAA6EwJLBrGCiwAAAAAGk2ABQAAAECjCbAAAAAAaDQBFgAAAACNpog7AAAA0EkpqrjTLFZgAQAAANBoAiwAAAAAGk2ABQAAAECjqYEFAAAAdKIGFk1jBRYAAAAAjSbAAgAAAKDRBFgAAAAANJoACwAAAIBGU8QdAAAA6EQRd5rGCiwAAAAAGk2ABQAAAECjCbAAAAAAaDQ1sAAAAIDOlMCiYazAAgAAAKDRBFgAAAAANJoACwAAAIBGE2ABAAAA0GiKuAMAAACdlKKKO81iBRYAAAAAjSbAAgAAAKDRBFgAAAAANJoACwAAAIBGU8QdAAAA6EQRd5rGCiwAAAAAGk2ABQAAAECjCbAAAAAAaDQ1sAAAAIBO1MCiaazAAgAAAKDRBFgAAAAANJoACwAAAIBGE2ABAAAA0GiKuAMAAACdKOJO01iBBQAAAECjCbAAAAAAaDQBFgAAAACNpgYWAAAA0JkSWDSMFVgAAAAANJoACwAAAIBGE2ABAAAA0GgCLAAAAAAaTRF3AAAAoJNSVHGnWazAAgAAAKDRBFgAAAAANJoACwAAAIBGUwMLAAAA6EQNLJrGCiwAAAAAGk2ABQAAAECjCbAAAAAAaDQBFgAAAACNpog7AAAA0Iki7jSNFVgAAAAANJoACwAAAIBGE2ABAAAA0GgCLAAAAAAaTRF3AAAAoDM13GkYK7AAAAAAaDQBFgAAAACNJsACAAAAoNHUwAIAAAA6KUURLJrFCiwAAAAAGk2ABQAAAECjCbAAAAAAaDQBFgAAAACNpog7AAAA0Iki7jSNFVgAAAAANJoACwAAAIBGE2ABAAAA0GhqYAEAAACdqIFF01iBBQAAAECjCbAAAAAAaDQBFgAAAACNJsACAAAAoNEUcQcAAAA6UcSdprECCwAAAIBGE2ABAAAA0GgCLAAAAAAaTQ0sAAAAoDMlsGgYK7AAAAAAaDQBFgAAAACNJsACAAAAoNEEWAAAAAA0miLuAAAAQCelqOJOs1iBBQAAAECjCbAAAAAAaDQBFgAAAACNJsACAAAAoNEUcQcAAAA6UcSdprECCwAAAIBGE2ABAAAA0GgCLAAAAAAaTQ0sAAAAoBMlsGgaK7AAAAAAaDQBFgAAAACNJsACAAAAoNEEWAAAAAA0miLuAAAAQCdFFXcaxgosAAAAABpNgAUAAABAowmwAAAAAGg0NbAAAACATpTAommswAIAAACg0QRYAAAAADSaAAsAAACARhNgAQAAANBoirgDAAAAnRRV3GkYK7AAAAAAaDQBFgAAAACNJsACAAAAoNHUwAIAAAA6UQKLprECCwAAAIBGE2ABAAAA0GgCLAAAAAAaTYAFAAAAQKMp4g4AAAB0MmyYKu40ixVYAAAAADSaAAsAAACARhNgAQAAANBoAiwAAAAAGk0RdwAAAKCTooY7DWMFFgAAAACNJsACAAAAoNEEWAAAAAA0mhpYAAAAQCdFESwaxgosAAAAABpNgAUAAABAowmwAAAAAGg0ARYAAAAAjaaIOwAAANCJGu40jRVYAAAAADSaAAsAAACARhNgAQAAAPRBKWV4KWXjUspBpZQflFIuL6U8W0qp7dcJczHmOqWUb5ZSbi6lTCilTCql3F5K+VEpZbM+jrVIKeUDpZQLSikPl1KmlFIeKKX8rZSyfyllnsuD1MACAAAAOimKYM3JH5LsPVCDlVLen+S7SUbOdmq99uvQUsqxtdZjezHWBklOSTJ2tlMrt1+7t8d7W6310f7O/aUiwAIAAADom+GzHT+V5Mkk6/Z1oFLK/kl+2j6cnuT3Sc5PMjXJjkkOTLJIki+WUqbUWr/Rw1hjkpyTZLX2RzclOTHJQ0nWSnJw+/0VSf5WStml1vpMX+c8FARYAAAAAH1zVZLbklyb5Npa692llIOS/LIvg5RSlk/yo/bh9CR71VpP79DlV6WUX6YVaI1K8uVSyqm11tu7GfI7mRVe/T7JAbXWqR3u9/0kf02yS5Itk3wmyef6MuehMs/teQQAAAAYSrXWr9Zaj6q1/qnWenc/hvpEkiXb7R/NFl7NuNcVmRUyLZTk810NVEoZm+Qd7cOHk7yvY3jVHmtSkv2STG5/dGQpZel+zP8lI8ACAAAAGBrv6NA+rod+xyeZsdXvLaWU2WtlzRhrRvGyn7XDqheptT6YVg2vpLWqa4/eT3foCLAAAACATkopC8xrCH+NxyZZvX14W08ruWqtE5P8s324WFpbAGf3hg7tM+dw+47n39BtrwYRYAEAAAC89Dbp0L66F/079ul4bUoriduofTgtyfVzO1ZTCbAAAAAAXnrrd2j3po5Wxz7rz3Zu1bS2AybJA7XWF+Yw1v1pBV1Jsm4ZyqVoveQphAAAAMACq5SySJJFZvt4Sq11yiDfeukO7Sd60f/Jbq7t81i11hdKKU8nGZ1kRFrbErusmdUUVmABAAAAnZSy4LySHJVkwmyvo16CX+bFO7Qnd9trluc6tJfo51hzGq9xrMACAAAAFmRfS/Kd2T4b7NVX9JEACwAAAFhgtbcKDkVg1XHL3qK96D+yQ3tiP8ea03iNYwshAAAAwEtvfIf2cr3ov2w31/Z5rFLKQkmWbB++kOSZXtx/SAmwAAAAAF56t3dor9mL/h373D7bufuTPNtur1JKGTGHsVZLMrzdvrPWWntx/yFlCyEAAADQSWlXN2dQ/atDe+te9O/Y5+aOJ2qttZRyS7vP8CSbJ7lqbsZqKiuwAAAAAF5itdZbk9zXPtywlLJGd31LKYsn2al9+GySi7vodnaH9hvmcPvdO7TPnEPfRhBgAQAAAAyNkzu0j+yh3/uTLNZun15rfbaLPh3HOrSUslgXfVJKWTnJPu3D55Kc1su5DikBFgAAAMDQ+FZmPQHwQ6WUt8zeoZSybZIvtQ+nJvliVwPVWm9J8of24Zgkx7eLtXcca/Ekv8msJxV+p9Y6vj9fwEtFDSwAAACAPiilrJnk4Nk+3rRDe/NSypdnO39BrfWCjh/UWh8rpRye5IS0Fhn9pZTy+yR/TzItyY5JDsyswOnztdZ/9zC1I5PskGSVJO9MslEp5YQkDyVZK8kh7fckuSHJ13v8QhtEgAUAAAB0oob7HK2e5Ogezm+azoFW0lo9dcHsHWutJ5ZSRiX5TlpB1bvar46mJflKrfWrPU2q1vpgKeV1SU5JskF7Dt/poutlSd5aa53U03hNIsACAAAAGEK11p+UUs5LcliS1ydZNa0VWQ8lOT/Jz2qt1/dyrFtLKZuntULs7WkFWaOTPJHkpiS/TfKbWuv0Af9CBpEACwAAAKAPaq0XJRnQdWq11juTfLz96u9Yk5P8qP2aLyjiDgAAAECjWYEFAAAAdFIUwaJhrMACAAAAoNEEWAAAAAA0mgALAAAAgEYTYAEAAADQaIq4AwAAAJ2o4U7TCLCA+c6wYSUbrLlithi72szXJuuunFEjF06S/Pr0K/L+z580x3FWWn6p7LjFOtli7GrZfMNVM2b5pbLs0otnycUWzTOTp+T+h8flmlvuzR/OviYXXXVHj2P97Iv754C3bNfnr6W3c52TDddaMQfttUN23HztrLnKclli1KJ5bsrzeeSJp3P9bffnlHOvyxkX3dTv+wyEc44/IjtvtW6v+6+/+zG57+GnBuTe662xQt7/9ldkp63WzaorLpORi4zIY09NzI23P5A/nXNt/njOdam1Dsi9gHnTtGnT8t///ie33nxzbr31ltx6y8254/Z/Z/LkyUmSt+yxV7701a/PcZxaa/5104254vLLctONN+Q/d92VJ598IrXWLLXUUll3vfXzip12zpv32CtLLrnkgMx9KO7ZX6f95c855n+O6nX/wz744XzgQ4cPyL2ffeaZ/OXPf8o/Lr4od95xR55+ekIWX3zxrLTyKtn1la/KW9+2T5ZdbrkBuRcAcybAAuY7v/nfg7Pnqzfr9ziffO9uOWzfXbo8t/SIUVl6iVHZZL2V8569dsgFV/47Bx51Qp4YN6nf9+3o7gef6Nf1pZR85Yg98pH9X5XhwzvvGh8xYmSWXHxk1ltjhbzjDVvl6n/dk3d+4ud58LHx/brnvGjYsJIvfvjNOfLA12TYsM6/TquNWSarjVkmb9510xy6z87Z/9O/yMOPTxiimQJD7ZNHfjTnn3duv8a455678/6DD8qjjzzS5fnHH388jz/+eC679JL87P9+nM99/ti8ZrfXzXP3nJdddeUV+cwnP54nn+z89/C4ceMybty43HLzv3LSr07MMV/8Ul7z2t2GaJYACxYBFp2UUg5K8sv24XtqrScM3WxerJTyhSSfbx++stZ60dDNhqYaPqzzeucnxz+TpyY8k3VXf1mfx5ry/Au5/rb7c/1t9+eu+x7LE+Mm5YWp07Lc6MWzzSZrZu/XbJ5RIxfOq7bdIOccf0R23O9/M3nKCy8a58e/uyhnXDjnFU7Ljl4sPzlmvyTJtGnTc9LpV/Z5zh199aN75qPvfvXM47MvuSUXXXV7HnpsQpZderFstsGq2Xf3rbLIwiOy9SZr5KyffSTb7vu1PDf5xV/DUNjnYz+bY5/Hx03s932O+8w+ef/bd0qSTJ06LX8697pcdPUdmfTM5Kyx8rLZd/dtsvG6K2WHzdfOGT/+UF79nuMyYdJz/b4vMO+ZPn1ap+Olllo6Sy29dO67955ej/H0hAkzg6SFF144W2+zbTbbfIuMGbNSRiy8cO6/796c+dcz8t///ifjx4/PJz/+0Xz9m9/O616/+1zPeyjuOdDeud8B2Wbbnlczr7nmmv2+z3XXXpMPHnpIXnih9XfhBhuOzRt2f2PGrLRSJk2clCsuvzTn/f3cTJgwPp/+xMfyvR/+OK/YqesfeAEwcARYQ6yUslmSdyfZIcnaSZZKMi3J+CT3JLklydVJzqu1/mdIJgnzmKtvvjf/vvvRXH/bfbnu1vtz70NPZv83b5vjjz2gT+N876QLcvT3Tsuzk5/v8vzxf7wkX/rJ33Lm/x2etVdbPmPXHpMPvGPnHPer81/U94Z/P5Ab/v3AHO95+H6vnNm+4Mrbc/8j4/o0545WXXH0zPGmTp2WvT7yfznv8tte1O/rPz875/2/j2blFUZn3dVflvfstUN+/LuL+3y/1cYsk9vPPDZJ8r5jfp2Tzuhf+JbkJdnW+KptN5gZXk16dkr2+NCPctkN/+3U57hfnZ/vf3bfHPzWHbPROivli4e/OR/92h8GfW5A82y8yaZZc621M3bsRtlwo42yyiqr9nmbW5KsuOKYHPjeg/OmN70lSy611IvOv+fg9+V/v/7VnPy732T69On5yrFfzPY7vKJfW/te6nsefNABuebqq7LV1tvk/53w67me9wwbbjg2r3r1a/o9Tk9eeP75HH3Up2aGV/sfcGA+8emjUjoUA3rr2/fJFZdflsM/eGief/75HHP0Z3PGWedkscUWH9S5wUutKIJFw3gK4RAppSxWSvl1kuuTfCzJtkmWSzIiyaJJVkyyXZKDk/xfkrtKKW8YounCPOWbvzg3x/zg9PzlvBty70NPzvU49zz4ZLfh1Qz3PfxUjv7eqTOPd99lk7m+X5K8e4/tZ7ZPPPWyfo316u03mLlt8LQLbuwyvEpaX+c3f/H3mcev2GKdft13XnP4/rNCwy/+6IwXhVdJMn16zRFfOzm3391avXDw3jtmtTHLvGRzBJrjkPcfliM+9vG89nWvzyqrrDpXY6yz7nr561nn5l37HdBlkJQkCy20UI46+nPZcOxGSZIJE8bnwvPPm+t5D8U950UXXHBeHnrwwSStlVcf/9RnuvxH/Hbb75BD3n9YkuTJJ5/ISb868SWdJ8CCSIA1BEopCyU5K8n+7Y+mJjk1yceTvDPJvkk+nOSnSTr+i3P4YM+t1npCrbW0XycM9v1gfnDrfx6e2V5h2bn/yfhWG62ejdddKUnyxLhJOb0XWw57svzoJWa277rv8R773nXfYzPbi41cpF/3nZeUUrLzlq2C8dOnT89v/npVt32nTZue3515dZJkoYWGZ5/Xb/mSzBGY/4waNSojFl54jv1KKXntbq+feXzHHbfPU/ecF115xRUz229+yx4vqovY0Z57vXVm+8y/nTGo8wLAFsKh8oEkO7Xb9yTZvdba9dKIJKWUdZMckta2QqBh1l51+ZntR598eq7Hefees1Zf/f7Mq/PC1Gk99J6zjrWh1l19+R56plN9sNv++3APPecvyy692MynUz4+blLGPf1sj/3vvGdW0Lf7zhvnW7/8ew+9Afpv8cUXm9meMmXyfHvPpnjs0VlF7teYQz2tFVZcMYuOHJnJzz2Xe+6+O/fee09WX32NQZ4hwIJLgDU0Ohbi+UBP4VWS1FrvTPLpwZ0SMDeWH714vvSRPWYe/+W86+dqnEUXGZG3v26LmccnnHp5v+d2ziW3ZsrzL2SRhUfkLa98eV67w4b5+2Uv/uNmjZWXzSff23qC0jPPTclP//DPft97oJzyvcOy2QarZLnRi+eZ557Pw49PyBU3/jcnn3VN/nHNnf0evz+VHTZaZ6V+3x9gTu68846Z7TFjVp5v79kbJ//+t/nlL47PIw8/klqnZ+mlR2f9DTbIK3baOW/eY6+MHDmy3/eotc71tXfefrsAC2AQCbCGxgYd2n2vlDybUso9SVZPcm+tdY1SyqJJDk1rK+I6SRZP8mCSc5Mc1w7EuhvroMzhKYSllBl/s19ca921lLJ0+357JVkrrVpe/6i17trhmiWSvDHJK5NskVbB+iWSPJPkoSSXJjm+1tr9/h0YQquNWSYvX3+VJMmwYSWjlxqVLcaunre/bossvcSoJK0n/M1t+LPXazabOc41N9+TW+56qN9zfvjxCTn6u6flW596WxZaaHhO/9GHcvYlt+TCK2/Pw49PyDJLLZbNN5z1FMJHn3w67/7ML3P3A090Od6qK47OZht0X+9l+WVmbVncfMNVM2Fi90/pe3L8pC5rTc1u9503ntleeMRCGb3kqIxde0zeu/eOufDK2/Pe/zkxjzwx96vennr62Tz/wtQsPGKhLD968Sy9xMiM72He63RYqbbk4iOz0vJL5aHHJ8z1/QF68vSECTnnrLNmHu+8y+A/6a4v97xgDvWxxo0bN/N9Tn2332HHOQZQt9z8r07HjzzycB555OFcfNGF+fGPfpAvfumr2WXXV3Zzde8su9xyM9v33nNPj08XfPTRRzP5uVl/Z9x995z/XoN5iRruNI0Aa2h0/HVfIa1thAOilLJKkr8meflsp9ZOa+vie0oph9VaB6TSZCll87Tqd63WQ5+FkzyWVnH62S3Vfm2Y5JBSyk+TfLjWOnUg5gcDZbcdx+YHR+/b5bn7Hn4qx//xn/n2CefN9U9uD+xQvH0gVl/N8KPfXZSHHh+frxyxZ9ZcZbm8/hUb5fWv2KhTn4nPTM4XfvjX/PqMK/Lk+Ge6HWuXrdfr9ZMcP/jOXfPBd+7a7fl/XHNnXve+73V7/qkJz+SCK/6d6269Lw89NiHTpk/PSi9bOrtus15et+PYDBs2LK/cdv1cdOLHs8u7v5VHn5zY7Vg9mTZteq686e7stOW6GTZsWN71pm26fQLjsGEl79x9606fLbXESAEWMGi+9c2v5+mnW3/G7PrKV2Xd9dZv1D0/9pEP9WrM/9x15xz7nnnu+Vl55VW6PDd8+PBs+vLNssWWW2X11dfIqFGjMnHixNx668059+yzM2HC+Ix76qkc8eEP5Gvf+Fbe8MY39WpeXdliy61y2l/+nCQ54/TT8q79393tk9hOP/XPnY4nTpz7H6gAMGcCrKFxV5IZjyr7aPs1EEYk+WNa4dUNSX6T5L60QrK3Jdk5rRDpF6WU8bXW0/p5v2WTnJZk1SR/T3JGkkfTeoLiyzr0G9a+76NJzk9yY1qrrp5LMjrJVkn2abcPTfJ0kk/1c27wkpg6dVouvPL2XH7Df+c6vFpj5WWz05atJ/8989yU/OHsawdyijn9wpsy5fmp+eYn3pq1Vn1xLawlFls0HzngVRk5ckS+8fNzMn363G+fGAjH/OD0XHfrfV3WAPv+SRdki7Gr5XffOiSrjVkmq6+0bP7vC/tnr8N/Mtf3+8Upl2andiH3L3zozbn2lvty5U13d+pTSsl3Pv32bLDWip0+X3Lx/m9XAejKH07+3cwgZYkll8ynjjp6vrznnGy+xZY569wLssKKK77o3N55ez728U/mi5//XM4568zUWvP5z302m22+RcasNHfbvF+72+vynW/+byZMGJ/bbr0lx337f/Oxj3/qRSHWVVdekeN/2vnvnkmTuv8hEAD9J8AaGr9N8rV2+4hSynpJ/l+SC2utT/Vj3JXarx8m+WitteO//n5QSvlUkm+kFSj9rJRyYa21Pz8q2jjJtCT711p/00O/F5LsnuScWuv0Ls7/vJRydFoB2PZJjiyl/KjWem8/5gYD6ud/uiQ//9MlSZKFFhqWFZddMjtuvk4O3/+VOXDP7XPgntvne78+P5/97ql9DoAO3GP7mU85OvX8GzLxmYErmLvamGXyh+Pen5evv0ruf/ipfODY3+Tvl96WR596OksuNjLbbrpmPnXwbtnu5WvlmA+8KVtttEbe9cmfZ8rzL14EedIZV+akM67s8V63n3lskuR9x/y6x749mT08mt11t96Xt3zoR7nid5/JoouMyOtfsVG2HLtarr31vrm638lnX5t3vnGb7Lbj2Cyx2KL5+88/mj+de20uuvqOTHpmStZYedm8Y/etsul6q+SxpyZm0YUXmhlcTZ/e1R9pAP3zj4svyje++uUkybBhw3Lsl7/W7eqkobznjbf0/ITCgw86INdcfVW22nqb/L8Tfj1X81pt9dV7PL/YYovna9/4Vp584olcc/VVmTJlSn75/47PZz/3+bm632KLLZ5Pf/bofPbTn0ySnPjLX+Tqq67M63d/U8aMGZNJEyfliisuy3nnnpNp06Zl1VVXy/33t/7+GTbMfiuAwdT9c2EZTN9NclmH4zck+VOSJ0sp/y2l/KmU8slSyjaluzXL3bsmyRGzhVdJklrr/yb5S/vwZUkO6vPMX+yHcwivUmudVms9q5vwakafJ5O8u304PMn+AzA3GBRTp07PA4+Oz8lnX5Od3/2t/PavrdJtRxzw6nz+g33btlBKyf5v3nbm8UBuH1xh2SXyj19/Ii9ff5Xc/cAT2WG//80Jf7k8Dz42PlOnTs9TE57JWf+8Oa9+73E546KbkrRqTn32/W8YsDkMltvvfjS//dusknlv6FArq69qrdnvU/8vp51/Q5JkxIjheecbt8lPv7B/fvPNg/OVj+6ZTddbJQ8/PiF7H/6TTOsQUI57uvt6WQBz44rLL8snPvaRTJ06NaWUfO4Lx+ZVr37NfHfPgTR8+PB8+CMfnXn8j4sv6td4b3zTW/L5L345Cy/cekrtrbfcku988xv55JEfzRc//z8zV3t94EOHd6q5teSSS/XrvtA0pZQF5sW8QYA1BGqtk5O8Osm3ksz+zPY1k7w1yf8muTLJ3aWUI0opI3o5/Ld6Cora487wtl6O2ZPvD8AYSZJa611JZjy7eLv+jldKWaSUsmTHV53+4i1J0B/Tp9cc8bWTM35i6z/lw/d7ZZbqw7ay12y/QVZZcXSS5K77Hssl1941YHP7zCGvzwrLLpkk+eKP/ponxk3qst/06TUf+9ofZq4mOnSfnTN8ePP/evjH1bOeR7HBmi/eWtIXk56dkn0/8fPsftgP8ru/XZW7H3gizz73fCY+Mzn/uuPBfOWnZ2bLt30lN97xQJYYtUiS1uqrx55S7wQYOFdecXmO+PAHMmXKlJRScvQxX8jeb337fHfPwfDyzTbPIou0/nx++OGH8txz/fsBw95ve3v+etbfc/D7Ds3YjTbKEksumYUWGpEVVxyT3d/05pz4m9/nsA9+OOMnjJ95TccC8AAMPFsIh0g7xPpkKeWrSfZM8tq0Qps1Z+u6elortt5ZSnlje6VST3p+xEsrFJuY1hMAtyylDJtD4NWTh2qtvX7cSillpSQHpBXejU2r5tWobroPxDr5o5J0Wj8+9dFrM2LMNgMwNMwy6dkpuez6/2b3nTfOyEUXzjabrpG/X3Zbr649aM9ZxdtPPO2KAZ1Xx1VJ513R83wefGx8/n33oxm79pgstcTIbLDmigPyJMTB9HiHQG6pJQamFtWFV96eC6/sfkvMRuuslIUWGp4kufPex/L0pIHb7gks2K684vJ85MMfyOTJrT9XPvs/x+Tt+3T98JB5+Z6DZdiwYVlyqaXy+GOPJWkVVJ/TUw3nZIUVV8xHPnpkPvLRI7vt85+7Zv3gaZNNNu3X/QDoWfN/xD6fq7WOq7X+stb6rlrrWkmWSbJbWjWyOhZ02Tat2lk9GTengKu2qkz/p304KsnSczXxlgd627GUcmiSO5N8Pa2wbuV0H14lyZL9mNcMX8uspxwulWSphVbYcgCGhReb9OysIGP0kj19a8+yzFKL5Y27tJ7nMHXqtPxmLmtGdWfM8rO2MkyYNOefRE+YOGtB6OLtVUZNttzoxWa2J0x8abby7bzVujPbl1z3nx56AvTezCCpvWroM5/9XPbZ913z3T0H0/Tp0zPx6VmrYpdYYiD+V7Jn48ePy5133JEkGTVqVDbYcOyg3xNgQSbAaph2oPX3Wutnk6yT5McdTu9WStmxh8t7++iTjv2W6OscO+jVvxhLKW9P8n+ZFVhdnlaQdWiSfZPs1eH1eLvP8H7MK0lSa51Sa32646sM6/ew0KW1V5v14M3Hu9mqN7t37r51Flm4tTv4nEtvzcOPTxjQOU18ZsrM9iorjJ5j/9XGLDOz/eT45j9Jaeet1pvZvuPeR1+Sex7wllm7m0/4y2U99ATondmDpE8ddXTeud/glgIdinsOtptuvGHmSrIVVlyx36uveuOvp5+WqVNfSJK86c17zKyZBcDgsIWwwWqtL5RSjkiya1pb7pLW6qVLu7lksW4+76nfxLmbXZ98tf0+LcletdYzuutYSjn+JZgPDKgtx66WzTdo7Xqd8vwLufaW3j1A8917zgpDThzA4u0z3HLXQzNXDO27+9b5+vFnd9t3py3XzcrtkOvJ8c/kP/c/3m3f7tz38FMZufmH526yfbTOai/Lu9649czjs/5x86Df85C3vSKbb7hqkuQf19yZa3r5+wzQnauvurJzkPSZz2a//d89h6vmnXvO7ZMH+2r69On58Q9nlWXdeZddB/2ejz32aH76k9bPmUeMGJH9Dhjc3zcYCmqb0zRWYDVcrXVqkos6fDSmh+6jSynL9HA+7acartU+fDbJ+P7Mb05KKWumtZIsSU6dQ3i1ZFpbKGHIbbLeyvnQO3fNYiN7/mnqVhutnpO/874MG9b64/T3Z17Tq7pIW4xdLZuu1wq9Hnni6Zz5z74FMEcfunueu/6Hee76H+ZnX+z6p+Ynn3XNzPanD35ddtux660Na6+2fH7+pQNmHv/+zKvS2m380vvgO3fJdi+fvRRgZy9ff5Wc8eMPZuSird+bv192W66+ueswaf83bzvz1+mc44/odsxtNlkjC4/o/mc67917x3znU62ixpOenZLDvtjjw1cB5uiaq6/Khz94aOcg6YAD53q8l2+0/szXgw92XeVhoO852G684fr86Q8nZ8qUKd32efbZZ3P0UZ/KlVe0fhC08MIL5z0Hv6/b/r35dXrggfvz0EMPdjvGXXfdmfe998A8/XRr5fQHPvSRrLHmWt32B2BgWIE1b3ihQ3tOe5Nem+TkHs5vk1n1pa7pRwH33ur4aLA5PV7tdRGqMgBWX2nZTsXRk2Tj9Vae2X75Bqvk8x98U6fzF119Ry6++o6Zx0svMSrf+tTbcuzhb8mFV92e6269L/c9/FQmPTsliy4yIquvtEx22Wq97LL1ujPDq1vueihHHfeXXs3x3XvMWn31279emWnTBv4/xRNPuzzv3mO7bLvpmll0kRH5y/cPy1n/vCV/v+y2PPbU01lisUWz/WZrZZ/XbZVR7aDuv/c/nq/+rOuVWquuODqbbbDqgMztyfGTctkNL34GxK5br5dvf+rt+c99j+eCq27PrXc9lKcmPJNp06ZnzPJLZddt1s/rX7HRzKck3vvQkzn0Cyf1ez6fPuT12X6ztXLupbfm2lvuzUOPjc+IEQtlrVWWyx6vfvnMsPHZ557Puz7589z9wBP9vicwb3rggftz6il/6vTZHXfMevjDv2+7NT/83nGdzm+97XbZdrvtO/S5LR/+wKwgaYcdX5ExK62cC87v+Vk8Sy+9dLbYcqu5mvdg3HNO1/bF9jvs+KJtf08++WS+9MVj8u1vfj3b7bBjxo7dKCuuOCYjR47MxEkTc9utt+acs/6W8ePHJ0lKKfn8sV/Oyiv371lAt91ySz71iY9ls823yFZbb5PVVl89iyyySJ544olcfdWV+cdFF2bq1KlJkr3e+ra85+BD+nU/AHpHgDUESikr1Fp7VbCllDIiyRs6fPSvOVxyZCnlD7X75ROf6ND+Uzd9BlLHQjrrdNeplLJwkv8Z/OmwIFhtzDL5zPte3+35TddbZWYgMcPUadM7BVgzjBq5cN64yyYzi6135+SzrsmR3/hjxj39bI/9kmSRhRfKPq+f9Y+BgX764AzTpk3Pnh/+cY7/0rvzpl02ybBhw3r8Wq666e4c8Jlf5qkJXde/2mXr9XL8sQd0ea6v/nHNnXnd+77X7fm1V1s+a6+2fI9jnHvprTnsi78ZsNpho5cclXe8Yau84w1d/0Pt1v88nA996be54sa7B+R+wLzp4YceyvE/+79uz99xx+2dAq0kGb7QQp0CrNv/fVuee27W3xeXXXpJLrv0kjnee6utt5nrbXmDcc+PfeRDczWXrpx57vndBk/PPvtsLjjv77ngvL93e/1yyy2fzx/75QHbPjh9+vRcd+01ue7aa7o8v+jIkXn/oR/Mew95X4p9VgAvCQHW0LimlHJ+kp/WWrstfFNKWTyt4uczKhVPSHL6HMbeJslxpZQjZ19dVUo5Msnb2oePJTlxbibfR/9Oa9XY4kneUkrZfvavuZQysj0Xzx6mMS657q7sfMA3s+s262erjVbPemuskJVetlRGLbpwprwwNRMmPpfb7340V9z03/zh7Gvz7/8+0uux93r1ZjOfVHj5Df/JHfcMXgHy8ROfy9s/+tPsuMXa2fcNW2ebTdfIqisukyVGLZLnpryQR554Otfecm9O+ft1+dvFNw/Z1sEZPv2dv+Rv/7g5W2+8RjZdb+Usv8ziWXbpxbPIwgtlwqTnct9DT+XKm+7O78+8utttg3Pj2B//Ndfcck922mLdrLHysnnZskuk1uSxJ5/O9bfdn9MvvDGn/P36QVkpB0DXtttu+3zvBz/Ov/51U27+10155JGHM2H8+EycODGLLrpolllm2Wwwdmx23nnX7Pb6N2SRRQbmCbpbb7ttPvf5Y3P1VVfmjjtuz1NPPpFJk57J6NFLZ+VVVs3Ou+yaN71lz6ywwgoDcj8AeqcM9T9WFkSllEeSzPgb794kFye5Ia1QaUqSZZNsnmTvJDOWINQkB9Vaf9XFePckWT3JQ0nuS7JdkuuT/CbJ/UlellZwtUuHsfaqtZ7WxVgHJfll+/A9tdYTuugz45vm4lrrrr34er+R5FPtwxeSnJDkqrRWZ41NcmCSVZOcn2T9JKskubfWukYXY30hyefbh6+stV40p/t3NHLzD/uGB6DXxl39w6GeAgDzoEUXyjy/NG/7b/xjgfm30+Wf3nme//1aEFiBNTRuTKtWVUkreHp3+9WdR5IcXmud05a/F9IKqv6WVgC2eRd9piQ5rKvwahB9Lq3VVa9PMiLJ+9qvji5O8o4k176E8wIAAADmAQKsIVBrfV0pZaUkuyXZMcnGSdZMsnSS4WltuXswyU1Jzkzyl1pr10VpXjz2g6WU7ZIcmmTfJOumtX3vwSTnJvlOrfXOAf2C5jyn50spb0xyUFqrrV6eZGSSx9Oq6fW7JCfVWqerIQAAAADMzhbC+UCHLYRdbrtjFlsIAegLWwgBmBu2EM5bbCGcN1iBBQAAAHRicwxNM2yoJwAAAAAAPRFgAQAAANBoAiwAAAAAGk2ABQAAAECjKeI+H/DkQQAAAAZSUcWdhrECCwAAAIBGE2ABAAAA0GgCLAAAAAAaTQ0sAAAAoBMlsGgaK7AAAAAAaDQBFgAAAACNJsACAAAAoNEEWAAAAAA0miLuAAAAQCdFFXcaxgosAAAAABpNgAUAAABAowmwAAAAAGg0NbAAAACATtTAommswAIAAACg0QRYAAAAADSaAAsAAACARhNgAQAAANBoirgDAAAAnajhTtNYgQUAAABAowmwAAAAAGg0ARYAAAAAjSbAAgAAAKDRFHEHAAAAOimquNMwVmABAAAA0GgCLAAAAAAaTYAFAAAAQKOpgQUAAAB0ogQWTWMFFgAAAACNJsACAAAAoNEEWAAAAAA0mgALAAAAgEZTxB0AAADopKjiTsNYgQUAAABAowmwAAAAAGg0ARYAAAAAjaYGFgAAANCJElg0jRVYAAAAADSaAAsAAACARhNgAQAAANBoAiwAAAAAGk0RdwAAAKCTYaq40zBWYAEAAADQaAIsAAAAABpNgAUAAABAo6mBBQAAAHSiBBZNYwUWAAAAAI0mwAIAAACg0QRYAAAAADSaAAsAAACARlPEHQAAAOikqOJOw1iBBQAAAECjCbAAAAAAaDQBFgAAAACNJsACAAAAoNEUcQcAAAA6GaaGOw1jBRYAAAAAjSbAAgAAAKDRBFgAAAAANJoaWAAAAEAnpSiCRbNYgQUAAABAowmwAAAAAGg0ARYAAAAAjSbAAgAAAKDRFHEHAAAAOlHDnaaxAgsAAACARhNgAQAAANBoAiwAAAAAGk0NLAAAAKCTEkWwaBYrsAAAAABoNAEWAAAAAI0mwAIAAACg0QRYAAAAADSaIu4AAABAJ8PUcKdhrMACAAAAoNEEWAAAAAA0mgALAAAAgEZTAwsAAADopBRFsGgWK7AAAAAAaDQBFgAAAACNJsACAAAAoNEEWAAAAAA0miLuAAAAQCdquNM0VmABAAAA0GgCLAAAAAAaTYAFAAAAQKMJsAAAAABoNEXcAQAAgE6GqeJOw1iBBQAAAECjCbAAAAAAaDQBFgAAAACNpgYWAAAA0IkSWDSNFVgAAAAANJoACwAAAIBGE2ABAAAA0GgCLAAAAAAaTRF3AAAAoJOiijsNYwUWAAAAAI0mwAIAAACg0QRYAAAAADSaGlgAAABAJ0pg0TRWYAEAAADQaAIsAAAAABpNgAUAAABAowmwAAAAAGg0RdwBAACAToap4k7DWIEFAAAAQKMJsAAAAABoNAEWAAAAAI2mBhYAAADQiQpYNI0VWAAAAAA02lyvwCqlHDOQE+mo1nrsYI0NAAAAwLylP1sIv5CkDtA8ZifAAgAAACBJ/2tgDca22MEKxQAAAACYB/UnwHrlgM0CAAAAaIxSlHGnWeY6wKq1XjyQEwEAAACArngKIQAAAACNJsACAAAAoNH6W8S9V0opI5KsmWSZJAvXWv/xUtwXAAAAgHnfoAZYpZRXJfl4kl2TLNr+uM5+31LKB5NsluSBWuuxgzknAAAAoGfD1HCnYQYlwCqlDEvyoyTvn/HRHC55PMkhSaaXUk6std47GPMCAAAAYN4zWDWwvpvk0LSCq4lJfpfkzz30PzXJ0+3+bx6kOQEAAAAwDxrwAKuUsmWSD6e1VfCCJGvVWvdL8uvurqm1vpDkvLQCrF0Gek4AAAAAzLsGYwvhoe33R5PsVWud2Mvrrkuyd5KxgzAnAAAAoJdKUQSLZhmMLYQ7p7X66oQ+hFdJcn/7feWBnxIAAAAA86rBCLBmBFA39fG6Z9vvowZwLgAAAACDopSyRinlS6WUS0opT5RSXiilTCql/LeU8udSyv6llBG9HGtMKeULpZRrSylPllKeLaX8p5RyQill58H+WppuMLYQzlhnOL2P1y3Zfu/Lqi0AAACAl1wp5cgkX02yyGynFkqyZvu1V5L/KaW8rdZ6cw9j7ZHkl0lGz3ZqrfbrwFLKT5N8qNY6bYC+hHnKYARYjydZLcnqfbzu5e33hwZ2OgAAAAADp5Ty4STf7vDRZUlOT6s80pJJNkpyUJLFk6yf5MJSyia11ke6GOuVSf6QZOH2R39rj/VMki2SHJxkqbRqjtckHxj4r6j5BiPAujqt8OqNSb7ZmwtKKQsleVtavxGXDcKcAAAAgF5Sw717pZSRaa28muF9tdafd9Hv2CTnJ9kkyXJJPpXkyNn6LJLkF5kVXh1ea/1hhy6/aa+8ujjJikkOK6X8sdZ6wUB9PfOKwaiBdWr7fadSyu69vOZLSVZqt/844DMCAAAAGBg7Jlmi3b66q/AqSWqtjyc5qsNHXdWxem+SNdrtM2YLr2aMc0eSD3X46Mt9nfD8YDACrN8nuT2tWlgnl1Le2V3HUsrypZSfpJVC1iRX1lrPG4Q5AQAAAAyEl3Vo3zmHvh3PL97F+X07tL/TwzinJrmn3d6+lNLXsk3zvAEPsGqt05O8Pa1i7IslOamUcl+Sz87oU0r5YynliiQPJnl/WmHX+CT7DfR8AAAAAAbQYx3a682hb8fzt3Q8UUpZIskr2ocTk/yzu0HaWcvZHT56w5ynOX8ZjBVYaVfW3zXJ3WmFU6sk2SqtVVZJsneSrdOqwVXSShF3qbXePRjzAQAAAHqvlLLAvObCJUmeaLe3KqUc0s2v4fKZVStrel68wmpsZuUy1/fi6YJXd2hv0vvpzh8Go4h7kqTWen0pZeMk70vy7iSb5cWB2S1JTkzyo1rrc4M1FwAAAICBUGudXEo5LK0SSgslOb6UclA6P4Vw4yQHplUra1KSQ2qtl8421Pod2r1Z0NOxz/rd9ppPDVqAlSTtUOr7Sb7fXhq3apKl0/rNe7DW+uRg3h8AAACgJ+0nAS4y28dTaq1Turum1npKKeU1SX6UZKO0CrvvOFu3F5J8JclPa633dzHM0h3aT3RxfnYdM5Slu+s0vxqULYRdqbVOrLXeWmu9rNZ6k/AKAAAAaICjkkyY7XVUj1e0/CPJh5Nc3835EWk9PfDIUsrILs53LOo+uRf367hzbYlue82nXrIACwAAAKCBvpZkqdleX+vpglLKcknOT3JhkjWSfCzJ2kkWTmt11KuTnNlufzTJRaWUZQdh7guMQd1COEMpZY0k2yRZKa2UcGKSh5JcWWu996WYAwAAANA7w+aqtvm8qb1VsNvtgrMrpYxK64mBGyQZl2TbWuudHbpMSHJBkgtKKT9MaxXWNkl+kORdHfpN6tBetBe37riKa2Jv5zu/GNQAq5SyT5JPJdm8hz7XJflGrfVPgzkXAAAAgAHwwbTCqyT51mzh1ew+nWS/tFZivaOUcmSt9ZH2ufEd+i3Xi/t2XME1vrtO86tB2UJYShlRSvljkt+lFV6VHl5bJDm5lPKHUsrCgzEfAAAAgAHypg7tc3vqWGt9Jsll7cNhSbbucPr2Du01e3Hfjn1u77bXfGqwVmCdnGTPDse3JzkvyZ1JnkmyWJJ1krwms1LLtyYZ3n4HAAAAaKKVOrQn9KL/+A7tjoXbb00yPa1ga/NSyvBa67QexukYft3ci/vOVwY8wCql7J1WeFXTegzkIbXWM3ro/8YkP0+yQpI9Syl71Vr/MtDzAgAAAHqnlAWoCFbfdaw/tWpai3V6snqH9pMzGrXWiaWUS5PslFa98FckubirAUopw5K8rsNHZ/VlwvODwdhC+N72+5Qkr+wpvEqSWuvf0qrOP+ORkYcMwpwAAAAABsK/OrT366ljKWWdJNu2D6cnuWa2Lr/v0P54D0PtmVlbCK+otd4zx1nOZwYjwNoqrdVXJ9Zab+3NBe1+J6RVE2vLQZgTAAAAwED4bYf2e0opB3fVqZSyYpI/ZNbut7/WWp+ardsvktzXbr+5lPKhLsZZN8mPOnz0ubma9TxuMGpgLdV+v7SP112W5LAO1wMAAAA0Sq313FLKn5K8La2FOD8vpRyQ5LQkDyQZmdbingPSevpg0to6+KIVVrXWye0A7MwkI5L8sJTy+iSnp1VDfIu0dqrNyEqOr7WeN0hfWqMNRoD1aFp7QHsqPNaVGf0fHdjpAAAAAAyo/ZM8nVlllHZpv7pye5J9a613dXWy1npeKeUdaa3GWjqtpxy+qYuuxyf5QD/mPE8bjC2EV7Xft+jjdTP6XzGAcwEAAAD6qCxAr7lRa51Saz04yeZJvpdWbaunkkxN8mySe5KcktYqrE1rrTfMYby/JBmb5EtJbkjryYWTk9yd5NdJdq21vn8OTymcrw3GCqz/S2sZ3cGllO/UWh+e0wWllDFJDk6rdtZPB2FOAAAAAAOqHUx9dIDGejjJMe0XsxnwFVi11guSHJfWsrcLSimb9NS/lLJxkvPb/b9da71woOcEAAAAwLxrrldglVJ27uH0aUlWT7J3kutKKecmOS/JnWkVIVssyTpJXtt+DU/ypyR/LaXsXGv9x9zOCwAAAID5S3+2EF6U1pa/ntS0wqnXt19dKe1+b22/aj/nBQAAAMB8pL9BUW/rnc2p39zWTQMAAAAG2LDin+k0S38CrC8O2CwAAAAAoBtzHWDVWgVYAAAAAAy6AX8KIQAAAAAMJMXSAQAAgE6UwKJprMACAAAAoNEEWAAAAAA02qBuISyl7JDkwCTbJVklyZKZc2hWa622NgIAAACQZJACrFLKqCS/SPL2GR8Nxn0AAAAAmP8N1kqn3yR5S1rB1TNJ/pXWKqya5NYkzyVZI8ly7f41ybXtvgAAAMAQKqq40zADXgOrlPKaJHu0D09NslKtdYcOXY6utW5Ta31Zkm2TnJ1W0LVIkoNqra8c6DkBAAAAMO8ajCLu726/P5zkXbXWid11rLVeXWvdPcn3kmyS5NRSysKDMCcAAAAA5lGDEWDN2Cp4cq11chfnu1qH+PEk/06yaZL3DsKcAAAAAJhHDUaAtWL7/abZPq/t90Vmv6DWOj3JSWmFW/sMwpwAAACAXiplwXkxbxiMAGvR9vvTs30+o0D76G6uu6v9vv6AzwgAAACAedZgBFjj2++jZvv8yfb7Ot1cNyPYWnagJwQAAADAvGswAqw72++rz/b5zWltEXxNN9ft0n6ffeUWAAAAAAuwwQiwrkkrqNp8ts/Pbr9vWko5tOOJUsreSd6RVp2sawZhTgAAAADMoxYahDHPT3J4kleVUobXWqe1P/9Nki8kWSbJj0spB6dV92qdJFumFXrVJD8bhDkBAAAAvTRMdXMaZjBWYJ2T5J4kz6fDdsFa6/gkhySZllZYtWVaq65mhFdJ8ota66mDMCcAAAAA5lEDHmDVWqfUWteqtY6ptZ4z27nT0qp1dX5mBVklyR1JPlhrfd9AzwcAAACAedtgbCHsUa318iSvLaUslGS5JM/UWie+1PMAAAAAYN7wkgdYM9RapyZ5ZKjuDwAAAHRNCSyaZjBqYAEAAADAgBFgAQAAANBoc72FsJSy2kBOpKNa632DNTYAAAAA85b+1MC6J0kdoHl0VDOEtbkAAAAAaJb+BkXKugEAAMB8pqjiTsP0J8A6ccBmAQAAAADdmOsAq9b6noGcCAAAAAB0xVMIAQAAAGg0xdJZoDx51Q+GegoAzENGb3vEUE8BgHnQc9d+b6in0G9Wu9A0vicBAAAAaDQBFgAAAACNJsACAAAAoNEEWAAAAAA0miLuAAAAQCellKGeAnRiBRYAAAAAjSbAAgAAAKDRBFgAAAAANJoACwAAAIBGU8QdAAAA6GSYGu40zEsWYJVSFk6yTJKFa633vVT3BQAAAGDeNqgBVillvSRHJHldkjXbH9fZ71tK2TfJWkkeqbX+YjDnBAAAAMC8ZdACrFLKp5N8KcnwJHNafLhYki8nmVpK+Wut9bHBmhcAAAAA85ZBKeJeSvlMkq+mFZBNT3J5kkt6uOR3SSanFXa9ZTDmBAAAAPTOsLLgvJg3DHiAVUpZN62VV0lyc5KNa607Jvl2d9fUWp9NckH7cNeBnhMAAAAA867BWIH14bRWUk1I8rpa6+29vO6atLYabjIIcwIAAABgHjUYAdar0irU/qta68N9uO7u9vuqAz8lAAAAAOZVgxFgzQigrunjdRPb74sP4FwAAAAAmMcNxlMIF2m/T+7jdTOCq2cGcC4AAABAH5WiujnNMhgrsB5vv6/cx+vGtt8fHcC5AAAAADCPG4wA68a0irG/prcXlFa0u1datbOuHIQ5AQAAADCPGowA64z2++tLKVv38prDk6zbbp828FMCAAAAYF41GAHWiUkeao99eillh+46llJGlFI+neTbaa2+ur3W+udBmBMAAADQS8PKgvNi3jDgRdxrrVNKKfslOTfJy5L8s5RyeZJxM/qUUr6Z1tMKX5lkubS2HE5Osv9AzwcAAACAedtgPIUwtdaLSyl7Jvl1kmWSbD/jVPv9yPb7jKxzfJJ9aq3XDcZ8AAAAAJh3DcYWwiRJrfWsJBsn+W6Sp9IKq2Z/TUjy4yQb11rPG6y5AAAAADDvGpQVWDPUWh9Ja7XVkaWUsUnWSLJ0kklJHkhyQ611+mDOAQAAAIB526AGWB3VWm9NcutLdT8AAABg7hTFzWmYQdtCCAAAAAADQYAFAAAAQKMN+BbCUsrO/R2j1vqPgZgLAAAAAPO+waiBdVGS2o/ra17C2lwAAABAZ8MUwaJhBiso8p0OAAAAwIAYjADri73oMzzJckm2T/LytFZdnZbkxkGYDwAAAADzsAEPsGqtvQmwZiqlvDrJiUlek+THtdbzBnpOAAAAAMy7hvwphLXW85O8LsnCSX5bShkzxFMCAAAAoEGGPMBKklrrLUl+l9a2wsOHeDoAAACwQBu2AL2YNzTp9+of7fc9hnQWAAAAADRKkwKsie331YZ0FgAAAAA0SpMCrPXb73VIZwEAAABAozQiwCqlLJfksLTCq7uGeDoAAAAANMhCQ3XjUspCSVZO8pokR7fbNcmfh2pOAAAAQFLKUM8AOhvwAKuUMq0fl9+V5LiBmgsAAAAA877B2EJY5vJ1QZJX11qfGYQ5AQAAADCPGowthP9I7wqxT0kyLsktSc6qtV47CHMBAAAAYB434AFWrXXXgR4TAAAAeOkMUwSLhmnEUwgBAAAAoDuDUcT9mHbzv7XWkwZ6fAAAAAAWLINRA+sLadXA+twgjA0AAADAAmYwthBOaL/fNQhjAwAAALCAGYwVWA8mWTLJYoMwNgAAADDI1HCnaQZjBdY5SUqSVwzC2AAAAAAsYAYjwPpJkslJ9iulbDQI4wMAAACwABnwAKvWeleS97XHPq+U8uaBvgcAAAAAC45+1cAqpfyi3fx+rfWG9mfHtD+7MMlrk5xaSrk3yaVJHkjy3JzGrbUe2595AQAAAHNvmBpYNEx/i7gflKQmOTXJDe3PvtD+LO33kmT19qu3BFgAAAAAJBmcpxAmrdCqp+Oe1Dl3AQAAAGBBMRgB1isHYUwAAAAAFlADHmDVWi8e6DEBAAAAWHAN1hZCAAAAYB41rKjiTrMMG+oJAAAAAEBPBFgAAAAANNpAbSH8cinlowM0Vq21vnqAxgIAAABgHjdQAdZGAzROSVIHaCwAAABgLiiBRdMMVIDlWxsAAACAQTFQAdb/JLl0gMYCAAAAgJkGKsC6udZ68QCNBQAAAAAzeQohAAAAAI02UCuwAAAAgPnEMJWuaRgrsAAAAABoNAEWAAAAAI0mwAIAAACg0QYiwLIzFgAAAIBB098i7mu23x/r70QAAACAZijWqtAw/Qqwaq33DtREAAAAAKAramABAAAA0GgCLAAAAAAarb81sAAAAID5zDAlsGgYK7AAAAAAaDQBFgAAAACNJsACAAAAoNEEWAAAAAA0miLuAAAAQCeKuNM0VmABAAAA0GgCLAAAAAAaTYAFAAAAQKOpgQUAAAB0UooiWDSLFVgAAAAANJoACwAAAIBGE2ABAAAA0GgCLAAAAAAaTRF3AAAAoJNharjTMFZgAQAAANBoAiwAAAAAGk2ABQAAAECjqYEFAAAAdFLUwKJhrMACAAAAoNEEWAAAAAA0mgALAAAAgEYTYAEAAADQaIq4AwAAAJ0MU8WdhrECCwAAAIBGE2ABAAAA0GgCLAAAAAAaTYAFAAAAQKMp4g4AAAB0MkwNdxrGCiwAAAAAGk2ABQAAAECjCbAAAAAAaDQ1sAAAAIBOihpYNIwVWAAAAAA0mgALAAAAgEYTYAEAAADQaAIsAAAAABpNEXcAAACgk2FRxZ1msQILAAAAgEYTYAEAAADQaAIsAAAAABpNDSwAAACgk6IEFg1jBRYAAAAAjSbAAgAAAKDRBFgAAAAANJoACwAAAIBGU8QdAAAA6GSYIu40jBVYAAAAADSaAAsAAACARhNgAQAAANBoamABAAAAnQwrimDRLFZgAQAAAPRDKWXzUso3SynXl1IeL6VMKaU8WEq5ppTyw1LK20opw+cwxjrtMW4upUwopUwqpdxeSvlRKWWzl+hLaSwrsAAAAADmQillySTfS3JgktmXra3Ufm2Z5ENJRicZ380470/y3SQjZzu1Xvt1aCnl2FrrsQM193mNAAsAAACgj0opyyQ5J8lW7Y8eTPLnJDcmmZBkiSTrJnltWiFWd+Psn+Sn7cPpSX6f5PwkU5PsmFY4tkiSL5ZSptRavzHgX8w8QIAFAAAA0He/zazw6ttJ/qfWOrmLfp8tpayUZNLsJ0opyyf5UftwepK9aq2nd+jyq1LKL9MKtEYl+XIp5dRa6+0D9UXMK9TAAgAAADopZcF5zd2vTzkoyevahz+ptX6im/AqSVJrfajWOrWLU59IsmS7/aPZwqsZ116R5HPtw4WSfH7uZj1vE2ABAAAA9M2n2++TknymH+O8o0P7uB76HZ/kmXb7LaWU2WtlzfcEWAAAAAC9VErZMckG7cPTaq1Pz+U4Y5Os3j68rdZ6d3d9a60Tk/yzfbhYkl3m5p7zMgEWAAAAQO91DI+uTJJSyt6llDNLKY+UUqaUUh4qpfytlPKeUkp39cc36dC+uhf37dhnk257zacUcQcAAADova06tB8tpZySZO/Z+oxpv3ZP8rFSyh5drLBav0O729VX3fRZv9te8ykBFgAAANDJsLmtbr5gGNOhfWxaYdLzSX6V5JIkLyR5eZJDkiyT1mqpC0spW9Ran+pw7dId2k/04r5PdnPtAkGABQAAACywSimLJFlkto+n1FqndHPJ6A7t9ZOMS/LqWuv1HT7/bSnluCTnJ5lR6+qrSQ7r0GfxDu1un2DYwXMd2kv0ov98RQ0sAAAAYEF2VJIJs72O6qH/7FnKJ2YLr5IktdZHkryrw0cHlVKW7OdcF1gCLAAAAGBB9rUkS832+loP/Sd2aD+T5KTuOtZab0xyRftwkSQ7djg9qUN70V7Mc2Q3c1gg2EIIAAAAdLIglcBqbxXsbrtgV8Z1aP+r1vr8HPpfk2S7dnvtDp+P79Berhf3XbabaxcIVmABAAAA9N6/O7Qn9KJ/xz4dtxDe3qG9Zi/G6djn9m57zacEWAAAAAC9d2OH9lK96N+xT8cw618d2lv3YpyOfW7uRf/5igALAAAAoPfOSlLb7U1KKQvPof9WHdozV07VWm9Ncl/7cMNSyhrdDVBKWTzJTu3DZ5Nc3JcJzw8EWAAAAAC9VGt9ILMCpMWS7N9d31LKyzOr/tXEJJfO1uXkDu0je7jt+9v3SpLTa63P9nrC8wkBFgAAANDJsAXoNZc+26H9rVLK5rN3KKWskOQ3HT76fq31udm6fSuznij4oVLKW7oYZ9skX2ofTk3yxbme9TzMUwgBAAAA+qDWenkp5RtJPp1kdJIrSiknJrkkyQtJNktySJJl2pdck+TLXYzzWCnl8CQnpJWn/aWU8vskf08yLcmOSQ5Msmj7ks/XWv89+zgLAgEWAAAAQB/VWj9TSpmWVoi1cJL3tV+zOyfJO2utk7sZ58RSyqgk30krqHpX+9XRtCRfqbV+daDmP6+xhRAAAABgLtRaj06yZZIfJPl3WtsBJ6dVnP33SXavtb6+1jpuDuP8JMmmaYVYt7bHeSbJnUn+L8nWtdbPD9bXMS+wAgsAAADopJQy1FOYZ9Rab0zykQEY584kH2+/mI0VWAAAAAA0mgALAAAAgEYTYAEAAADQaAIsAAAAABpNEXcAAACgEyXcaRorsAAAAABoNAEWAAAAAI0mwAIAAACg0dTAAgAAADoZVlTBolmswAIAAACg0QRYAAAAADSaAAsAAACARhNgAQAAANBoirgDAAAAnSjhTtNYgQUAAABAowmwAAAAAGg0ARYAAAAAjSbAAgAAAKDRFHEHAAAAOimquNMwVmABAAAA0GgCLAAAAAAaTYAFAAAAQKOpgQUAAAB0UhTBomGswAIAAACg0QRYAAAAADSaAAsAAACARhNgAQAAANBoirgDAAAAnVjtQtP4ngQAAACg0QRYAAAAADSaAAsAAACARlMDCwAAAOiklDLUU4BOrMACAAAAoNEEWAAAAAA0mi2EwHxn2rRpufu//8mtt9ycW2+9JbfecnPuvP32TJ48OUny5j32zLFf+focx3ns0Udz3bXX5NZbbs5tt96Sxx9/LOPHjcszzzyTRUeOzJgVx2SjTTbN63d/Y7bdbvtB+VomT56cs/7211x04fm568478tSTT2ahhRbKMssum9VWWyNbb7NNdnnVq7P66msMyv17a/z4cbntlls6/Jrfkkcefmjm+b+dc15WWnmVXo21+26vysMPPTTnjm3X3/zvPs+3o2OO/kzOOO3UPl/X2+8jYGgNG1aywZorZouxq2aLDVbNFmNXzSbrrZxRiy6cJPn1GVfm/V/47RzHWWn5pbLj5mtli7GrZfMNV82Y5ZbMsksvniUXXzTPPDcl9z8yPtfccm/+cPZ1uejqO/o8zx03Xztv223z7LTFOhmz/JIZtejCeWLcpDz42PhcfuPdufCqO3LuZbf1edzeOuv/PpRdt15v5vH7vvCbnHTGVYN2v94asdDwbLzOmGy+4aozf+03XmdMFh7R+mfMl396Vr7ys7N7NdbR7399/ufQN/T63v39Ndhpy3Vy7s8On6trR255xFzfF2B+JcAC5juf+vhHc8F5f+/3OL/4+U9z8u+6/kfNpIkTc+fEibnzzjty6p//lG222z5f+99vZ5lllun3fWf458UX5atfPrZTEDTz/pMm5b57780l/7w4jz76aD75mc8O2H376s47bs8+e+8xZPcfKiuvsupQTwHohd98/T3Z89Uv7/c4n3zPa3LYO3bu8tzSS4zK0kuMyibrrpT37Ll9Lrjy9hz42RPzxPhn5jjumOWWzPc/u0/etMsmLzq3yoqjs8qKo7PtpmvmoD23y5hdj+r319GV971tx07hVZNcdMLHssWGC9aft3c/8MRQTwGgkQRYPSil3JNk9ST31lrX6OL8QUl+2T58T631hL6OMdRKKbXdvLjWuutQzqU35rX5MjSmT5/e6XippZbKUksvnfvuvbfPY40YMSIbjt0oG260UVZbbfWMXmaZLLTQQhn31Lj866Ybct6552Ty5Mm56orL8773vDu/OflPWXTRRfv9NZz2l1Ny7Oc/l+nTp6eUku132DHbbrd9ll9hhZSUPPHE47ntllty6SX/6Pe9+mv2X+/hw4dnjTXXyoMP3D9z1dvcGL3MMvnc54/t7/Tm6J37HZBXvuo1c+w3bty4fOkLn0uSDBs2LG/Zc6/BnhowAIYP71yE+Mnxz+SpCc9k3dVf1uexpjw/Ndffdn+uv+3+3HX/43li3KS8MHValhu9eLbZZI3s/ZrNMmrRhfOqbdfPOT87PDse8O1MnvJCt+OtNmaZnPV/H8paqyyXJLnz3sdy+oU35fZ7HsukZydnqSVGZoM1V8xrt98gY5Zfqs/z7Y1VVxydLx/+liTJpGenZPFRiwzKfebW8GGdf/8efmJCnn9+alZfadl+jfuFH/8tt/7n4R773PDvB/p1j1v/83D2+fjPe9X3c4ftnk3WXSlJcuLpV/brvjBQlHCnaea7AKtDwNFXo2ut4wdyLkOhlPKFdvOergI1WBBsvPEmWXPNtbLhRhtl7NiNs/Iqq+T0U/+cz/9P31Yp7f/u9+SIj30iI0eN6vL8Pvu+Mx/40OE57JD35v7778t//3NXTv7tb3Lgew/u1/xvuO66meHVimNWyre/+/2M3WjjLvtOmzYtTz459z+pnbF9bsxKK+XMcy+YqzFGjVosb3rLHtlw7EYZu9HGWX+DDTNy5Mg+bwWc3aKLLppXvnrOwVJ/bTh2o2w4dqM59jvpVyfMbG+73fYZM2alQZwVMFCuvvm+/PvuR3P9bffnutvuz70PPZX937xNjv/Cfn0a53u/uShHf/+MPDv5+S7PH/+nS/Ol/zsrZ/7kg1l71eUzdu0x+cA+O+W4X3f9Z+uIhYbnT8e9L2utslymTZueo79/en7w24syffqL/1f2M8clq6ywdJ/m21s/PPodWXLxRXPtrffl9rsfzbveuPWAjNtx+9xu7/9B/nntXXM1zsVX35m/Xnxz6/fv1vvy8BNP93krYFcuu+G/cz2n3npy/DM546J/zbHf8qMXz/prtALVadOm56QzBFgAXZnvAizy+fb7xUlOGMJ5wJA5+P2HDcg4q6w65y0LK628So448hP5xMc+kiS5+OIL+xVgvfDCCznmf47K9OnTM2rUqPzs/52QVVdbrdv+w4cPz8tetsJc328grLraavnSV78xpHN4KZz2l1Nmtvfc+21DOBOgL775y/5vKU+Sex58co597nv4qRz9vdPz+2+1/h7YfeeNug2wPvXe185ccXPMD8/I9066sMexH3h0fN8m3AsHvHnb7LbDhnlh6rR88Eu/z4fftcuA36O/Pn3cqUM9hUH3rjduPbOm198v/3cefGzCEM8IoJnm9wCrL/s75lykYC40cdtgR7VWK0Ohn9ZeZ52Z7SefeLxfY53/93Nz/32trY77v/ugHsMrXjo3/+um3HXnnUmSpZdeOq989auHeEZAU93630dmtldYdsku+yy6yIh8cN9WPa17Hnwyx/265/BqMKy43JL5xpF7Jkm+d9KFuemOB1/yOdDy7rdsO7N94mlXDOFMAJptvg6waq2nDvUcgPnf/ffdN7O97HLL92usU/88a5XPG9+y4BVGb6qOvy+7v+ktGTFi4SGcDdBka6+63Mz2o08+3WWfPV+1aZZZarEkye/Puia1zm0FjLn3/aPentFLjspd9z3e66f4MfC22Xj1jF17TJLksacm5q//mPOWQ3iplGKtA80yXwdYAIPtqSefzPe/++2Zx6957W5zPdbUqVNz443XJ2mt8llttdXz+OOP5bcn/ToXX3hBHn74oSw0fHhWWHFMtt5m2+z7rv2y+hpr9vtraKoJ48fn0EPek7vuuCNPP/10FltsVFYcs1I222KL7LHn3r2qWzUQJk+enHPOPnPm8Z57v/UluS8w71l+9OL50uFvnnn8l/Nv7LLfK7aYtXL36pvvTSkl+79pm+z3pq0zdu0xWWLUInli3KRcc8t9Ofnsa3PqBV2PM7f2ed0WefOumyZJPvzVk3ssND+/OuawN2TM8ktlpeWXyrTpNU+Mm5Trbrsvf7345vzx3Osyder0OQ8yAN69x3Yz278785qX7L4A8yIB1iDrxZMMv5BZdateWWu9qJTyqiSHJdk2yQpJJiS5Jskvaq2nzD5Ge5zZf3S3SzcF7Ts9LbEvT/UrpayR5JAkr0qydpLRSaYkubc9v78mOb3W+qLqpqWUzZO8IcmOSca2v67hSZ5K8q8kf0vy/2qtk3qaAwyVhx58ILf/+99JWk/dmzBhQm695eacc/aZmTRxYpJkx512zj77vmuu7/Hf//wnk597LkmywopjcsVll+YznzwyEyZ0roUx6a4785+77swfT/5dPvSRj+Y9B7+v2zEvv/SSHp8E+MjDrScwTZ48OReef16P89tsiy0zevTo3n45/fbss8/mqisun3k8YcKETJgwIbf/+7ac/NvfZLfX757PfeHYLL744oM6j/POPWfm7/FGG2+Sdddbf1DvBzTfamOWycvXXzlJMqyUjF5qVLbYcLW8/XWbZ+klWg/+OPuSW/PTP17S5fVbjJ1VY3His1Py9+MPz46br92pzyorjs4qK47Onq9+eS6+5s6861O/yFMTnu333JdberF865OtIP6EU6/IxVffOVfjrLfGy7L+Gt3XYJyxqihJdthsrSy9xMhu+97/yLh+P/GvrzqGiEmy+KhFssbKy2bv12yezx36hhx09K9y1c19f3pxX4xcdETevtsWM49POPXyHnoDIMBqmFLKt5McOdvHL0uye5LdSymnJtm31jrlJZzT8CRfTvLxJCNmOz0iyUbt14FJPprke7Ndf0ySL3Yz/Irt12uTfKqUslet9aoBmzwMkEsvuSRf/dIXujy34piV8vZ37JuD3ntIhg0bNtf3eOKJx2a2x417KkcecXiee+7ZrLvuennjm/fImJVWyrhxT+WC88/LVVdcnmnTpuX7x307Cy20UA448D1djvmlLx7TqycBjnvqqRx5xId77HP8L07MVtts22OfgbLccstnux12yAYbjs2yyy6XmpqHH3ool17yj1x3zTVJknPPPjP333dv/t8Jv+72SZEDoXPxdquvgGS3HTbMDz67T5fn7nv4qRz/p0vz7RPP73Zr4IrLzaqN9YPP7pP111ghT0+anBNPuyLX3XZfkpJtN1k9B7xl2yw2cpHsstW6Of0HH8gr3/vdvDB1Wr/m/t3PvD3Lj148jzzxdI767qlzPc7bd9ui108C/MIH39jj+V+fcWXe/4XfzvVc+mLylBdyyfX/yRU33p3/PvBEJk95IcsuvXi22WT17P2azbLYyEWy5irL5dzjP5I3fejHueS6/wzaXPZ+zWZZcvFFkyRX3nR3/n33o4N2L4D5gQCrWQ5PsndaK65+keTatFYp7ZhWOLRIkj2T/DbJ7P+KmlGw/i/t91uS/E8X97iuLxMqrY3Pv0vy9vZHNclZSf6e5KH2nNZJsmuSVyTpaqP0qCTTklyV5NIkdyQZn9bXtkaSN6X1Na6U5KxSyma11vv7Mk8YKsOHD8+2226XzTbfol/hVZI8PWFWrZTHHm39T+wee701n/vCsRk+fPjMc+9453753W9+nf/92leSJN8/7jt5zW6vy5gxK/Xr/k3x5a/9b7e/nu895P257NJ/5qhPfiJPPz0ht916S4779jfz2c99vouR+u+B++/PtddcnSRZdOTIvH73Nw3KfYD5w9Sp03LhVXfk8hv+22Ndq9FLzArd119jhdzz4JN53aE/zH0PPzXz89+fdU1+fPI/c85PP5wxyy+VLTdaLUfs/8p864SeV8v25C2v3DRvfe3mSZKPf/OUjJ/43FyPNS869YIb85OT/9HlSrafn3Jp/uf7Z+TEr747u269XhZZeKGc9PX3ZOM9v5RJzw7Oz40PfMus7YMnKN4OMEcCrGbZO8mdSV5Va+24jvpXpZQfJLkgyfJJ9i6l7Ftr/f2MDjMK1ncotPfEABWx/1hmhVePJtmz1trl37CllDXT2lY4u1OSfL/W2t0ykK+XUvZPcmKSZdLaUnlIv2YNA+zt79g3b3/HvkmSF154IU8+8USuv+6anPSrE3PaqX/Oaaf+OfsfeFA+euQnO4VNfVFr57oXq662eo4+5vNdjvfO/Q7INVddlQvO/3umTn0hf/z97/KRj338Rf3OPLfrx7fPcMzRn8kZp52aMSutNMe+L5Utttyqx/M77LhTvnnc93LowQclSf5yyh/zvsM+kOWXf9mAz+W0v5wy8x+hr37NboO+XRGYN/z8lEvz81MuTZIstNCwrLjsktlx87Vz+Lt2zYF7bJcD99gu3zvpwnz2e6dl+vQXB1nDhnX+ed9hX/pdp/BqhjvvfSyHf/UP+dNxra3iH9x357kOsJZeYmS++5m3JUnOuOhf+fN5N8zVODN85Wdn91j8fact18m5Pzs8SbLb+3+Qf157V7/uNxBuuevhHs8/9tTEvPWjx+fSkz6eDdZcMSssu0Te99Ydc9yvB/7vx7VWWS47bdnaxjjp2Sn507nXD/g9oL/696NZGHjz9fdkKaX28nXCUM+1bXqSfWYLr5Iktdab0znU+dRgT6aUsliSz7YPp6WH8CpJaq1311pftMKr1np1D+HVjD4npbWyLEneWUqZfatin5VSFimlLNnxNWXKS7bzkvnYiBEjsuKYMXnDG9+cX/325LzxTW9Jkpx04gn58Q++N4eruzdqscU6He+x5149Pu3urfvM2r5y9VVXzvV950XbbLtdtt1uhySt4veXXfLPAb/H9OnTc8Zpp848tn0Q6MrUqdPzwKPjc/LZ12bng76T3/6ttWrziP1fmc9/oOutcxOfmfX/I3fe+1iPdaj+9o+b89Bj45MkY5Zfqse6Uz351if2zpjllsqESc/lY9/441yNsSB4dvLz+cb/O3fm8Rt2GpwHhhzYoXj7n8+7YdBWeQHMT+brAGsedG6t9YbuTtZaT09ye/tw81LKWoM8nzckWbbdPq2n8GqAzKh0OirJpgMw3lFpbcec+frWN742AMPCLMOHD89Rnzsmiy+xRJLkN78+MROf7vqx6XOy5JJLdTrecKOe/6d57EYbz2w/cP99c3XPednW22wzs333f/874ONfftmlefTRR5K0VsNtudXWA34PYP4yfXrNEV//Y8ZPbG1RO/xdu2SpxV9cvHzG+SS5/rY5V024vkOB87VWXa7P83rdjmOz35taf2Ye88O/5sHHJszhigVbx0Bx/TXnLjDsybBhJfu/adbfKSfaPgjQK/P7FsK95twlSdKUf/n1Zk34eUlmPAJrmyQD/6+2WXbq0D6tPwO1a2m9IcnbkmyZZNUkS6T778FV0qoB1h9fS/Kdjh984tNH+T82Btxiiy2ezTffIv/8x8WZMmVKbrrpxuz4ip3mfOFs1lizcya9+OJL9Ni/4/lJk57p8/3mdaOXWWZme+LEuQsNe3Lqn/80s73HXnt33KIN0K1Jz07JZTfcnd132igjF10422yyev5++b879bn9nsey9qrLJ0kmTOr+SbEzPN2hz5KLLdrnOb13r+1nzm2ZpUbl0wfv1mW/jdedVUvxjTttnJVftnSS5Oqb780FV97e5TXzo8fHz3oodk9PT5xbu+2wYVZq/9refs+jueyGwfzfeYD5x3wdYA1QDaiXUm+eY9yxz2BXbF6lQ/vWuR2klLJikj+lVai9t5acc5eetZ/U2Gk99rMvdF9QFfqj4/a/p5+eu5x09OjRWf5lL8vjj7WeRjhp0sQe+3c8v/gSC15tpnHjxs1sL7FEv//I6GT8+HG5+MJWzZPhw4fnzXvsOaDjA/O3Sc/MCpxGL/nip6T+644Hs3t7a9pSi885kFqyQ58Jk/peeH1G/r74qEW63dY4uz1f/fLs+eqXJ0l++NuLFqgAa7mlZ/2dOhiF7jsWb/+V1VcAvWYLYbP0ZglFxz49L8/ov47/IpzUba8elFIWSnJ2ZoVX45L8KsknkxyQ1oqsvdqvH3S4dO6qYMMQue/ee2e2R49epoeePXvFTrvMbN92yy099r31lptnttdYY825vue86poOdb9WH+Cv/8wzzsgLL7yQJNnxFTvlZS8b+C0kwPxr7dWWn9l+fNyL/xfqnEtn/Vxw8w1XneN4m28w62eKd9zzWD9nx5zsstW6M9t33juwv97LLb1Ydt+5FV6+MHVaftOumQZNVEpZYF7MG+brFVjzoMXm3KVTn56XZ/Rfxz05c7u84x1JXt5un59kr1prl/Mupaw8l/eAIXXLv/6Vf9/W+sfIiBEjstHGm8z1WLu/6c35yymt4rqnnfqXvPs97+22kPspf/jDzPaOr9h5ru537Fe+nmO/8vW5unYoXXP1Vbni8suStFZI7bhT37ds9uTUv5wys73n3m8b0LGB+duWY/9/e/cdr0lV3w/88xUp7kq1I0gRUREVUIEEC5qoCAZBo6KiYmLLL0YRjdHECJqosSbGEkvUtTcMoDFgBCOWSBGMgEhTQGnSi5QVlvP7Y2bZ515u33Jnd99vX/O6M8+cOXOeh/vy7v3cc77zgDsCp8W/vy2nnHnnShU//tn5Of+iK7PNFvfMg7a6d57wmAdNWsh9n8fveMdys/N+fUV+ddGVsx7Tc173yRm1+/hhz88L/2S3JMnLDvtCPv/Nk2Z9r6V+cMp5udujXjPn6+fLBuuvmzf82ZPvOD76B1P/MWm2nr/PY7Leut2vYMf88Of57VUr+5/zAGsOM7CGZbtZtpnyyX4rwOjTEHeYYx+jRRYOniy86q19U0gYrLPPOitf/Nxnc9NNU0+MPOP003LIwa9Ka93y1L33+ZNsuOHEkyP3fsqTsvOOD8nOOz5kzOyhUY9+zK75gz/sJiz+5tcX5h3/8Lbcfvvtd2r35S9+Pt897jtJkoULF+bZBxww4/c2ZJ/42L/lvHPPmbLNiSf8OH/92lffcbzfM5816Qypj374g3d85m/5uzfOaAw/P+P0nHtOt1TmHve4Zx73hD1nNnhgjfXwB22ev3zeE7LwbpM/GTZJHv2wB+Qr7/3z3OUu3T+xv3z0T8bUrxp12Ee+dcf+R//+eXnA/e48e3e7B9wr//qmZ99x/L7PTFwu9e9evlduPuUDufmUD+Tjhz1/2vezNtr7cQ/Lnz5556yzzuS//txzk4X52vtfmh0eeL8k3ey5jx/+wwnbPuB+m93xmd98ysyfQPzCfXe7Y3/RkZYPAsyGGVjD8uSMKzo+gT8e2Z/oN+CWpPpteX0/ydLfEp+RbunfbN13ZP+8adruNYf+4U4uvuiiMQW4k+Scc5bV7jjrF7/Ih//1X8acf8xuu2fX3ZbVpLjh+uvynne9Ix/8wPuz6267Z4eH7Zj7bb55FixcmMW3LM4ll1ycn5x0Yk4+6cQ7wqsHbvegvPav37Dc4/+7t7w1Bx34vFx55RU58j8Oz8/POD1P/5N9c7/N759rrrkm3z32OznxhP+9o/2hb3t7Nt54kwn7+vGPfphbbpm+QPBM7LTLo7LppptOeO6Irx+eSy6+aMxrN9ywLK/+7Gc+nQ3HFaX/y1cffKd+jv3vb+cjH/xAHvSg7fOox+yabbZ9YDbeeOO01nLZZZfmRz/4fn5y8rIZAQ/dYYe89vXL/5mPOuqI/7hj/+n7PiN3vasflbA622rzzXLQM3Yf89posfJHPniLHPoXe485/72fnDtmRtQmGy3Ie1//zLztVU/P/5x0Tk498zf59WVX53c3Ls4G66+brTbfLE949IPyhEdvd0d49fPzLs2b/mXyZ+B89dunZp/H75jn7PWobH3/e+TkL/9NFh3545z6i9+kKtl1x63zomfsloV3Wz9J8p/Hnz6owGP7re+dB2+9YpZX/+aya/J/Z1004blHPvj+2e9Jjxzz2mN3eeAd+3s+5kG567hQ6sjv/iw/O/viMa9tu8U9857XPzNXXXtjjj3hrJx29kW55Irrs/j3t2bTjRZk14dvnWf+8U7ZsC+Sf8viW3PgGz+dG24cU051uTz6YQ/Ijtt133uXXnFdjvnRnEvMAqyV/Kt8WJ5cVY9orZ020cmq2ifJQ/rDU1tr50/Q7HfpamPNZDnidI5OcmWSeyZ5RlXt3lqb7b+cRqevbJfkjIkaVdVzkzxsTqOEcS695OL8+8c/Oun5c885+44ZNkuts846YwKspW655ZZ8//jv5fvHf2/Ke+619z75m79986RB0mzcf4st8m+f+GTe8LrX5vxf/TLnnnN2/vl977lTuwULFuTQt709T37q5NnvP7z1Lbn0khUzWfMTn/pMHr3rbhOe+9Y3j8opP5m8jsdXvviFO702UYC11LnnnpNzp5mJtfc+f5I3vvktWbhwxRWwX7x4cY45etmsiGfs/6wV1jcwPx5wv83yxpc+ddLzj9j+/nnE9mOrGNy25PYJl/Qt2GC97PP4HbPP43ec8p5fOeaUHPLuw3PN9TdN2e7PD/18brrl1hy03+7Z6O4b5NUHPnHCdp//z5Pyqrd/Zcq+VrVnP2WXvPkVT1shfX3umyfm5Yd9ccJzD9/+/lP+93vsLtvlsbuMXcTwy4uuvFOAtdQ9NlmY5+71qDx3r0dN2ue5F16el77l8znpjAsnbTMXLx4JUj//nyfl9ts9XIhhUxmKoRFgDcs6Sb5aVU9qrY35jbOqdkgyWsDg3ZP0cX6SRyR5SFXdrbU250entNZuqqq3J/nnfmxHVtV+k4VYVbVVks1aaz8defnkdAXak+TtVfXM1tqScdc9McnH5zpOWBl2efRj8tkvfiUnnfDj/PyMM3LB+b/K5Zf/NrfcckvWXW+9bLjhhtlmm23ziJ12zl5775MHPnAmK4BnbrsHbZ+vfP2IfOPII/Kdb387v/rVebnm6muyYMGCbLX11tnjsY/Lsw94fjbbbO4F44fo7f/07px6yik5/bT/yy/POzfXXH1Nrr3u2ty+ZEk23HCjbLHlltl5l0fl6c/Yb4V/5kly3Hf+Ozdc35X/e+ROO2ebbbdd4fcAVj8/PPWXefyL3589H7N9Hv2wB2T7re+dze+1SRZssG4W33pbrrvh5px9weU54bTz89VjTslZ5/92Rv3edtvt+Yt/+FI+980T88I/2S2P3eWBud+9umfoXHrF9fnRT3+ZRUf+OCecdsFKfHdrhy/+18m55Irr8pgdt8ouD90y97vXxrnHJguz4cIN8rubFueyK6/PqWf+Ot/83un55vGnr/BwaYP1182zn7rLHcefOWriUgIATK6WLn1ZU1TV6Bvaf9KGd3Zia+3ScX1dkGSrJBe21rae4F4HJfl0f/iS1tqiCdpM18dhSQ7tD7+e5FlJrk0XVp2aLjj6wyQHJVn6DOX/aK1NOC2gqt6X5JD+8Lh0y/6uSLe0MElOb61dPNJ+6evHt9b2nKC/SvLVdE8LTN/PfyX5TpJLk6yXZNskT+i317fW/mXk+nunWzq4dO3Qz/sxXZhk0yRPTbc88fYkX0pyYN9uss9zyvFO56Zb17BveABWqnvsfvB8DwGA1dDNp3xgtZ/AdORpl601vzvt94j7rvb/vdYGa/oMrCNm0Xb/JEeupHHM1IeSXJDkdf02kaOSvGCKPt7Xn79Pkj/qt1EvSbJopgNqrbWqOiDdjK/XpAvU9um3iYypNt1au7xfHnh4kgXplgm+a9w1NyV5Zd/3gQEAAAAY4SmEA9Nae326Qu1fS/KbJL9PN4PqmCTPbq3t11qbtCJzv/Rwl3TF4E9LckOWzb6a65iWtNZel+5JhO9JNzPs6iRL+v7PSPKpdDOpPjLB9UcneWS6ZYLn9+/puiRn9uPcqbX2ueUZIwAAALDmWuNmYLXWVtjUv4mW/I07vyjTzGaaro9Jrjku3fK/OelDrMlmcI1vO+PPq7V2TpI5Pe6rtXZekldM02ZRpv88Te0EAABYycpvXgyMGVgAAAAADJoACwAAAIBBE2ABAAAAMGhrXA0sAAAAYPncJYpgMSxmYAEAAAAwaAKsedZaO6y1Vv32vfkeDwAAAMDQCLAAAAAAGDQBFgAAAACDpog7AAAAMEap4c7AmIEFAAAAwKAJsAAAAAAYNAEWAAAAAIOmBhYAAAAwRkURLIbFDCwAAAAABk2ABQAAAMCgCbAAAAAAGDQBFgAAAACDpog7AAAAMEap4c7AmIEFAAAAwKAJsAAAAAAYNAEWAAAAAIMmwAIAAABg0BRxBwAAAMa4S1RxZ1jMwAIAAABg0ARYAAAAAAyaAAsAAACAQVMDCwAAABijlMBiYMzAAgAAAGDQBFgAAAAADJoACwAAAIBBE2ABAAAAMGiKuAMAAABjKOLO0JiBBQAAAMCgCbAAAAAAGDQBFgAAAACDpgYWAAAAMEZFESyGxQwsAAAAAAZNgAUAAADAoAmwAAAAABg0ARYAAAAAg6aIOwAAADDGXdRwZ2DMwAIAAABg0ARYAAAAAAyaAAsAAACAQVMDCwAAABijoggWw2IGFgAAAACDJsACAAAAYNAEWAAAAAAMmgALAAAAgEFTxB0AAAAYo9RwZ2DMwAIAAABg0ARYAAAAAAyaAAsAAACAQRNgAQAAADBoirgDAAAAY1RUcWdYzMACAAAAYNAEWAAAAAAMmgALAAAAgEFTAwsAAAAY4y5KYDEwZmABAAAAMGgCLAAAAAAGTYAFAAAAwKAJsAAAAAAYNEXcAQAAgDEqqrgzLGZgAQAAADBoAiwAAAAABk2ABQAAAMCgqYEFAAAAjFFKYDEwZmABAAAAMGgCLAAAAAAGTYAFAAAAwKAJsAAAAAAYNEXcAQAAgDHUcGdozMACAAAAYNAEWAAAAAAMmgALAAAAgEFTAwsAAAAY4y6lChbDYgYWAAAAAIMmwAIAAABg0ARYAAAAAAyaAAsAAACAQVPEHQAAABhDCXeGxgwsAAAAAAZNgAUAAADAoAmwAAAAABg0ARYAAAAAg6aIOwAAADCWKu4MjBlYAAAAAAyaAAsAAACAQRNgAQAAADBoamABAAAAY5QiWAyMGVgAAAAADJoACwAAAIBBE2ABAAAAMGgCLAAAAAAGTRF3AAAAYIxSw52BMQMLAAAAgEETYAEAAAAwaAIsAAAAAAZNDSwAAABgDCWwGBozsAAAAAAYNAEWAAAAAIMmwAIAAABg0ARYAAAAACtIVS2qqjayHTbD67arqvdU1RlVdV1V/a6qzq6qD1fVTit31MOniDsAAAAwliruc1JVT0vy4jlc9/Ik/5LkbuNObd9vr6iqt7XW3rbcg1xNCbAAAAAAllNVbZTkY/3hjUkWzvC6A0euuz3Jl5Mcl+S2JHukC8TWT/LWqlrcWnvXihz36sISQgAAAIDl954kWyb5TZYFUlOqqnsl+XB/eHuS/VtrL2itfaq19tnW2iuS7Jnkpr7NP1bVg1fssFcPAiwAAACA5VBVT0rysv7w/yW5YYaXvj7JRv3+h1tr3xjfoLV2QpK/7w/vmuTQ5RjqakuABQAAAIxRa9H/lvuzqlqQ5BPpKod9pbX2n7O4/Lkj+/88RbtPpFuWmCT7VtX4WllrPAEWAAAAwNy9M8m2Sa5O8pqZXlRVOyTZqj/8RWvt/MnattZuSPKD/nBhkifMbairLwEWAAAAwBxU1R8meVV/+PrW2m9ncfnDR/ZPnkH70TYPn7TVGkqABQAAADBLVbVBkk+ly1aOa619epZdjBZjn3T21SRt1rpC7gIsAAAAgNl7W7og6eYkr5jD9ZuM7F85g/ZXTXLtWuGu8z0AAAAAYFhq+Wubrzaqav0k6497eXFrbfEU1zwmySH94aGttV/O4dZ3H9m/ZQbtbx7Z33AO91utmYEFAAAArM3elOS6cdubJmtcVeulWzq4TpJTk7x/FYxxrWcGFgAAALA2e2fuHEJNOvsqyZuT7JhkSZKXtdaWzPG+vxvZ32AG7e82sn/DHO+52hJgAQAAAGutfqngVIHVHarqkUne2B++v7V26nLc+tqR/XvOoP09Jrl2rSDAAgAAAJiZg5Ksm+T2JLdW1Zsnaff40f2Rdme31r62dH+kzTYzuPdom7MnbbWGEmABAAAAY6xFNdxna+lHc5ckfzvDa57Yb0lyVJKlAdbpI20eM4N+RtucMcN7rzEUcQcAAABYxVprZyb5dX/40KraerK2VXX3JI/rD29KcvzKHd3wCLAAAAAAZqC1dnBrrabbkrx15LK3jpzbb1yXXxnZP2SKW788ycJ+/xuttZuW/92sXgRYAAAAAPPjvVn2RMG/rKp9xzeoqt2S/EN/eFvGhmNrDTWwAAAAgLEUwVolWmuXV9VfJVmUbpLREVX15STfSbIkyR5JXpxkg/6SQ1trZ83HWOebAAsAAABgnrTWPlNVC5K8P11Q9fx+G7Ukydtba+9Y1eMbCgEWAAAAwDxqrf1bVR2b5JVJ9kqyZboZWZckOS7Jx1trP53HIc47ARYAAADACtRaOyzJYbO85twkr+s3xlHEHQAAAIBBMwMLAAAAGKNUcWdgzMACAAAAYNAEWAAAAAAMmgALAAAAgEFTAwsAAAAYo5TAYmDMwAIAAABg0ARYAAAAAAyaAAsAAACAQRNgAQAAADBoirgDAAAAY6jhztCYgQUAAADAoAmwAAAAABg0ARYAAAAAg6YGFgAAADCWIlgMjBlYAAAAAAyaAAsAAACAQRNgAQAAADBoAiwAAAAABk0RdwAAAGCMUsWdgTEDCwAAAIBBE2ABAAAAMGgCLAAAAAAGTYAFAAAAwKAp4g4AAACMUWq4MzBmYAEAAAAwaAIsAAAAAAZNgAUAAADAoKmBBQAAAIyhBBZDYwYWAAAAAIMmwAIAAABg0ARYAAAAAAyaAAsAAACAQVPEHQAAABhLFXcGxgwsAAAAAAZNgAUAAADAoAmwAAAAABg0NbAAAACAMUoRLAbGDCwAAAAABk2ABQAAAMCgCbAAAAAAGDQBFgAAAACDpog7AAAAMEap4c7AmIEFAAAAwKAJsAAAAAAYNAEWAAAAAIOmBhYAAAAwhhJYDI0ZWAAAAAAMmgALAAAAgEETYAEAAAAwaAIsAAAAAAZNEXcAAABgLFXcGRgzsAAAAAAYNAEWAAAAAIMmwAIAAABg0ARYAAAAAAyaIu4AAADAGKWKOwNjBhYAAAAAgybAAgAAAGDQBFgAAAAADJoaWAAAAMAYpQQWA1OttfkeAwDzqKrWT/KmJO9srS2e7/EAMHx+dsCa7+zLblprwoIH33eBuG41IMACWMtV1UZJrkuycWvt+vkeDwDD52cHrPkEWAyNGlgAAAAADJoACwAAAIBBU8QdAAAAGMOaOobGDCwAFid5a/8VAGbCzw4AVilF3AEAAIAxzlmLirhvr4j7asEMLAAAAAAGTQ0sAAAAYCxzkhgYM7AAAAAAGDQBFsBarKoOqqrWbwfN93jGq6rDRsa353yPB2BVqKoL+v/fu2CS89P+f/d0fcy3kfF/b77HMhOr23gB1kSWEAKsQlW1U5IXJfnDJA9MsnGSJUmuTXJBkp8nOTnJsa21X87LIAGYtaqaa7HjTVtr167IscyHqjqs372gtbZoHocCwBpKgAWwClTVwiQfTXLgBKfXTXLffts9yZ/31+zdWjt6lQ0SAObu0P7r8UkWzeM4AFhDCbAAVrKqumuSo5M8rn/ptiT/meQHSS5J0pLcM8nDkzw+yUP7duus7LH1fyVftLLvA7CW2X8WbW9cGQNorW29MvpdUVprykPDwJUq7gyMAAtg5fuLLAuvLkiyd2vtF5M1rqoHJXlpumWFAKxmWmtHzvcYAGBNI8ACWPleOLL/F1OFV0nSWjs3yd+s3CEBAACsPjyFEGDle8jI/vHL29n4J0tV1QZV9Zqq+nFVXVFVN1fVeVX1kX4211R9zeRJVmOevFRVm1TV31TVCVV1eVXdPv6pTFW1YVUdUFUfq6qTq+rqqrq1qq6tqjOr6hNVtevyfhYATGwGTzK801Neq+pJVfXVqrqwqm6pqt9W1beq6llT3KeNK2D/hJF+R7eDJrpuJk/1q6qtq+ofq+p/+zH9vqpuqKozqmpRVf1pVa03ybU7V9Xf9u/j/Kq6qaoWV9WlVfXf/c/Pu083BgDmnxlYACvf6P/X3ifdMsIVoqq2SFdP65HjTj0w3dLFl1TVK1trn1lB99s5yZFJHjBFm/WSXJ5kgwlOb9xvD03y0qr6WJJXtdZuWxHjA2Buqup9SQ4Z9/K9k+ydZO+qOjLJAa21xatwTOsk+cckr0v3wJNR6yZ5WL+9OMnBST4w7vq3JHnrJN0vfXjKk5O8oar2b62dtMIGD2uAUgKLgRFgAax856Ur0J50/8A+eAX1u26Sr6ULr/4vyReS/DpdSPan6QrCb5DkU1V1bWvtqOW83z2SHJVkyyTfSfLNJL9N9wvAvUfa3aW/72+THJfkZ+mK1d+cZNMkj07ynH7/FUmuT/KG5RwbAHP3V0memeS6JJ9Kckq6B4nskS4cWj/Jfkm+mGT8bKylBeuP6L/+PMmbJ7jHqbMZUFVVki8leXb/Ukv3QJTvpPuZsn6S7ZLsmeSxyYTVphckWZLkpCQ/SnJOuvqS6yTZOsnT073HzZMcXVU7tdZ+M5txArDqCLAAVr4vJnlnv/+aqto+ySeT/E9r7erl6HfzfvtQkoNba0tGzn2wqt6Q5F3pAqWPV9X/tNauX4777ZjuF4EDW2tfmKLdren+Yv/t1trtE5z/96r6u3QB2B8kOaSqPtxau3A5xgbA3D0zyblJntRau2jk9c9W1QeTfDfJvZI8s6oOaK19eWmDpQXra9lUjStXUBH712ZZePXbJPu11k6YqGFVbZPujyLjfT3Jv7bWLpnkHv9UVQcm+UySzZIcmu4hKgAMkBpYACvfvyT535HjpyU5PMlVVfWrqjq8qv66qnatmvVk7Z8kec248CpJ0lp7d5b9RfzeSQ6a9cjv7EPThFdprS1prR09SXi1tM1VSV7UH66T5MAVMDaAQZikBtRE26L5Hmvv9iTPGRdeJUlaa2dkbKiz0mfMVtXCJH/bHy7JFOFVkrTWzm+t3WmGV2vt5CnCq6VtPp/uD01J8ryqGr9UEYCBEGABrGSttVuS/FGS9ya5adzpbdItx3h3khOTnN8XlJ3pP6DfO1VQ1Pe71J/OsM+p/OsK6CNJ0lo7L8ll/eHuK6pfAGbtv1tr/zfZydbaN5Kc3R/uXFXbruTxPC3dsvUkOWqq8GoF+WH/dUGSR6zkewEwR5YQAqwCfYj111X1jnR1RJ6cLrTZZlzTrdLN2HpeVe3Tz1SayrHTnD8xyQ1JNkzyqKq6yzSB11Quaa39aqaNq2rzJC9MF97tkG55x4JJmm8xxzEBDNH+0zdJ0tUtHILpfpYsbfPgfn/XJDP+eTAHjxvZX676jf3M5qel+yPOo9LVcdwwk/8etEW6GmCw1lPDnaERYAGsQq21a5J8ut9SVUuLmj8xyQuy7Ol+u6Vb0vDUKbq7ZrqAq7XWquqXSXZKFx5tkmSudbfutLRkMlX1iiTvz+SB1XgbzWlEAAO0gmpArUrnzrLN5itrIL3RP2qcOddOquq+6Zbs7zGLy/w8AhgoARbAPOoDre8k+U5VHZpu9tX/608/par2aK39aJLLb5zhbUbbbZi5B1g3z6RRVT07yUdHXvpxkuOTnJ/uCVejj2D/eLrCwOvMcUwALL+Z/DwZ/7NkZRoNkX43lw6q6q5Jjkn3pN4kuSbdw0NOT7d8/eZ09bWS5EnpnsSY+HkEMFgCLICBaK3dWlWvSfdI8B36l5+c7tHfE1k4w65H290wt9HNyjv6r0uS7N9a++ZkDavqE6tgPABMbSY/T1blz5LRJ+befY59PDfLwqvj0v08mnDcVXX/Od4DgFVIEXeAAWmt3ZbkeyMv3W+K5ptW1WZT9dfX/lhabPemJNcuz/im0z/KfLv+8MhpwquN0j22HID5td30Tca0mfLJfivA6JL1HSZtNbWnjOwfPFl41RtfjxKAARJgAQzPrSP70y2dePI053fNsqUYP1mOAu4zdd+R/fOmafvU+DkEMATT/SxJkj8e2T9xgvOt/7oi6j5/f2T/GXPsYzY/j/aa4z1gzVZr0cZqwS8OACtZVd1nFm3XTfe0pKVOn+aSQ/pZVpN5/cj+4TMdx3IYrZEy6V/0q2q9JG9e+cMBYAaeXFWPmOxkVe2T5CH94amttfMnaLb0Dy4zXd4+laOTXNnvP6Oqdp9DHzP9efTcJA+bQ/8ArGICLICV7ydVtaiq/mCqRlV193RPJ9y+f+m6JN+Ypu9dk/xzVd3p/8+r6pB0jw1PksuTfGZWo56bs7Lsl5h9J3rPVXW3JJ9PMukvSwCsUusk+WpV3enpglW1Q5JPjrz07kn6WBpqPaT///k5a63dlOTtI2M7cqoQq6q2qqqdx7188sj+26vqTsXZq+qJ6R4mAsBqQBF3gJVv3SQvTvLiqrow3RP5/i9dqLQ4yT2S7JzkmemeyJd0SzFe3Vqb6omBlyT5dZLXJHl8VX0hyW+S3DtdcPWEkb5e3lq7fsJeVqDW2u+r6iNJ3pDufR9fVYuSnJTur+E7pPsstkxXVPfBGfu4dIDVXlXtN4vmJ7bWLl1ZY5mhryd5VpKfV9Unk5yaLjj6wyQHJdmgb/cfrbWvTNLHsen+MLEwyTer6rNJrsiypYWnt9YunsWYPpBkj3Q/z+6T5H+r6r/SPbn30iTrpavx+IR+e32Sn45c/8kkb0r3xMR9k/ysH9OFSTZNt4z9GUluT/dHlQNnMTYA5oEAC2Dl+1m6+iKVZKskL+q3yVyW5K9aa9Mt+bs13T/sv5UuABv/1+ekC8he2Vo7araDXg5/n+6XmL3ShVgv67dRx6d7QtQpq3BcAKvKEbNou3+SI1fSOGbqQ0kuSPK6fpvIUUleMEUf7+vP3yfJH/XbqJckWTTTAbXWWlUdkG7G12vSBWr79NtExtR4bK1d3i8PPDzJgnTLBN817pqbkryy71uABeOU4lAMjCWEACtZa+2p6WYZvSTJvyc5Iclv04VLt6V7MuDPk3wpyQuTbDeD8Gpp3xcn2T3JwX2/V/X9/irJR5M8vLW2aIW9mZmN6ffpfsH483SFeK9L8vskFyc5Jt0MrCe11q5aleMCYHKttdenK9T+tXSzeX+fbgbVMUme3Vrbr7V2yxTXX5JklyTvT3JakhuybPbVXMe0pLX2unSzd9+TbmbY1UmW9P2fkeRT6WZSfWSC649O8sh0ywTP79/TdUnO7Me5U2vtc8szRgBWnWptuX6uALCKVdUF6WZyXdha23p+RwPA6qiqDktyaH/4xNba9+ZvNMAQ/eqKW9aasGDbe21gutlqwAwsAAAAAAZNgAUAAADAoCniDgAAAIxRFtUxMGZgAQAAADBoAiwAAAAABs1TCAEAAIAxzr9y7XkK4Tb39BTC1YEaWAAAAMAYEh2GxhJCAAAAAAZNgAUAAADAoAmwAAAAABg0ARYAsEJV1aKqav229QTn9xw5f9iqH+FwVNVBI5/FQcvRzyr7TKtq65F7LVqZ95qtqrqgH9cF8z0WAGDFUsQdAFaBqprqST43Jrk6yWlJjk7yudba9atkYGuwkSDngtbaonkcCgCsflRxZ2DMwAKA+bcwyZZJ9knyoSTnVNVT53dIa4RD++2geR4HAADLyQwsAFj19h93vGGSnZK8KMk9k9wnyVFVtWdr7YRVPLaVrrX2vfi7LgAAsyDAAoBVrLV25AQvf66q3pHkmCSPTrJ+kn9O8gercGgAADBIAiwAGIjW2lVV9eIkP+9f2r2qtmyt/WY+xwUArH3KZGkGRg0sABiQ1tqZSc4beekRS3cmemJdVe1SVR+tqnOq6obJnmZXVRtX1euq6tiquqSqFlfV1VV1SlW9s6ruP5PxVdXdquoNVXVyVV3X3/PMqnp3VW05wz5m9cS8qtqjqj5SVaf3Y761/3piVf1zVT12XPs2rmj+E0buN7odNMn91qmqF1TV1/qn2t1YVb+rqrOr6hNV9eiZvM++rwOq6ttVdXlV3VJV51fVZ6tqt5n2sSJV1c5V9bdV9a1+LDf13wuXVtV/V9Vrquruc+j3/v330RlVdX2//bSq3lJVG82in52q6gNV9bP+v/Hi/vv1W1X1Z1Xlj68AsJbyjwAAGJ7Lk2zX7288WaOqekOSdyRZZ6rOqurZST6aZLNxp9ZLsmmSXZIcXFWvbK19Zop+tk3y7ZGxLfXQfvvz/l4rRFVtluQzSZ4+welNk+zabwdX1U6ttZ+tgHvumORrSR4ywent++2lVfWhJAe31pZM0s/d+n72GXdq6357flW9McmVyzvmmaqqtyR56ySn79tvT07yhqrav7V20gz73TPJ4UnuMe7UTv32iqp6emvtp1P0sX6SjyR5Se5cH+1+/bZ3kkOqat/W2q9mMjYAYM0hwAKA4bn3yP51k7R5TpKnJfldks8mOSnJrUl2SHLZ0kZV9bIkH0sXCvw+yVFJvp/kt0nunuSxSZ6fZIMki6rq9621L42/WVVtkuS7SbbqX7ooyaeS/CJdEfq9k+yXLshYEUHSZkl+nC4wSpKbkny1f+2a/p47JtkrXXg2GnosLZJ/RP/150nePMFtTh13z52THN/3nSQ/SPKtJBemm7X+iHRPNLxPklelCwBfMclb+FKWhVc3p/usTuyPd08X1LxnZIyrwoIkS9J9r/woyTlJrk0XgG6dLijcI8nmSY7uQ8Hplq8+IMnX04Wj/9lv1yZ5UJIXpws7N09ybFXt0lq7cHwH/ayqY5Ls2b90SZIvJzkt3X/3LZI8M9336sOSfL+qdm6tXTHL9w8ArMaqtTZ9KwBguYwuaWutTVpUoqoeki4UWmqr1tqv+3MHJfn0yLlzkjx56fkJ+npEkpPTBS3nJtm3tXbWBO0emuTYdEHDDUm2bq1dPa7Nx5K8vD/8QZJ9Wms3jGvzp+mCh9EZYdu01i4Y127PJP/TH761tXbYBGP6RpI/6Q9PSPLM1tqlk7zPP0zyq9baZeNeX/qZH99a23Oia0faLkhyepJt04UmB7TWvjlBu43ThU5P7F96cmvt2HFtnpfki/3hZUmeOP5z7z/z/0kXhi31ktbaoqnGOcX498z0n+ljklzcWrtkin4OTDfr7S5JPtlae+kEbbZOcv7IS0uSvHB88FlVG6T7HJYGit9ure01QX/vTPLG/vATSV7dWrtlgnavTvKB/vALrbUDJ2hzQbqQ9cLW2taTvU8ApnfhVYvXmrBgq3usr+DXakANLAAYiKraNMmikZdOnCycStLShSyTnU+Sw9KFV7ck2Xui8CpJWmu/SDezKOlmH71s3LjuNXL+hiTPGR9e9f0cnu7Jiculrw+1NLy6qB/7hOFVf9//HR9ezcFL04VXSfKKicKr/l7XJXl2kuv7l143QbO/Hu13os+9/8z/fO7Dnb3W2slThVd9m89nWfj2vKpadwZdf2CiWXt9CPXCJEtncT21D1XvUFX3TnJwf3hsa+3lE4VXfX//OjK2A2qGddsAmJuqtWdj9SDAAoBVrKr2G7cdWFXvSXJWkqXFvX+f5LVTdPPDaWoKbZLkGf3hEa218yZrmyStte8kWRoSPXXc6X3SBWFJ8sVpwqL3J7l9qnvNwAtH9t/dWrtmOfubiRf3Xy/OspBkQq21q9ItLUySPfv6TUnumJ20c394dmvtW5lEf+4Xk52fRz/svy7IyEMEJnF7kvdNdrK1dmO62lZL/em4Js9Nt3w16ZZUTmdpjbZ1kvzRDNoDAGsINbAAYNWbru7RFUkOaq39eIo2P5imjz2y7A9Vi6tqvxmM64Z0xbJ3GPf6riP7x03VQWvt0qo6M119qrl63Mj+UcvRz4z0T8nbqT+8NMm+Nf2fY5eGVhsk2SZd+JjM4rMaafPQGQ10BajujT0tXZD0qCRbppt1N9m/CbdIcsoUXZ453ayudMtT39nv7zru3ONH9u8zg+/T0VlX479PAYA1mAALAObfzUmuSleD6egkn2utXTvNNRdNc37rkf2DsmwJ4EyMf1rh5iP7U87kGmmzPAHWFv3XG6dZIrmibJllYd+jM/vC6qOf11w+q1Wiqu6brsj+HrO4bKNpzp87gz5G22w+7tzWI/ufncmARoz/PgUA1mACLABYxaYq4j4LN09zfpPl6Ht83aO7j+zfNIPrb1yOeyfLQpPfLWc/M7XJcl6/3sj+qv6sZmTkSX+P7F+6Jsk304Wml6X7flrSn3tSkr/q90cL8k9kJuMfbbPhuHObzOD6yaw3fRMAYE0hwAKANdNo+PPq1toHV1BfC2bQfuFy3CvpCqRvlrFh0Mo0+v7+o7X2rBXU16r4rGbquVkWXh2XZP+JCvEnySyLo89k/KNtxt9z9PPaaLIxAbDqqW3O0CjiDgBrptElhlsuZ18Xj+xvN4P2M2kzlaVjX1hVD1jOvmZi9P2tbp/VTD1lZP/gaYKibWbR72zf4/h6WSvy+xQAWIMJsABgzfSDJK3f32s5+zppZP9JUzWsqvtl+YuSf39k/xmTtpre0vc/5R+RW2tXJvl5f7hLVd1nOe4548+qt6qepHffkf3p6m7N5vvlYVU1vq7VeH88sn/iuHPHj+w/bRb3BQDWMgIsAFgDtdYuT1cQPkkeXlXPW47u/ivJ7/v9508T8Byc6esmTedzI/tvqKpN59jP0uVpM1nm9pn+6zpJ3jbH+6W1dmGSU/vDh1TVpKFMf25VPYFwtA7VpLOmquq5SR42i37vkuS1U/S3IMn/G3np8HFNvpxkcb9/SFXdcxb3BgDWIgIsAFhz/V2WBU//Pl2IVVWbVdUhVTU6YyattSuSLOoPN0ry5aq6U32qqto/ySHLO+jW2klJjuoPt0jyX/3MrsnGvXv/hL3xzu+/PqSq7jbNbT+c5IJ+/+VV9a6qGl/MfvSe61XVc6rqLyc4/d6R/U9W1fYTXL99kk9OM6YV6eSR/bdX1Z1Cxqp6YpKPz6Hv11bVcybob/10weDSZaDHtNZOH23TWrsoyb/2h5sn+XZVbTvVzarqkVX1sTmME4BZqFp7NlYPirgDwBqqtfZ/VfWKdEHJgiRfrKo3pHv63Lnpnjy3cboZObsmeXy6fxu8cILu/ibd0rIHJNkzyZlV9ckkZ6V7stzTkjwz3dPtfta3WR5/luSEJA9KsnuS86rqK0l+3N9jw3Szl/ZK8vAkO6d7mt6oY5M8It0MrG9W1WeTXJFlSwtPb61dnCSttZuqat90yxc3SfKGJAdW1eH9+7k+3We4ZZJd0i2L2ygThFCttS9V1QFJ9k1yvyQ/rapPZdnyud2TvKTv74gk+8/pE5qdTyZ5U7rPbd8kP+s/jwuTbJrkqemWa96e5PNJDpxhv99L9xl/papekORbSa5N9z11ULr/fklydZJXTtLH36YrMP+UdJ/tWVX1jXTLYC9N9wfXeybZMckTk2yf7omJr5jhGAGANYAACwDWYK21RVV1aZJPpZvhslO/TWZxkisn6OfaqnpSkmPShRNbJjlsXLOrkzw7yYtWwLivrqo/SPKFdOHKgnShz0smueT2CV57X5IXJLlPulpT4+tNvSTLZpaltXZ6VT26v+du6T6vV081zIwt2j7qgHTL5fbux/6qfltqSZLXJ7kqqyDAaq1d3i8PPLwfz8OSvGtcs5vShUzrZOYB1oXpvg++ni4Y23eCNpcmeXq/vHKisd1WVU9P8s4kr0mybpJn9dtkLpriHACwBrKEEADWcK21byfZNt2spsPTLa37XZLb0s1m+mm6IOdFSe7bWjtmkn5+mW62zd+kq/N0Q7raSmelWza3U2vtuytw3Fe11vZKFzx9Ksk5/T1vSxf8nJgupNqttXbaBNdfkm5Gz/uTnNZf28a3G3fNL1tru6cLzf49yZnpZhQt6a8/K8l/pAtaHthaO3SSfm5ure2T5PnpZoJdlS4cvDDdDKc9Wmvvm+lnsSK01o5ON9Pp4+m+B36f5Lp07/H96f77fW7yHibt9/i+33f1ff2u305LF249tLV26qQddH3c2lp7fbpw9G3pZl9d1o/xlnRB4f8k+ad0s7CmXGYIAKx5qrUp/x0HAAAArGUuumbxWhMWbLHp+iphrQYsIQQAAADGkekwLJYQAgAAADBoAiwAAAAABk2ABQAAAMCgqYEFAAAAjFFKYDEwZmABAAAAMGgCLAAAAAAGTYAFAAAAwKAJsAAAAAAYNEXcAQAAgDHUcGdozMACAAAAYNAEWAAAAAAMmgALAAAAgEFTAwsAAAAYoxTBYmDMwAIAAABg0ARYAAAAAAyaAAsAAACAQRNgAQAAADBoirgDAAAAY1RUcWdYzMACAAAAYNAEWAAAAAAMmgALAAAAgEETYAEAAAAwaIq4AwAAAGOp4c7AmIEFAAAAwKAJsAAAAAAYNAEWAAAAAIOmBhYAAAAwhhJYDI0ZWAAAAAAMmgALAAAAgEETYAEAAAAwaAIsAAAAAAZNEXcAAABgjFLFnYExAwsAAACAQRNgAQAAADBoAiwAAACAWaiqDavqWVX1oar636q6oqpurarrq+qsqvpsVe1VNfPFmFW1XVW9p6rOqKrrqup3VXV2VX24qnZaiW9ntVCttfkeAwAAADAgV9xw21oTFtxrw7vOquJXVR2S5O1JNphB8x8kObC19utp+nx5kn9JcrdJmixJ8rbW2ttmMdQ1iiLuAAAAADO3fZaFVxcnOTbJKUku71/fPcmBSe6e5HFJvldVu7fWLp+os6o6MMnH+sPbk3w5yXFJbkuyR5IXJ1k/yVuranFr7V0r400NnRlYAAAAwBhmYE2uqv4tybZJ3pvkuNba7RO02SrJt5M8uH/p0621P5ug3b2SnJdko3Th1f6ttW+Ma7N7ukBrQbpQa8fW2tmzGfOaQA0sAAAAgJn7u9baU1tr35kovEqS1tqFSZ478tJzq2rBBE1fny68SpIPjw+v+r5OSPL3/eFdkxw696GvvszAAgAAAMYwA2vFqKqzsmwW1iNba6eNO39Bkq36w21ba+dP0s+GSS5NsjDJjUnu1Vq7eaUMeqDMwAIAAADGqrVoW7muH9kfU6C9qnbIsvDqF5OFV0nSWrshXUH4pAuxnrAiB7k6EGABAAAArGBVtV66gu9LXTiuycNH9k+eQZejbR4+aas1lAALAAAAYMV7fpKN+/1TW2uXjTv/4JH9SWdfTdLmwZO2WkPddb4HAAAAADBfqmr9JOuPe3lxa23xcvR5ryTvGnnpHydotsnI/pUz6PaqSa5dK5iBBQAAAIwx32WpVnEJrDcluW7c9qY5f3bd0sGvJ7l3/9KRrbUjJmh695H9W2bQ9WjR9g3nOLzVlhlYAAAAwNrsnUneP+61Oc2+qqq7JPlUksf1L/0yyZ/NfWgsJcACAAAA1lr9UsE5LxdcqqoqyUeTvKB/6ddJ/ri1ds0kl/xuZH+DGdxi9CmGN8x+hKs3SwgBAAAAlkMfXn0kycv6ly5K8qTW2gVTXHbtyP49Z3Cbe0xy7VpBgAUAAAAwR3149eEkr+xfujjJE1trv5zm0rNH9reZwa1G25w9aas1lCWEAAAAwBhV8z2C1cNIePUX/UuXpAuvzpvB5aeP7D9mBu1H25wxsxGuOaq1Nt9jAAAAAAbkqhtvW2vCgnssvOuc4roJwqtLk+zZWjtnFn1cmOQB/eE2ky05rKq7J7ksycIkNyW5V2vtprmMe3VlCSEAAADA7H0oy8Kry9LNvJpxeNX7ysj+IVO0e3m68CpJvrG2hVeJGVgAAADAOGZgTa2qPpjkVf3hZelmXs26LlVV3TvJeUk2THJ7kv1ba98Y12a3JN9NsiDJbUke3lo7a7b3Wt2pgQUAAAAwQ1X1j1kWXrUkH0jy0Kp66DSXntpa+/XoC621y6vqr5IsSrdK7oiq+nKS7yRZkmSPJC9OskF/yaFrY3iVmIEFAAAAjHP1jUvWmrBgs4XrzGoGVlV9L8kT5nCrl7TWFk3S518keX+WBVXjLUny9tbaoXO47xrBDCwAAACAedRa+7eqOjbJK5PslWTLdDOyLklyXJKPt9Z+Oo9DnHdmYAEAAABjmIHF0HgKIQAAAACDZgkhAAAAMEaZk8TAmIEFAAAAwKAJsAAAAAAYNAEWAAAAAIMmwAIAAABg0ARYAAAAAAyaAAsAAACAQRNgAQAAADBoAiwAAAAABu2u8z0AAAAAYFiq5nsEMJYZWAAAAAAMmgALAAAAgEETYAEAAAAwaAIsAAAAAAZNEXcAAABgjIoq7gyLGVgAAAAADJoACwAAAIBBE2ABAAAAMGhqYAEAAABjlBJYDIwZWAAAAAAMmgALAAAAgEETYAEAAAAwaAIsAAAAAAZNEXcAAABgDDXcGRozsAAAAAAYNAEWAAAAAIMmwAIAAABg0ARYAAAAAAyaIu4AAADAWKq4MzBmYAEAAAAwaAIsAAAAAAZNgAUAAADAoKmBBQAAAIxRimAxMGZgAQAAADBoAiwAAAAABk2ABQAAAMCgCbAAAAAAGDRF3AEAAIAxSg13BsYMLAAAAAAGTYAFAAAAwKAJsAAAAAAYNDWwAAAAgDGUwGJozMACAAAAYNAEWAAAAAAMmgALAAAAgEETYAEAAAAwaIq4AwAAAGOp4s7AmIEFAAAAwKAJsAAAAAAYNAEWAAAAAIOmBhYAAAAwRimCxcCYgQUAAADAoAmwAAAAABg0ARYAAAAAgybAAgAAAGDQFHEHAAAAxig13BkYM7AAAAAAGDQBFgAAAACDJsACAAAAYNCqtTbfYwAAAACASZmBBQAAAMCgCbAAAAAAGDQBFgAAAACDJsACAAAAYNAEWAAAAAAMmgALAAAAgEETYAEAAAAwaAIsAAAAAAZNgAUAAADAoAmwAAAAABg0ARYAAAAAgybAAgAAAGDQBFgAAAAADJoACwAAAIBB+/851nQNo5pCJAAAAABJRU5ErkJggg==;" parent="1" vertex="1">
                    <mxGeometry x="1350" y="160" width="1200" height="1200" as="geometry"/>
                </mxCell>
            </root>
        </mxGraphModel>
    </diagram>
</mxfile>